<svg width="109" height="40" viewBox="0 0 109 40" fill="none" xmlns="http://www.w3.org/2000/svg">
<path opacity="0.5" d="M49.9176 5.76318L56.0349 3.40459L61.2422 6.20461L99.8886 7.43552L107.899 13.8749C105.443 16.532 99.0515 33.6662 97.2463 37.0189L15.1784 34.7089L1.24387 10.8689L9.91286 3.73641L49.9176 5.76318Z" fill="#020101"/>
<path d="M50.664 5.41033L56.6247 3.21933L61.7066 5.84078L99.6724 7.1476L106.139 14.1504L100.016 20.4894L11.6752 17.0459L4.1601 10.3484L12.1872 3.9105L50.664 5.41033Z" fill="#EF81EA"/>
<path opacity="0.15" d="M6.4554 8.74551L12.1946 4.02218L93.2563 17.1133L105.81 14.1405L99.9972 20.362L11.9662 16.9582L4.48996 10.5288L89.7237 17.0618L6.4554 8.74551Z" fill="black"/>
<path d="M30.1302 14.7478L27.5833 14.6223L27.9173 7.84053L29.2357 7.90548L28.9543 13.6185L30.1828 13.6791L30.1302 14.7478ZM30.8067 14.7811L31.1162 8.49872L33.8728 8.63451L33.8202 9.70322L32.3819 9.63237L32.3042 11.2105L33.293 11.2592L33.2448 12.238L32.256 12.1893L32.1777 13.7773L33.616 13.8482L33.5633 14.9169L30.8067 14.7811ZM38.6093 8.86784L36.7816 15.0754L35.663 15.0203L34.4543 8.66316L35.7927 8.72909L36.3379 12.7007L37.2709 8.80191L38.6093 8.86784ZM38.98 15.1837L39.2895 8.90135L42.0461 9.03714L41.9935 10.1058L40.5552 10.035L40.4775 11.6131L41.4663 11.6618L41.4181 12.6406L40.4293 12.5919L40.351 14.18L41.7893 14.2508L41.7366 15.3195L38.98 15.1837ZM45.0049 15.4805L42.418 15.3531L42.7275 9.07071L44.0459 9.13566L43.789 14.3493L45.0575 14.4118L45.0049 15.4805ZM52.3197 9.54324L52.0441 15.1365C52.0346 15.3296 51.96 15.4894 51.8203 15.616C51.6872 15.743 51.5241 15.8017 51.331 15.7922L49.1636 15.6854C48.9705 15.6759 48.8107 15.6013 48.6841 15.4615C48.5641 15.3221 48.5089 15.1559 48.5184 14.9628L48.794 9.36955L50.1124 9.4345L49.8624 14.5083C49.8581 14.5949 49.8792 14.6427 49.9254 14.6516C49.972 14.6539 50.0087 14.6557 50.0353 14.657L50.5647 14.6831C50.5913 14.6844 50.6279 14.6862 50.6745 14.6885C50.7215 14.6842 50.7471 14.6387 50.7513 14.5521L51.0013 9.47829L52.3197 9.54324ZM53.1001 9.58168L55.9466 9.72191C56.1397 9.73142 56.2962 9.80588 56.4162 9.94528C56.5428 10.085 56.6015 10.2481 56.5923 10.4345L56.4629 13.0614C56.4534 13.2545 56.3788 13.4143 56.2391 13.5409C56.1063 13.6612 55.9434 13.7166 55.7503 13.7071L54.2221 13.6318L54.109 15.929L52.7906 15.8641L53.1001 9.58168ZM55.0239 12.6C55.1171 12.6046 55.166 12.5603 55.1706 12.467L55.2478 10.899C55.2524 10.8057 55.2081 10.7568 55.1149 10.7522L54.3658 10.7153L54.2748 12.5631L55.0239 12.6ZM62.1407 12.3899L62.0885 13.4486L60.041 13.3477L60.0931 12.289L62.1407 12.3899ZM65.3884 16.4847L67.2307 9.77717L68.4592 9.83769L69.6333 16.6938L68.2649 16.6264L68.1372 15.3585L66.9985 15.3024L66.7468 16.5516L65.3884 16.4847ZM67.209 14.2816L68.038 14.3224L67.7643 11.5456L67.209 14.2816ZM70.2733 16.7253L70.5828 10.4429L73.4293 10.5831C73.6224 10.5926 73.7789 10.6671 73.8989 10.8065C74.0258 10.9396 74.0845 11.1027 74.075 11.2958L73.9653 13.5231C73.9548 13.7361 73.8872 13.8897 73.7624 13.9836C73.6446 14.0713 73.5017 14.1277 73.3336 14.1527L73.9289 16.9054L72.5905 16.8394L72.2139 14.1176L71.7245 14.0935L71.5917 16.7902L70.2733 16.7253ZM71.7772 13.0248L72.5163 13.0612C72.6162 13.0661 72.6684 13.022 72.673 12.9288L72.7306 11.7602C72.7351 11.667 72.6875 11.6179 72.5876 11.613L71.8485 11.5766L71.7772 13.0248ZM74.5794 16.9374L74.8889 10.655L76.2073 10.72L75.8978 17.0024L74.5794 16.9374ZM76.5313 17.0336L78.349 10.8255L79.5775 10.886L80.7762 17.2427L79.4078 17.1753L79.2601 15.9065L78.1714 15.8528L77.8997 17.101L76.5313 17.0336ZM78.3819 14.832L79.151 14.8698L78.8875 12.494L78.3819 14.832Z" fill="white"/>
</svg>
