<svg width="109" height="39" viewBox="0 0 109 39" fill="none" xmlns="http://www.w3.org/2000/svg">
<path opacity="0.5" d="M48.5583 5.71357L54.4414 2.82014L59.8772 5.14581L98.4799 2.93381L107.032 8.63499C104.821 11.5001 99.9797 29.135 98.4799 32.635L16.5319 37.635L0.531721 15.1291L8.53183 7.25372L48.5583 5.71357Z" fill="#020101"/>
<path d="M49.2702 5.29574L55.0124 2.58316L60.3074 4.74211L98.2389 2.66627L105.303 9.06607L99.7684 15.9246L11.4711 20.3536L3.39004 14.3512L10.8126 7.22479L49.2702 5.29574Z" fill="#07DDE7"/>
<path opacity="0.15" d="M5.53362 12.5506L10.8298 7.33543L92.7348 13.1633L104.975 9.08542L99.738 15.7995L11.7531 20.2405L3.73462 14.5017L89.2116 13.4263L5.53362 12.5506Z" fill="black"/>
<path d="M29.6485 16.4229L27.1006 16.5245L26.83 9.73988L28.1489 9.68728L28.3769 15.4027L29.6059 15.3537L29.6485 16.4229ZM30.3253 16.3959L30.0747 10.1109L32.8325 10.0009L32.8751 11.0701L31.4363 11.1274L31.4992 12.7062L32.4885 12.6667L32.5275 13.646L31.5383 13.6854L31.6017 15.2741L33.0405 15.2168L33.0831 16.2859L30.3253 16.3959ZM37.5709 9.81195L36.3028 16.1575L35.1837 16.2021L33.4142 9.97771L34.7532 9.92431L35.6496 13.8317L36.232 9.86534L37.5709 9.81195ZM38.502 16.0698L38.2514 9.78481L41.0092 9.67484L41.0518 10.744L39.613 10.8014L39.676 12.3801L40.6652 12.3407L40.7042 13.3199L39.715 13.3593L39.7784 14.9481L41.2172 14.8907L41.2598 15.9598L38.502 16.0698ZM44.5294 15.8295L41.9415 15.9327L41.6909 9.64765L43.0098 9.59505L43.2178 14.8109L44.4868 14.7603L44.5294 15.8295ZM51.2871 9.26497L51.5102 14.8605C51.5179 15.0537 51.4578 15.2196 51.3299 15.3581C51.2086 15.4964 51.0514 15.5694 50.8582 15.5771L48.69 15.6635C48.4968 15.6712 48.3309 15.6111 48.1924 15.4832C48.0605 15.355 47.9907 15.1944 47.983 15.0012L47.7599 9.40563L49.0788 9.35303L49.2812 14.429C49.2847 14.5156 49.3099 14.5613 49.3568 14.5661C49.4034 14.5642 49.44 14.5628 49.4667 14.5617L49.9963 14.5406C50.0229 14.5395 50.0595 14.5381 50.1062 14.5362C50.1525 14.5277 50.174 14.4801 50.1705 14.3935L49.9681 9.31757L51.2871 9.26497ZM52.0678 9.23384L54.9155 9.12028C55.1087 9.11257 55.2712 9.17281 55.4031 9.30099C55.5416 9.42891 55.6146 9.58612 55.6221 9.77264L55.7269 12.4006C55.7346 12.5937 55.6745 12.7596 55.5465 12.8981C55.425 13.0297 55.2677 13.0994 55.0745 13.1071L53.5457 13.1681L53.6374 15.4662L52.3184 15.5188L52.0678 9.23384ZM54.2525 12.069C54.3457 12.0653 54.3905 12.0168 54.3868 11.9236L54.3242 10.3548C54.3205 10.2616 54.272 10.2168 54.1788 10.2205L53.4294 10.2504L53.5031 12.0989L54.2525 12.069ZM61.3223 11.2267L61.3646 12.2858L59.3162 12.3675L59.274 11.3083L61.3223 11.2267ZM67.1242 11.0253L67.0573 9.34665C67.0536 9.25339 67.0051 9.20862 66.9118 9.21234L66.2923 9.23704C66.1991 9.24076 66.1543 9.28925 66.158 9.38251L66.3289 13.6691C66.3327 13.7624 66.3812 13.8071 66.4744 13.8034L67.0939 13.7787C67.1872 13.775 67.232 13.7265 67.2282 13.6332L67.1649 12.0445L68.4838 11.9919L68.5715 14.1902C68.5792 14.3833 68.5191 14.5492 68.3912 14.6877C68.2697 14.8194 68.1123 14.889 67.9191 14.8967L65.7409 14.9836C65.5477 14.9913 65.382 14.9345 65.2437 14.8133C65.1118 14.6851 65.042 14.5244 65.0343 14.3312L64.8179 8.90553C64.8102 8.71235 64.8671 8.54995 64.9887 8.41834C65.1166 8.2798 65.2771 8.20668 65.4703 8.19897L67.6486 8.11211C67.8417 8.1044 68.0043 8.16464 68.1362 8.29282C68.2744 8.41408 68.3474 8.57129 68.3551 8.76447L68.4432 10.9727L67.1242 11.0253ZM69.1416 14.848L70.3798 8.00319L71.6089 7.95418L73.3882 14.6786L72.0193 14.7332L71.7793 13.4818L70.6402 13.5272L70.5005 14.7938L69.1416 14.848ZM70.759 12.4916L71.5883 12.4586L71.0687 9.7171L70.759 12.4916ZM76.6157 7.75452C76.8022 7.74708 76.9647 7.80732 77.1032 7.93523C77.2415 8.05648 77.3145 8.2137 77.3222 8.40688L77.539 13.8426C77.5464 14.0291 77.4862 14.1916 77.3583 14.3301C77.2301 14.462 77.0727 14.5317 76.8862 14.5391L74.0285 14.6531L73.7579 7.86848L76.6157 7.75452ZM76.0244 8.98906C76.0207 8.8958 75.9722 8.85103 75.8789 8.85475L75.1195 8.88503L75.3052 13.5413L76.0646 13.511C76.1579 13.5073 76.2026 13.4588 76.1989 13.3656L76.0244 8.98906ZM78.0756 7.6963L80.8334 7.58632L80.876 8.65547L79.4372 8.71285L79.5105 10.5514L80.6996 10.504L80.7386 11.4832L79.5495 11.5306L79.6225 13.3592L81.0613 13.3018L81.104 14.3709L78.3461 14.4809L78.0756 7.6963ZM85.2021 7.4121L85.4727 14.1967L84.2836 14.2441L82.9575 10.8543L83.0946 14.2915L81.7856 14.3437L81.515 7.55914L82.7141 7.51132L84.0294 10.8816L83.8932 7.4643L85.2021 7.4121Z" fill="white"/>
</svg>
