<svg width="109" height="39" viewBox="0 0 109 39" fill="none" xmlns="http://www.w3.org/2000/svg">
<path opacity="0.5" d="M48.5584 5.71357L54.4416 2.82014L59.8773 5.14581L98.48 2.93381L107.032 8.63499C104.821 11.5001 99.9798 29.135 98.48 32.635L16.532 37.635L0.531843 15.1291L8.53195 7.25372L48.5584 5.71357Z" fill="#020101"/>
<path d="M49.2703 5.29574L55.0125 2.58316L60.3075 4.74211L98.2391 2.66627L105.303 9.06607L99.7686 15.9246L11.4713 20.3536L3.39016 14.3512L10.8127 7.22479L49.2703 5.29574Z" fill="#FBEB2E"/>
<path opacity="0.1" d="M5.53374 12.5506L10.8299 7.33543L92.7349 13.1633L104.975 9.08542L99.7381 15.7995L11.7533 20.2405L3.73474 14.5017L89.2117 13.4263L5.53374 12.5506Z" fill="black"/>
<path d="M29.6484 16.4229L27.1004 16.5245L26.8299 9.73988L28.1488 9.68728L28.3767 15.4027L29.6058 15.3537L29.6484 16.4229ZM30.3252 16.3959L30.0746 10.1109L32.8324 10.0009L32.875 11.0701L31.4362 11.1274L31.4991 12.7062L32.4883 12.6667L32.5274 13.646L31.5382 13.6854L31.6015 15.2741L33.0404 15.2168L33.083 16.2859L30.3252 16.3959ZM37.5708 9.81195L36.3027 16.1575L35.1835 16.2021L33.4141 9.97771L34.753 9.92431L35.6495 13.8317L36.2319 9.86534L37.5708 9.81195ZM38.5019 16.0698L38.2513 9.78481L41.0091 9.67484L41.0517 10.744L39.6129 10.8014L39.6758 12.3801L40.665 12.3407L40.7041 13.3199L39.7149 13.3593L39.7782 14.9481L41.2171 14.8907L41.2597 15.9598L38.5019 16.0698ZM44.5293 15.8295L41.9414 15.9327L41.6907 9.64765L43.0097 9.59505L43.2177 14.8109L44.4867 14.7603L44.5293 15.8295ZM51.2869 9.26497L51.5101 14.8605C51.5178 15.0537 51.4577 15.2196 51.3298 15.3581C51.2085 15.4964 51.0513 15.5694 50.8581 15.5771L48.6898 15.6635C48.4967 15.6712 48.3308 15.6111 48.1923 15.4832C48.0604 15.355 47.9906 15.1944 47.9829 15.0012L47.7597 9.40563L49.0787 9.35303L49.2811 14.429C49.2846 14.5156 49.3097 14.5613 49.3566 14.5661C49.4033 14.5642 49.4399 14.5628 49.4665 14.5617L49.9961 14.5406C50.0228 14.5395 50.0594 14.5381 50.106 14.5362C50.1524 14.5277 50.1739 14.4801 50.1704 14.3935L49.968 9.31757L51.2869 9.26497ZM52.0676 9.23384L54.9154 9.12028C55.1086 9.11257 55.2711 9.17281 55.403 9.30099C55.5415 9.42891 55.6145 9.58612 55.6219 9.77264L55.7267 12.4006C55.7344 12.5937 55.6743 12.7596 55.5464 12.8981C55.4249 13.0297 55.2675 13.0994 55.0744 13.1071L53.5456 13.1681L53.6372 15.4662L52.3183 15.5188L52.0676 9.23384ZM54.2524 12.069C54.3456 12.0653 54.3904 12.0168 54.3867 11.9236L54.3241 10.3548C54.3204 10.2616 54.2719 10.2168 54.1786 10.2205L53.4292 10.2504L53.5029 12.0989L54.2524 12.069ZM61.3222 11.2267L61.3645 12.2858L59.3161 12.3675L59.2738 11.3083L61.3222 11.2267ZM67.6484 8.11211C67.835 8.10467 67.9975 8.16491 68.136 8.29282C68.2743 8.41408 68.3473 8.57129 68.355 8.76447L68.5718 14.2002C68.5792 14.3867 68.519 14.5492 68.3911 14.6877C68.2629 14.8196 68.1055 14.8893 67.919 14.8967L65.0613 15.0107L64.7907 8.22607L67.6484 8.11211ZM67.0572 9.34665C67.0535 9.25339 67.005 9.20862 66.9117 9.21234L66.1523 9.24262L66.338 13.8989L67.0974 13.8686C67.1906 13.8649 67.2354 13.8164 67.2317 13.7232L67.0572 9.34665ZM69.3789 14.8385L69.1283 8.55349L71.976 8.43993C72.1692 8.43223 72.3318 8.49246 72.4636 8.62064C72.6019 8.7419 72.6749 8.89911 72.6826 9.09229L72.7715 11.3205C72.78 11.5337 72.7262 11.6926 72.6103 11.7973C72.5008 11.8951 72.3634 11.964 72.1982 12.0039L73.036 14.6927L71.6971 14.7461L71.0799 12.0685L70.5903 12.088L70.6979 14.7859L69.3789 14.8385ZM70.5477 11.0189L71.2871 10.9894C71.387 10.9854 71.4351 10.9368 71.4314 10.8435L71.3848 9.67447C71.381 9.58121 71.3292 9.53657 71.2293 9.54056L70.4899 9.57004L70.5477 11.0189ZM73.537 14.6727L74.7951 8.32751L76.0241 8.2785L77.7836 14.5033L76.4147 14.5579L76.1546 13.3073L75.0655 13.3507L74.9059 14.6181L73.537 14.6727ZM75.1843 12.3152L75.9537 12.2845L75.48 9.9415L75.1843 12.3152ZM81.2252 8.07109L79.957 14.4167L78.8379 14.4613L77.0685 8.23685L78.4074 8.18346L79.3038 12.0908L79.8862 8.12448L81.2252 8.07109ZM82.1563 14.329L81.9056 8.04395L84.6635 7.93398L84.7061 9.00313L83.2672 9.06051L83.3302 10.6393L84.3194 10.5998L84.3585 11.579L83.3692 11.6185L83.4326 13.2072L84.8715 13.1498L84.9141 14.219L82.1563 14.329ZM88.8723 7.76614L89.1229 14.0511L87.9339 14.0986L86.7724 10.8222L86.9047 14.1396L85.5957 14.1918L85.3451 7.9068L86.5342 7.85938L87.696 11.1457L87.5633 7.81834L88.8723 7.76614Z" fill="white"/>
</svg>
