<svg width="31" height="32" viewBox="0 0 31 32" fill="none" xmlns="http://www.w3.org/2000/svg">
<path d="M15.2718 4.21973L4.70605 11.8962L8.74164 24.3168H21.8015L25.8375 11.8962L15.2718 4.21973Z" fill="#FFA608"/>
<mask id="mask0_507_77710" style="mask-type:luminance" maskUnits="userSpaceOnUse" x="8" y="24" width="15" height="6">
<path d="M21.8011 24.3169H15.2713H8.74115L8.1499 29.1057H15.2713H22.3923L21.8011 24.3169Z" fill="white"/>
</mask>
<g mask="url(#mask0_507_77710)">
<path d="M13.5259 29.1055L22.3929 28.9719V29.1055H13.5259Z" fill="#EF690F"/>
</g>
<mask id="mask1_507_77710" style="mask-type:luminance" maskUnits="userSpaceOnUse" x="8" y="24" width="15" height="6">
<path d="M21.8011 24.3169H15.2713H8.74115L8.1499 29.1057H15.2713H22.3923L21.8011 24.3169Z" fill="white"/>
</mask>
<g mask="url(#mask1_507_77710)">
<path d="M8.1499 29.0331L22.3923 28.8186V28.9722L13.5253 29.1058H8.1499V29.0331Z" fill="#EE680E"/>
</g>
<mask id="mask2_507_77710" style="mask-type:luminance" maskUnits="userSpaceOnUse" x="8" y="24" width="15" height="6">
<path d="M21.8011 24.3169H15.2713H8.74115L8.1499 29.1057H15.2713H22.3923L21.8011 24.3169Z" fill="white"/>
</mask>
<g mask="url(#mask2_507_77710)">
<path d="M8.1499 28.8792L22.3923 28.6648V28.8187L8.1499 29.0331V28.8792Z" fill="#ED670E"/>
</g>
<mask id="mask3_507_77710" style="mask-type:luminance" maskUnits="userSpaceOnUse" x="8" y="24" width="15" height="6">
<path d="M21.8011 24.3169H15.2713H8.74115L8.1499 29.1057H15.2713H22.3923L21.8011 24.3169Z" fill="white"/>
</mask>
<g mask="url(#mask3_507_77710)">
<path d="M8.1499 28.7253L22.3923 28.5112V28.6648L8.1499 28.8792V28.7253Z" fill="#EC660E"/>
</g>
<mask id="mask4_507_77710" style="mask-type:luminance" maskUnits="userSpaceOnUse" x="8" y="24" width="15" height="6">
<path d="M21.8011 24.3169H15.2713H8.74115L8.1499 29.1057H15.2713H22.3923L21.8011 24.3169Z" fill="white"/>
</mask>
<g mask="url(#mask4_507_77710)">
<path d="M8.1499 28.5716L22.3923 28.3572V28.5111L8.1499 28.7252V28.5716Z" fill="#EB650E"/>
</g>
<mask id="mask5_507_77710" style="mask-type:luminance" maskUnits="userSpaceOnUse" x="8" y="24" width="15" height="6">
<path d="M21.8011 24.3169H15.2713H8.74115L8.1499 29.1057H15.2713H22.3923L21.8011 24.3169Z" fill="white"/>
</mask>
<g mask="url(#mask5_507_77710)">
<path d="M8.1499 28.4181L22.3923 28.2036V28.3572L8.1499 28.5716V28.4181Z" fill="#EA640E"/>
</g>
<mask id="mask6_507_77710" style="mask-type:luminance" maskUnits="userSpaceOnUse" x="8" y="24" width="15" height="6">
<path d="M21.8011 24.3169H15.2713H8.74115L8.1499 29.1057H15.2713H22.3923L21.8011 24.3169Z" fill="white"/>
</mask>
<g mask="url(#mask6_507_77710)">
<path d="M8.1499 28.2642L22.3923 28.0498V28.2037L8.1499 28.4182V28.2642Z" fill="#E9620D"/>
</g>
<mask id="mask7_507_77710" style="mask-type:luminance" maskUnits="userSpaceOnUse" x="8" y="24" width="15" height="6">
<path d="M21.8011 24.3169H15.2713H8.74115L8.1499 29.1057H15.2713H22.3923L21.8011 24.3169Z" fill="white"/>
</mask>
<g mask="url(#mask7_507_77710)">
<path d="M8.1499 28.1103L22.3923 27.8962V28.0498L8.1499 28.2642V28.1103Z" fill="#E8610D"/>
</g>
<mask id="mask8_507_77710" style="mask-type:luminance" maskUnits="userSpaceOnUse" x="8" y="24" width="15" height="6">
<path d="M21.8011 24.3169H15.2713H8.74115L8.1499 29.1057H15.2713H22.3923L21.8011 24.3169Z" fill="white"/>
</mask>
<g mask="url(#mask8_507_77710)">
<path d="M8.1499 27.9566L22.3923 27.7422V27.8961L8.1499 28.1102V27.9566Z" fill="#E7600D"/>
</g>
<mask id="mask9_507_77710" style="mask-type:luminance" maskUnits="userSpaceOnUse" x="8" y="24" width="15" height="6">
<path d="M21.8011 24.3169H15.2713H8.74115L8.1499 29.1057H15.2713H22.3923L21.8011 24.3169Z" fill="white"/>
</mask>
<g mask="url(#mask9_507_77710)">
<path d="M8.1499 27.8027L22.3923 27.5886V27.7422L8.1499 27.9566V27.8027Z" fill="#E65F0D"/>
</g>
<mask id="mask10_507_77710" style="mask-type:luminance" maskUnits="userSpaceOnUse" x="8" y="24" width="15" height="6">
<path d="M21.8011 24.3169H15.2713H8.74115L8.1499 29.1057H15.2713H22.3923L21.8011 24.3169Z" fill="white"/>
</mask>
<g mask="url(#mask10_507_77710)">
<path d="M8.1499 27.6493L22.3923 27.4348V27.5887L8.1499 27.8028V27.6493Z" fill="#E55E0D"/>
</g>
<mask id="mask11_507_77710" style="mask-type:luminance" maskUnits="userSpaceOnUse" x="8" y="24" width="15" height="6">
<path d="M21.8011 24.3169H15.2713H8.74115L8.1499 29.1057H15.2713H22.3923L21.8011 24.3169Z" fill="white"/>
</mask>
<g mask="url(#mask11_507_77710)">
<path d="M8.1499 27.4954L22.3923 27.2812V27.4348L8.1499 27.6493V27.4954Z" fill="#E45C0C"/>
</g>
<mask id="mask12_507_77710" style="mask-type:luminance" maskUnits="userSpaceOnUse" x="8" y="24" width="15" height="6">
<path d="M21.8011 24.3169H15.2713H8.74115L8.1499 29.1057H15.2713H22.3923L21.8011 24.3169Z" fill="white"/>
</mask>
<g mask="url(#mask12_507_77710)">
<path d="M8.1499 27.3419L22.3923 27.1274V27.2813L8.1499 27.4955V27.3419Z" fill="#E35B0C"/>
</g>
<mask id="mask13_507_77710" style="mask-type:luminance" maskUnits="userSpaceOnUse" x="8" y="24" width="15" height="6">
<path d="M21.8011 24.3169H15.2713H8.74115L8.1499 29.1057H15.2713H22.3923L21.8011 24.3169Z" fill="white"/>
</mask>
<g mask="url(#mask13_507_77710)">
<path d="M8.1499 27.1878L22.3923 26.9734V27.1273L8.1499 27.3417V27.1878Z" fill="#E25A0C"/>
</g>
<mask id="mask14_507_77710" style="mask-type:luminance" maskUnits="userSpaceOnUse" x="8" y="24" width="15" height="6">
<path d="M21.8011 24.3169H15.2713H8.74115L8.1499 29.1057H15.2713H22.3923L21.8011 24.3169Z" fill="white"/>
</mask>
<g mask="url(#mask14_507_77710)">
<path d="M8.1499 27.0345L22.3923 26.8201V26.9736L8.1499 27.1881V27.0345Z" fill="#E1590C"/>
</g>
<mask id="mask15_507_77710" style="mask-type:luminance" maskUnits="userSpaceOnUse" x="8" y="24" width="15" height="6">
<path d="M21.8011 24.3169H15.2713H8.74115L8.1499 29.1057H15.2713H22.3923L21.8011 24.3169Z" fill="white"/>
</mask>
<g mask="url(#mask15_507_77710)">
<path d="M8.1499 26.8805L22.3923 26.666V26.8199L8.1499 27.0344V26.8805Z" fill="#E0570C"/>
</g>
<mask id="mask16_507_77710" style="mask-type:luminance" maskUnits="userSpaceOnUse" x="8" y="24" width="15" height="6">
<path d="M21.8011 24.3169H15.2713H8.74115L8.1499 29.1057H15.2713H22.3923L21.8011 24.3169Z" fill="white"/>
</mask>
<g mask="url(#mask16_507_77710)">
<path d="M8.1499 26.7267L22.3923 26.5122V26.6658L8.1499 26.8802V26.7267Z" fill="#DF560B"/>
</g>
<mask id="mask17_507_77710" style="mask-type:luminance" maskUnits="userSpaceOnUse" x="8" y="24" width="15" height="6">
<path d="M21.8011 24.3169H15.2713H8.74115L8.1499 29.1057H15.2713H22.3923L21.8011 24.3169Z" fill="white"/>
</mask>
<g mask="url(#mask17_507_77710)">
<path d="M8.1499 26.5731L22.3923 26.3586V26.5125L8.1499 26.727V26.5731Z" fill="#DE540B"/>
</g>
<mask id="mask18_507_77710" style="mask-type:luminance" maskUnits="userSpaceOnUse" x="8" y="24" width="15" height="6">
<path d="M21.8011 24.3169H15.2713H8.74115L8.1499 29.1057H15.2713H22.3923L21.8011 24.3169Z" fill="white"/>
</mask>
<g mask="url(#mask18_507_77710)">
<path d="M8.1499 26.4189L22.3923 26.2048V26.3584L8.1499 26.5728V26.4189Z" fill="#DD530B"/>
</g>
<mask id="mask19_507_77710" style="mask-type:luminance" maskUnits="userSpaceOnUse" x="8" y="24" width="15" height="6">
<path d="M21.8011 24.3169H15.2713H8.74115L8.1499 29.1057H15.2713H22.3923L21.8011 24.3169Z" fill="white"/>
</mask>
<g mask="url(#mask19_507_77710)">
<path d="M8.1499 26.2655L22.3923 26.051V26.2049L8.1499 26.419V26.2655Z" fill="#DC520B"/>
</g>
<mask id="mask20_507_77710" style="mask-type:luminance" maskUnits="userSpaceOnUse" x="8" y="24" width="15" height="6">
<path d="M21.8011 24.3169H15.2713H8.74115L8.1499 29.1057H15.2713H22.3923L21.8011 24.3169Z" fill="white"/>
</mask>
<g mask="url(#mask20_507_77710)">
<path d="M8.1499 26.1116L22.3923 25.8975V26.051L8.1499 26.2655V26.1116Z" fill="#DA500A"/>
</g>
<mask id="mask21_507_77710" style="mask-type:luminance" maskUnits="userSpaceOnUse" x="8" y="24" width="15" height="6">
<path d="M21.8011 24.3169H15.2713H8.74115L8.1499 29.1057H15.2713H22.3923L21.8011 24.3169Z" fill="white"/>
</mask>
<g mask="url(#mask21_507_77710)">
<path d="M8.1499 25.9581L22.3923 25.7437V25.8976L8.1499 26.1117V25.9581Z" fill="#D94F0A"/>
</g>
<mask id="mask22_507_77710" style="mask-type:luminance" maskUnits="userSpaceOnUse" x="8" y="24" width="15" height="6">
<path d="M21.8011 24.3169H15.2713H8.74115L8.1499 29.1057H15.2713H22.3923L21.8011 24.3169Z" fill="white"/>
</mask>
<g mask="url(#mask22_507_77710)">
<path d="M8.1499 25.804L22.3923 25.5898V25.7434L8.1499 25.9579V25.804Z" fill="#D84D0A"/>
</g>
<mask id="mask23_507_77710" style="mask-type:luminance" maskUnits="userSpaceOnUse" x="8" y="24" width="15" height="6">
<path d="M21.8011 24.3169H15.2713H8.74115L8.1499 29.1057H15.2713H22.3923L21.8011 24.3169Z" fill="white"/>
</mask>
<g mask="url(#mask23_507_77710)">
<path d="M8.1499 25.6507L22.3923 25.4363V25.5902L8.1499 25.8043V25.6507Z" fill="#D74C0A"/>
</g>
<mask id="mask24_507_77710" style="mask-type:luminance" maskUnits="userSpaceOnUse" x="8" y="24" width="15" height="6">
<path d="M21.8011 24.3169H15.2713H8.74115L8.1499 29.1057H15.2713H22.3923L21.8011 24.3169Z" fill="white"/>
</mask>
<g mask="url(#mask24_507_77710)">
<path d="M8.1499 25.4967L22.3923 25.2822V25.4361L8.1499 25.6506V25.4967Z" fill="#D64A09"/>
</g>
<mask id="mask25_507_77710" style="mask-type:luminance" maskUnits="userSpaceOnUse" x="8" y="24" width="15" height="6">
<path d="M21.8011 24.3169H15.2713H8.74115L8.1499 29.1057H15.2713H22.3923L21.8011 24.3169Z" fill="white"/>
</mask>
<g mask="url(#mask25_507_77710)">
<path d="M8.1499 25.3431L22.3923 25.1287V25.2822L8.1499 25.4967V25.3431Z" fill="#D44909"/>
</g>
<mask id="mask26_507_77710" style="mask-type:luminance" maskUnits="userSpaceOnUse" x="8" y="24" width="15" height="6">
<path d="M21.8011 24.3169H15.2713H8.74115L8.1499 29.1057H15.2713H22.3923L21.8011 24.3169Z" fill="white"/>
</mask>
<g mask="url(#mask26_507_77710)">
<path d="M8.1499 25.1892L22.3923 24.9751V25.1287L8.1499 25.3431V25.1892Z" fill="#D34709"/>
</g>
<mask id="mask27_507_77710" style="mask-type:luminance" maskUnits="userSpaceOnUse" x="8" y="24" width="15" height="6">
<path d="M21.8011 24.3169H15.2713H8.74115L8.1499 29.1057H15.2713H22.3923L21.8011 24.3169Z" fill="white"/>
</mask>
<g mask="url(#mask27_507_77710)">
<path d="M8.1499 25.0355L22.3923 24.821V24.9749L8.1499 25.1891V25.0355Z" fill="#D24609"/>
</g>
<mask id="mask28_507_77710" style="mask-type:luminance" maskUnits="userSpaceOnUse" x="8" y="24" width="15" height="6">
<path d="M21.8011 24.3169H15.2713H8.74115L8.1499 29.1057H15.2713H22.3923L21.8011 24.3169Z" fill="white"/>
</mask>
<g mask="url(#mask28_507_77710)">
<path d="M8.1499 24.8817L22.3923 24.6672V24.8211L8.1499 25.0356V24.8817Z" fill="#D04408"/>
</g>
<mask id="mask29_507_77710" style="mask-type:luminance" maskUnits="userSpaceOnUse" x="8" y="24" width="15" height="6">
<path d="M21.8011 24.3169H15.2713H8.74115L8.1499 29.1057H15.2713H22.3923L21.8011 24.3169Z" fill="white"/>
</mask>
<g mask="url(#mask29_507_77710)">
<path d="M8.1499 24.7281L22.3923 24.5137V24.6672L8.1499 24.8817V24.7281Z" fill="#CF4208"/>
</g>
<mask id="mask30_507_77710" style="mask-type:luminance" maskUnits="userSpaceOnUse" x="8" y="24" width="15" height="6">
<path d="M21.8011 24.3169H15.2713H8.74115L8.1499 29.1057H15.2713H22.3923L21.8011 24.3169Z" fill="white"/>
</mask>
<g mask="url(#mask30_507_77710)">
<path d="M8.1499 24.5743L22.3923 24.3599V24.5138L8.1499 24.7282V24.5743Z" fill="#CE4108"/>
</g>
<mask id="mask31_507_77710" style="mask-type:luminance" maskUnits="userSpaceOnUse" x="8" y="24" width="15" height="6">
<path d="M21.8011 24.3169H15.2713H8.74115L8.1499 29.1057H15.2713H22.3923L21.8011 24.3169Z" fill="white"/>
</mask>
<g mask="url(#mask31_507_77710)">
<path d="M8.1499 24.4207L15.0406 24.3169H22.3923V24.3599L8.1499 24.5743V24.4207Z" fill="#CC3F07"/>
</g>
<mask id="mask32_507_77710" style="mask-type:luminance" maskUnits="userSpaceOnUse" x="8" y="24" width="15" height="6">
<path d="M21.8011 24.3169H15.2713H8.74115L8.1499 29.1057H15.2713H22.3923L21.8011 24.3169Z" fill="white"/>
</mask>
<g mask="url(#mask32_507_77710)">
<path d="M15.0406 24.3169L8.1499 24.4207V24.3169H15.0406Z" fill="#CB3D07"/>
</g>
<path d="M8.77268 24.3448L6.75506 18.1343L4.7371 11.9238L0 12.8415L2.20061 19.6141L4.40122 26.3868L8.77268 24.3448Z" fill="#FF7D12"/>
<mask id="mask33_507_77710" style="mask-type:luminance" maskUnits="userSpaceOnUse" x="1" y="0" width="15" height="12">
<path d="M4.75847 11.9242L10.0412 8.08612L15.2718 4.22L12.9876 0.026123L7.22663 4.21188L1.46533 8.39765L4.75847 11.9242Z" fill="white"/>
</mask>
<g mask="url(#mask33_507_77710)">
<path d="M9.70021 0.026123L1.46533 5.97515V0.026123H9.70021Z" fill="#FFA608"/>
</g>
<mask id="mask34_507_77710" style="mask-type:luminance" maskUnits="userSpaceOnUse" x="1" y="0" width="15" height="12">
<path d="M4.75847 11.9242L10.0412 8.08612L15.2718 4.22L12.9876 0.026123L7.22663 4.21188L1.46533 8.39765L4.75847 11.9242Z" fill="white"/>
</mask>
<g mask="url(#mask34_507_77710)">
<path d="M9.8788 0.026123L1.46533 6.10402V5.97515L9.70021 0.026123H9.8788Z" fill="#FFA608"/>
</g>
<mask id="mask35_507_77710" style="mask-type:luminance" maskUnits="userSpaceOnUse" x="1" y="0" width="15" height="12">
<path d="M4.75847 11.9242L10.0412 8.08612L15.2718 4.22L12.9876 0.026123L7.22663 4.21188L1.46533 8.39765L4.75847 11.9242Z" fill="white"/>
</mask>
<g mask="url(#mask35_507_77710)">
<path d="M10.0574 0.026123L1.46533 6.23323V6.10402L9.8788 0.026123H10.0574Z" fill="#FFA508"/>
</g>
<mask id="mask36_507_77710" style="mask-type:luminance" maskUnits="userSpaceOnUse" x="1" y="0" width="15" height="12">
<path d="M4.75847 11.9242L10.0412 8.08612L15.2718 4.22L12.9876 0.026123L7.22663 4.21188L1.46533 8.39765L4.75847 11.9242Z" fill="white"/>
</mask>
<g mask="url(#mask36_507_77710)">
<path d="M10.236 0.026123L1.46533 6.3621V6.23323L10.0574 0.026123H10.236Z" fill="#FFA408"/>
</g>
<mask id="mask37_507_77710" style="mask-type:luminance" maskUnits="userSpaceOnUse" x="1" y="0" width="15" height="12">
<path d="M4.75847 11.9242L10.0412 8.08612L15.2718 4.22L12.9876 0.026123L7.22663 4.21188L1.46533 8.39765L4.75847 11.9242Z" fill="white"/>
</mask>
<g mask="url(#mask37_507_77710)">
<path d="M10.4146 0.026123L1.46533 6.49131V6.3621L10.236 0.026123H10.4146Z" fill="#FFA308"/>
</g>
<mask id="mask38_507_77710" style="mask-type:luminance" maskUnits="userSpaceOnUse" x="1" y="0" width="15" height="12">
<path d="M4.75847 11.9242L10.0412 8.08612L15.2718 4.22L12.9876 0.026123L7.22663 4.21188L1.46533 8.39765L4.75847 11.9242Z" fill="white"/>
</mask>
<g mask="url(#mask38_507_77710)">
<path d="M10.5932 0.026123L1.46533 6.62018V6.49131L10.4146 0.026123H10.5932Z" fill="#FFA208"/>
</g>
<mask id="mask39_507_77710" style="mask-type:luminance" maskUnits="userSpaceOnUse" x="1" y="0" width="15" height="12">
<path d="M4.75847 11.9242L10.0412 8.08612L15.2718 4.22L12.9876 0.026123L7.22663 4.21188L1.46533 8.39765L4.75847 11.9242Z" fill="white"/>
</mask>
<g mask="url(#mask39_507_77710)">
<path d="M10.7718 0.026123L1.46533 6.74939V6.62018L10.5932 0.026123H10.7718Z" fill="#FFA108"/>
</g>
<mask id="mask40_507_77710" style="mask-type:luminance" maskUnits="userSpaceOnUse" x="1" y="0" width="15" height="12">
<path d="M4.75847 11.9242L10.0412 8.08612L15.2718 4.22L12.9876 0.026123L7.22663 4.21188L1.46533 8.39765L4.75847 11.9242Z" fill="white"/>
</mask>
<g mask="url(#mask40_507_77710)">
<path d="M10.9504 0.026123L1.46533 6.87826V6.74939L10.7718 0.026123H10.9504Z" fill="#FFA008"/>
</g>
<mask id="mask41_507_77710" style="mask-type:luminance" maskUnits="userSpaceOnUse" x="1" y="0" width="15" height="12">
<path d="M4.75847 11.9242L10.0412 8.08612L15.2718 4.22L12.9876 0.026123L7.22663 4.21188L1.46533 8.39765L4.75847 11.9242Z" fill="white"/>
</mask>
<g mask="url(#mask41_507_77710)">
<path d="M11.1289 0.026123L1.46533 7.00747V6.87826L10.9504 0.026123H11.1289Z" fill="#FFA008"/>
</g>
<mask id="mask42_507_77710" style="mask-type:luminance" maskUnits="userSpaceOnUse" x="1" y="0" width="15" height="12">
<path d="M4.75847 11.9242L10.0412 8.08612L15.2718 4.22L12.9876 0.026123L7.22663 4.21188L1.46533 8.39765L4.75847 11.9242Z" fill="white"/>
</mask>
<g mask="url(#mask42_507_77710)">
<path d="M11.3075 0.026123L1.46533 7.13634V7.00747L11.1289 0.026123H11.3075Z" fill="#FF9F08"/>
</g>
<mask id="mask43_507_77710" style="mask-type:luminance" maskUnits="userSpaceOnUse" x="1" y="0" width="15" height="12">
<path d="M4.75847 11.9242L10.0412 8.08612L15.2718 4.22L12.9876 0.026123L7.22663 4.21188L1.46533 8.39765L4.75847 11.9242Z" fill="white"/>
</mask>
<g mask="url(#mask43_507_77710)">
<path d="M11.4861 0.026123L1.46533 7.26555V7.13634L11.3075 0.026123H11.4861Z" fill="#FF9E08"/>
</g>
<mask id="mask44_507_77710" style="mask-type:luminance" maskUnits="userSpaceOnUse" x="1" y="0" width="15" height="12">
<path d="M4.75847 11.9242L10.0412 8.08612L15.2718 4.22L12.9876 0.026123L7.22663 4.21188L1.46533 8.39765L4.75847 11.9242Z" fill="white"/>
</mask>
<g mask="url(#mask44_507_77710)">
<path d="M11.6647 0.026123L1.46533 7.39442V7.26555L11.4861 0.026123H11.6647Z" fill="#FF9D08"/>
</g>
<mask id="mask45_507_77710" style="mask-type:luminance" maskUnits="userSpaceOnUse" x="1" y="0" width="15" height="12">
<path d="M4.75847 11.9242L10.0412 8.08612L15.2718 4.22L12.9876 0.026123L7.22663 4.21188L1.46533 8.39765L4.75847 11.9242Z" fill="white"/>
</mask>
<g mask="url(#mask45_507_77710)">
<path d="M11.8433 0.026123L1.46533 7.52363V7.39442L11.6647 0.026123H11.8433Z" fill="#FF9C08"/>
</g>
<mask id="mask46_507_77710" style="mask-type:luminance" maskUnits="userSpaceOnUse" x="1" y="0" width="15" height="12">
<path d="M4.75847 11.9242L10.0412 8.08612L15.2718 4.22L12.9876 0.026123L7.22663 4.21188L1.46533 8.39765L4.75847 11.9242Z" fill="white"/>
</mask>
<g mask="url(#mask46_507_77710)">
<path d="M12.0219 0.026123L1.46533 7.6525V7.52363L11.8433 0.026123H12.0219Z" fill="#FF9B08"/>
</g>
<mask id="mask47_507_77710" style="mask-type:luminance" maskUnits="userSpaceOnUse" x="1" y="0" width="15" height="12">
<path d="M4.75847 11.9242L10.0412 8.08612L15.2718 4.22L12.9876 0.026123L7.22663 4.21188L1.46533 8.39765L4.75847 11.9242Z" fill="white"/>
</mask>
<g mask="url(#mask47_507_77710)">
<path d="M12.2005 0.026123L1.46533 7.78171V7.6525L12.0219 0.026123H12.2005Z" fill="#FF9A08"/>
</g>
<mask id="mask48_507_77710" style="mask-type:luminance" maskUnits="userSpaceOnUse" x="1" y="0" width="15" height="12">
<path d="M4.75847 11.9242L10.0412 8.08612L15.2718 4.22L12.9876 0.026123L7.22663 4.21188L1.46533 8.39765L4.75847 11.9242Z" fill="white"/>
</mask>
<g mask="url(#mask48_507_77710)">
<path d="M12.3791 0.026123L1.46533 7.91058V7.78171L12.2005 0.026123H12.3791Z" fill="#FF9908"/>
</g>
<mask id="mask49_507_77710" style="mask-type:luminance" maskUnits="userSpaceOnUse" x="1" y="0" width="15" height="12">
<path d="M4.75847 11.9242L10.0412 8.08612L15.2718 4.22L12.9876 0.026123L7.22663 4.21188L1.46533 8.39765L4.75847 11.9242Z" fill="white"/>
</mask>
<g mask="url(#mask49_507_77710)">
<path d="M12.5577 0.026123L1.46533 8.03945V7.91058L12.3791 0.026123H12.5577Z" fill="#FF9808"/>
</g>
<mask id="mask50_507_77710" style="mask-type:luminance" maskUnits="userSpaceOnUse" x="1" y="0" width="15" height="12">
<path d="M4.75847 11.9242L10.0412 8.08612L15.2718 4.22L12.9876 0.026123L7.22663 4.21188L1.46533 8.39765L4.75847 11.9242Z" fill="white"/>
</mask>
<g mask="url(#mask50_507_77710)">
<path d="M12.7363 0.026123L1.46533 8.16866V8.03945L12.5577 0.026123H12.7363Z" fill="#FF9708"/>
</g>
<mask id="mask51_507_77710" style="mask-type:luminance" maskUnits="userSpaceOnUse" x="1" y="0" width="15" height="12">
<path d="M4.75847 11.9242L10.0412 8.08612L15.2718 4.22L12.9876 0.026123L7.22663 4.21188L1.46533 8.39765L4.75847 11.9242Z" fill="white"/>
</mask>
<g mask="url(#mask51_507_77710)">
<path d="M12.9149 0.026123L1.46533 8.29753V8.16866L12.7363 0.026123H12.9149Z" fill="#FF9608"/>
</g>
<mask id="mask52_507_77710" style="mask-type:luminance" maskUnits="userSpaceOnUse" x="1" y="0" width="15" height="12">
<path d="M4.75847 11.9242L10.0412 8.08612L15.2718 4.22L12.9876 0.026123L7.22663 4.21188L1.46533 8.39765L4.75847 11.9242Z" fill="white"/>
</mask>
<g mask="url(#mask52_507_77710)">
<path d="M13.0935 0.026123L1.46533 8.42674V8.29753L12.9149 0.026123H13.0935Z" fill="#FF9508"/>
</g>
<mask id="mask53_507_77710" style="mask-type:luminance" maskUnits="userSpaceOnUse" x="1" y="0" width="15" height="12">
<path d="M4.75847 11.9242L10.0412 8.08612L15.2718 4.22L12.9876 0.026123L7.22663 4.21188L1.46533 8.39765L4.75847 11.9242Z" fill="white"/>
</mask>
<g mask="url(#mask53_507_77710)">
<path d="M13.2051 0.026123L13.2281 0.0579179L1.46533 8.55561V8.42674L13.0935 0.026123H13.2051Z" fill="#FF9408"/>
</g>
<mask id="mask54_507_77710" style="mask-type:luminance" maskUnits="userSpaceOnUse" x="1" y="0" width="15" height="12">
<path d="M4.75847 11.9242L10.0412 8.08612L15.2718 4.22L12.9876 0.026123L7.22663 4.21188L1.46533 8.39765L4.75847 11.9242Z" fill="white"/>
</mask>
<g mask="url(#mask54_507_77710)">
<path d="M13.2281 0.0578613L13.2893 0.142422L1.46533 8.68476V8.55555L13.2281 0.0578613Z" fill="#FF9308"/>
</g>
<mask id="mask55_507_77710" style="mask-type:luminance" maskUnits="userSpaceOnUse" x="1" y="0" width="15" height="12">
<path d="M4.75847 11.9242L10.0412 8.08612L15.2718 4.22L12.9876 0.026123L7.22663 4.21188L1.46533 8.39765L4.75847 11.9242Z" fill="white"/>
</mask>
<g mask="url(#mask55_507_77710)">
<path d="M13.2893 0.142334L13.3505 0.227234L1.52013 8.77397L1.46533 8.6982V8.68467L13.2893 0.142334Z" fill="#FF9208"/>
</g>
<mask id="mask56_507_77710" style="mask-type:luminance" maskUnits="userSpaceOnUse" x="4" y="-3" width="10" height="16">
<path d="M9.59248 12.1089L11.6271 5.90426L13.603 -0.292659L9.29551 -2.35461L7.07686 4.41198L4.85793 11.1788L9.59248 12.1089Z" fill="white"/>
</mask>
<g mask="url(#mask56_507_77710)">
<path d="M13.3492 0.224731L1.51855 8.77148L1.57976 8.85621L13.4104 0.309452L13.3492 0.224731Z" fill="#FF9108"/>
</g>
<mask id="mask57_507_77710" style="mask-type:luminance" maskUnits="userSpaceOnUse" x="4" y="-3" width="10" height="16">
<path d="M9.55526 12.1645L11.5889 5.95972L13.5639 -0.237329L9.25627 -2.29864L7.03862 4.46812L4.82068 11.2351L9.55526 12.1645Z" fill="white"/>
</mask>
<g mask="url(#mask57_507_77710)">
<path d="M13.4102 0.313116L1.58105 8.86133L1.64227 8.94604L13.4714 0.397828L13.4102 0.313116Z" fill="#FF9008"/>
</g>
<mask id="mask58_507_77710" style="mask-type:luminance" maskUnits="userSpaceOnUse" x="4" y="-3" width="10" height="16">
<path d="M9.51631 12.2134L11.5509 6.00875L13.5268 -0.188167L9.21934 -2.25012L7.00069 4.51647L4.78176 11.2833L9.51631 12.2134Z" fill="white"/>
</mask>
<g mask="url(#mask58_507_77710)">
<path d="M13.4722 0.3949L1.6416 8.94165L1.70281 9.02637L13.5334 0.479622L13.4722 0.3949Z" fill="#FF8F08"/>
</g>
<mask id="mask59_507_77710" style="mask-type:luminance" maskUnits="userSpaceOnUse" x="4" y="-3" width="10" height="16">
<path d="M9.4803 12.2691L11.5158 6.06461L13.4926 -0.132167L9.18534 -2.19477L6.96569 4.57167L4.74577 11.3383L9.4803 12.2691Z" fill="white"/>
</mask>
<g mask="url(#mask59_507_77710)">
<path d="M13.5371 0.483518L1.70508 9.02881L1.76627 9.11354L13.5983 0.568251L13.5371 0.483518Z" fill="#FF8E08"/>
</g>
<mask id="mask60_507_77710" style="mask-type:luminance" maskUnits="userSpaceOnUse" x="4" y="-3" width="10" height="16">
<path d="M9.44063 12.3174L11.4752 6.11275L13.4511 -0.0841627L9.14366 -2.14612L6.925 4.62048L4.70608 11.3873L9.44063 12.3174Z" fill="white"/>
</mask>
<g mask="url(#mask60_507_77710)">
<path d="M13.5943 0.564334L1.76367 9.11108L1.82488 9.19581L13.6555 0.649056L13.5943 0.564334Z" fill="#FF8D08"/>
</g>
<mask id="mask61_507_77710" style="mask-type:luminance" maskUnits="userSpaceOnUse" x="4" y="-3" width="10" height="16">
<path d="M9.40291 12.3723L11.4366 6.16749L13.4116 -0.0295655L9.10393 -2.09087L6.88627 4.67588L4.66834 11.4428L9.40291 12.3723Z" fill="white"/>
</mask>
<g mask="url(#mask61_507_77710)">
<path d="M13.6553 0.651983L1.82617 9.2002L1.88739 9.28491L13.7165 0.736695L13.6553 0.651983Z" fill="#FF8C08"/>
</g>
<mask id="mask62_507_77710" style="mask-type:luminance" maskUnits="userSpaceOnUse" x="4" y="-3" width="10" height="16">
<path d="M9.36446 12.4212L11.399 6.21651L13.375 0.0195971L9.06748 -2.04236L6.84883 4.72424L4.6299 11.491L9.36446 12.4212Z" fill="white"/>
</mask>
<g mask="url(#mask62_507_77710)">
<path d="M13.7173 0.734009L1.88672 9.28076L1.94792 9.36548L13.7785 0.818731L13.7173 0.734009Z" fill="#FF8B08"/>
</g>
<mask id="mask63_507_77710" style="mask-type:luminance" maskUnits="userSpaceOnUse" x="4" y="-2" width="10" height="15">
<path d="M9.32723 12.4763L11.3609 6.27149L13.3359 0.0744384L9.02825 -1.98687L6.81059 4.77988L4.59265 11.5468L9.32723 12.4763Z" fill="white"/>
</mask>
<g mask="url(#mask63_507_77710)">
<path d="M13.7779 0.821417L1.94873 9.36963L2.00995 9.45434L13.8391 0.906129L13.7779 0.821417Z" fill="#FF8A08"/>
</g>
<mask id="mask64_507_77710" style="mask-type:luminance" maskUnits="userSpaceOnUse" x="4" y="-2" width="10" height="15">
<path d="M9.28949 12.5255L11.3259 6.32116L13.3036 0.124516L8.99655 -1.93874L6.77591 4.82755L4.55499 11.594L9.28949 12.5255Z" fill="white"/>
</mask>
<g mask="url(#mask64_507_77710)">
<path d="M13.8438 0.904897L2.01025 9.44873L2.07144 9.53347L13.905 0.989639L13.8438 0.904897Z" fill="#FF8908"/>
</g>
<mask id="mask65_507_77710" style="mask-type:luminance" maskUnits="userSpaceOnUse" x="4" y="-2" width="10" height="15">
<path d="M9.25106 12.5801L11.2847 6.37525L13.2597 0.178198L8.95207 -1.88311L6.73442 4.88364L4.51648 11.6506L9.25106 12.5801Z" fill="white"/>
</mask>
<g mask="url(#mask65_507_77710)">
<path d="M13.9004 0.991095L2.07129 9.53931L2.1325 9.62402L13.9616 1.07581L13.9004 0.991095Z" fill="#FF8808"/>
</g>
<mask id="mask66_507_77710" style="mask-type:luminance" maskUnits="userSpaceOnUse" x="4" y="-2" width="10" height="15">
<path d="M9.21211 12.6289L11.2467 6.42428L13.2226 0.227361L8.91514 -1.83459L6.69649 4.932L4.47756 11.6988L9.21211 12.6289Z" fill="white"/>
</mask>
<g mask="url(#mask66_507_77710)">
<path d="M13.9624 1.07288L2.13184 9.61963L2.19304 9.70435L14.0236 1.1576L13.9624 1.07288Z" fill="#FF8708"/>
</g>
<mask id="mask67_507_77710" style="mask-type:luminance" maskUnits="userSpaceOnUse" x="4" y="-2" width="10" height="15">
<path d="M9.17538 12.6848L11.209 6.47999L13.1841 0.282935L8.87639 -1.77837L6.65873 4.98838L4.4408 11.7553L9.17538 12.6848Z" fill="white"/>
</mask>
<g mask="url(#mask67_507_77710)">
<path d="M14.023 1.1615L2.19385 9.70972L2.25506 9.79443L14.0842 1.24622L14.023 1.1615Z" fill="#FF8608"/>
</g>
<mask id="mask68_507_77710" style="mask-type:luminance" maskUnits="userSpaceOnUse" x="4" y="-2" width="10" height="15">
<path d="M9.13715 12.7331L11.1736 6.52868L13.1513 0.332036L8.8442 -1.73122L6.62356 5.03507L4.40264 11.8015L9.13715 12.7331Z" fill="white"/>
</mask>
<g mask="url(#mask68_507_77710)">
<path d="M14.0894 1.24401L2.25586 9.78784L2.31704 9.87258L14.1506 1.32875L14.0894 1.24401Z" fill="#FF8508"/>
</g>
<mask id="mask69_507_77710" style="mask-type:luminance" maskUnits="userSpaceOnUse" x="4" y="-2" width="10" height="15">
<path d="M9.09872 12.7871L11.1324 6.58228L13.1074 0.385229L8.79973 -1.67608L6.58207 5.09068L4.36414 11.8576L9.09872 12.7871Z" fill="white"/>
</mask>
<g mask="url(#mask69_507_77710)">
<path d="M14.1446 1.32947L2.31543 9.87769L2.37665 9.9624L14.2058 1.41419L14.1446 1.32947Z" fill="#FF8408"/>
</g>
<mask id="mask70_507_77710" style="mask-type:luminance" maskUnits="userSpaceOnUse" x="4" y="-2" width="10" height="15">
<path d="M9.06026 12.8365L11.0948 6.6318L13.0708 0.43488L8.76328 -1.62708L6.54463 5.13952L4.3257 11.9063L9.06026 12.8365Z" fill="white"/>
</mask>
<g mask="url(#mask70_507_77710)">
<path d="M14.2071 1.41223L2.37646 9.95898L2.43767 10.0437L14.2683 1.49695L14.2071 1.41223Z" fill="#FF8308"/>
</g>
<mask id="mask71_507_77710" style="mask-type:luminance" maskUnits="userSpaceOnUse" x="4" y="-2" width="10" height="15">
<path d="M9.02303 12.8918L11.0567 6.68702L13.0317 0.489966L8.72405 -1.57134L6.50639 5.19541L4.28846 11.9624L9.02303 12.8918Z" fill="white"/>
</mask>
<g mask="url(#mask71_507_77710)">
<path d="M14.2676 1.49988L2.43848 10.0481L2.49969 10.1328L14.3288 1.5846L14.2676 1.49988Z" fill="#FF8208"/>
</g>
<mask id="mask72_507_77710" style="mask-type:luminance" maskUnits="userSpaceOnUse" x="4" y="-2" width="9" height="15">
<path d="M8.9836 12.9405L11.0182 6.7358L12.9941 0.538884L8.68662 -1.52307L6.46797 5.24353L4.24904 12.0103L8.9836 12.9405Z" fill="white"/>
</mask>
<g mask="url(#mask72_507_77710)">
<path d="M14.3296 1.58166L2.49902 10.1284L2.56023 10.2131L14.3908 1.66639L14.3296 1.58166Z" fill="#FF8008"/>
</g>
<mask id="mask73_507_77710" style="mask-type:luminance" maskUnits="userSpaceOnUse" x="4" y="-2" width="9" height="15">
<path d="M8.94758 12.9957L10.9831 6.79117L12.9599 0.594395L8.65262 -1.46821L6.43297 5.29823L4.21305 12.0649L8.94758 12.9957Z" fill="white"/>
</mask>
<g mask="url(#mask73_507_77710)">
<path d="M14.3941 1.67077L2.56201 10.2161L2.62321 10.3008L14.4553 1.7555L14.3941 1.67077Z" fill="#FF7F08"/>
</g>
<mask id="mask74_507_77710" style="mask-type:luminance" maskUnits="userSpaceOnUse" x="4" y="-2" width="9" height="16">
<path d="M8.90791 13.0445L10.9425 6.8398L12.9184 0.642888L8.61094 -1.41907L6.39229 5.34753L4.17336 12.1143L8.90791 13.0445Z" fill="white"/>
</mask>
<g mask="url(#mask74_507_77710)">
<path d="M14.4522 1.75134L2.62158 10.2981L2.68279 10.3828L14.5134 1.83606L14.4522 1.75134Z" fill="#FF7E08"/>
</g>
<mask id="mask75_507_77710" style="mask-type:luminance" maskUnits="userSpaceOnUse" x="4" y="-2" width="9" height="16">
<path d="M8.87069 13.0996L10.9044 6.89478L12.8794 0.697729L8.5717 -1.36358L6.35405 5.40318L4.13611 12.1701L8.87069 13.0996Z" fill="white"/>
</mask>
<g mask="url(#mask75_507_77710)">
<path d="M14.5127 1.83875L2.68359 10.387L2.74481 10.4717L14.5739 1.92346L14.5127 1.83875Z" fill="#FF7D08"/>
</g>
<mask id="mask76_507_77710" style="mask-type:luminance" maskUnits="userSpaceOnUse" x="4" y="-2" width="9" height="16">
<path d="M8.83174 13.1482L10.8663 6.94356L12.8422 0.746648L8.53477 -1.31531L6.31612 5.45129L4.09719 12.2181L8.83174 13.1482Z" fill="white"/>
</mask>
<g mask="url(#mask76_507_77710)">
<path d="M14.5747 1.92078L2.74414 10.4675L2.80535 10.5523L14.6359 2.0055L14.5747 1.92078Z" fill="#FF7C08"/>
</g>
<mask id="mask77_507_77710" style="mask-type:luminance" maskUnits="userSpaceOnUse" x="4" y="-2" width="9" height="16">
<path d="M8.79452 13.2033L10.8282 6.99854L12.8032 0.801489L8.49553 -1.25982L6.27787 5.50694L4.05994 12.2739L8.79452 13.2033Z" fill="white"/>
</mask>
<g mask="url(#mask77_507_77710)">
<path d="M14.6353 2.00867L2.80615 10.5569L2.86737 10.6416L14.6965 2.09338L14.6353 2.00867Z" fill="#FF7B08"/>
</g>
<mask id="mask78_507_77710" style="mask-type:luminance" maskUnits="userSpaceOnUse" x="4" y="-2" width="9" height="16">
<path d="M8.75678 13.2521L10.7932 7.04772L12.7709 0.851079L8.46383 -1.21217L6.24319 5.55411L4.02227 12.3206L8.75678 13.2521Z" fill="white"/>
</mask>
<g mask="url(#mask78_507_77710)">
<path d="M14.7017 2.09166L2.86816 10.6355L2.92935 10.7202L14.7629 2.17641L14.7017 2.09166Z" fill="#FF7A08"/>
</g>
<mask id="mask79_507_77710" style="mask-type:luminance" maskUnits="userSpaceOnUse" x="3" y="-2" width="10" height="16">
<path d="M8.71834 13.3071L10.752 7.1023L12.727 0.905249L8.41936 -1.15606L6.2017 5.6107L3.98377 12.3776L8.71834 13.3071Z" fill="white"/>
</mask>
<g mask="url(#mask79_507_77710)">
<path d="M14.7578 2.17811L2.92871 10.7263L2.98993 10.811L14.8191 2.26282L14.7578 2.17811Z" fill="#FF7908"/>
</g>
<mask id="mask80_507_77710" style="mask-type:luminance" maskUnits="userSpaceOnUse" x="3" y="-2" width="10" height="16">
<path d="M8.67989 13.3567L10.7145 7.15206L12.6904 0.955144L8.38291 -1.10681L6.16426 5.65979L3.94533 12.4266L8.67989 13.3567Z" fill="white"/>
</mask>
<g mask="url(#mask80_507_77710)">
<path d="M14.8199 2.26086L2.98926 10.8076L3.05046 10.8923L14.8811 2.34559L14.8199 2.26086Z" fill="#FF7808"/>
</g>
<mask id="mask81_507_77710" style="mask-type:luminance" maskUnits="userSpaceOnUse" x="3" y="-2" width="10" height="16">
<path d="M8.64168 13.4101L10.6754 7.20533L12.6504 1.00828L8.3427 -1.05303L6.12504 5.71372L3.90711 12.4807L8.64168 13.4101Z" fill="white"/>
</mask>
<g mask="url(#mask81_507_77710)">
<path d="M14.8794 2.34656L3.05029 10.8948L3.11151 10.9795L14.9406 2.43128L14.8794 2.34656Z" fill="#FF7708"/>
</g>
<mask id="mask82_507_77710" style="mask-type:luminance" maskUnits="userSpaceOnUse" x="3" y="-2" width="10" height="16">
<path d="M8.60443 13.4596L10.6408 7.25524L12.6186 1.0586L8.31149 -1.00465L6.09085 5.76163L3.86993 12.5281L8.60443 13.4596Z" fill="white"/>
</mask>
<g mask="url(#mask82_507_77710)">
<path d="M14.9463 2.43078L3.11279 10.9746L3.17398 11.0594L15.0075 2.51552L14.9463 2.43078Z" fill="#FF7608"/>
</g>
<mask id="mask83_507_77710" style="mask-type:luminance" maskUnits="userSpaceOnUse" x="3" y="-1" width="10" height="15">
<path d="M8.566 13.5151L10.5997 7.31031L12.5747 1.11326L8.26702 -0.948051L6.04936 5.8187L3.83142 12.5857L8.566 13.5151Z" fill="white"/>
</mask>
<g mask="url(#mask83_507_77710)">
<path d="M15.0025 2.51722L3.17334 11.0654L3.23456 11.1501L15.0637 2.60193L15.0025 2.51722Z" fill="#FF7508"/>
</g>
<mask id="mask84_507_77710" style="mask-type:luminance" maskUnits="userSpaceOnUse" x="3" y="-1" width="10" height="15">
<path d="M8.52705 13.5635L10.5616 7.35885L12.5376 1.16193L8.23008 -0.900025L6.01143 5.86657L3.7925 12.6334L8.52705 13.5635Z" fill="white"/>
</mask>
<g mask="url(#mask84_507_77710)">
<path d="M15.065 2.59924L3.23438 11.146L3.29558 11.2307L15.1262 2.68396L15.065 2.59924Z" fill="#FF7408"/>
</g>
<mask id="mask85_507_77710" style="mask-type:luminance" maskUnits="userSpaceOnUse" x="3" y="-1" width="10" height="15">
<path d="M8.48983 13.6189L10.5235 7.41407L12.4985 1.21702L8.19084 -0.844291L5.97319 5.92246L3.75525 12.6894L8.48983 13.6189Z" fill="white"/>
</mask>
<g mask="url(#mask85_507_77710)">
<path d="M15.125 2.6869L3.2959 11.2351L3.35711 11.3198L15.1863 2.77161L15.125 2.6869Z" fill="#FF7308"/>
</g>
<mask id="mask86_507_77710" style="mask-type:luminance" maskUnits="userSpaceOnUse" x="3" y="-1" width="10" height="15">
<path d="M8.45137 13.6673L10.486 7.46261L12.4619 1.26569L8.1544 -0.796265L5.93575 5.97033L3.71682 12.7371L8.45137 13.6673Z" fill="white"/>
</mask>
<g mask="url(#mask86_507_77710)">
<path d="M15.187 2.76868L3.35645 11.3154L3.41765 11.4002L15.2482 2.8534L15.187 2.76868Z" fill="#FF7208"/>
</g>
<mask id="mask87_507_77710" style="mask-type:luminance" maskUnits="userSpaceOnUse" x="1" y="0" width="15" height="12">
<path d="M4.75847 11.9242L10.0412 8.08612L15.2718 4.22L12.9876 0.026123L7.22663 4.21188L1.46533 8.39765L4.75847 11.9242Z" fill="white"/>
</mask>
<g mask="url(#mask87_507_77710)">
<path d="M15.2489 2.85522L15.2715 2.88634V2.9682L3.47968 11.4869L3.41846 11.402L15.2489 2.85522Z" fill="#FF7108"/>
</g>
<mask id="mask88_507_77710" style="mask-type:luminance" maskUnits="userSpaceOnUse" x="1" y="0" width="15" height="12">
<path d="M4.75847 11.9242L10.0412 8.08612L15.2718 4.22L12.9876 0.026123L7.22663 4.21188L1.46533 8.39765L4.75847 11.9242Z" fill="white"/>
</mask>
<g mask="url(#mask88_507_77710)">
<path d="M15.2718 3.09713L3.5412 11.5718L3.47998 11.4869L15.2718 2.96826V3.09713Z" fill="#FF7008"/>
</g>
<mask id="mask89_507_77710" style="mask-type:luminance" maskUnits="userSpaceOnUse" x="1" y="0" width="15" height="12">
<path d="M4.75847 11.9242L10.0412 8.08612L15.2718 4.22L12.9876 0.026123L7.22663 4.21188L1.46533 8.39765L4.75847 11.9242Z" fill="white"/>
</mask>
<g mask="url(#mask89_507_77710)">
<path d="M15.2716 3.22638L3.60224 11.6564L3.54102 11.5719L15.2716 3.09717V3.22638Z" fill="#FF6F08"/>
</g>
<mask id="mask90_507_77710" style="mask-type:luminance" maskUnits="userSpaceOnUse" x="1" y="0" width="15" height="12">
<path d="M4.75847 11.9242L10.0412 8.08612L15.2718 4.22L12.9876 0.026123L7.22663 4.21188L1.46533 8.39765L4.75847 11.9242Z" fill="white"/>
</mask>
<g mask="url(#mask90_507_77710)">
<path d="M15.2714 3.35543L3.66361 11.7415L3.60205 11.6566L15.2714 3.22656V3.35543Z" fill="#FF6E08"/>
</g>
<mask id="mask91_507_77710" style="mask-type:luminance" maskUnits="userSpaceOnUse" x="1" y="0" width="15" height="12">
<path d="M4.75847 11.9242L10.0412 8.08612L15.2718 4.22L12.9876 0.026123L7.22663 4.21188L1.46533 8.39765L4.75847 11.9242Z" fill="white"/>
</mask>
<g mask="url(#mask91_507_77710)">
<path d="M15.2719 3.48443L3.72529 11.8262L3.66406 11.7413L15.2719 3.35522V3.48443Z" fill="#FF6D08"/>
</g>
<mask id="mask92_507_77710" style="mask-type:luminance" maskUnits="userSpaceOnUse" x="1" y="0" width="15" height="12">
<path d="M4.75847 11.9242L10.0412 8.08612L15.2718 4.22L12.9876 0.026123L7.22663 4.21188L1.46533 8.39765L4.75847 11.9242Z" fill="white"/>
</mask>
<g mask="url(#mask92_507_77710)">
<path d="M15.2717 3.61349L3.78632 11.9109L3.7251 11.8264L15.2717 3.48462V3.61349Z" fill="#FF6C08"/>
</g>
<mask id="mask93_507_77710" style="mask-type:luminance" maskUnits="userSpaceOnUse" x="1" y="0" width="15" height="12">
<path d="M4.75847 11.9242L10.0412 8.08612L15.2718 4.22L12.9876 0.026123L7.22663 4.21188L1.46533 8.39765L4.75847 11.9242Z" fill="white"/>
</mask>
<g mask="url(#mask93_507_77710)">
<path d="M15.2715 3.74215L3.94646 11.9239H3.7956L3.78613 11.9107L15.2715 3.61328V3.74215Z" fill="#FF6B08"/>
</g>
<mask id="mask94_507_77710" style="mask-type:luminance" maskUnits="userSpaceOnUse" x="1" y="0" width="15" height="12">
<path d="M4.75847 11.9242L10.0412 8.08612L15.2718 4.22L12.9876 0.026123L7.22663 4.21188L1.46533 8.39765L4.75847 11.9242Z" fill="white"/>
</mask>
<g mask="url(#mask94_507_77710)">
<path d="M15.2714 3.8714L4.12488 11.924H3.94629L15.2714 3.74219V3.8714Z" fill="#FF6A08"/>
</g>
<mask id="mask95_507_77710" style="mask-type:luminance" maskUnits="userSpaceOnUse" x="1" y="0" width="15" height="12">
<path d="M4.75847 11.9242L10.0412 8.08612L15.2718 4.22L12.9876 0.026123L7.22663 4.21188L1.46533 8.39765L4.75847 11.9242Z" fill="white"/>
</mask>
<g mask="url(#mask95_507_77710)">
<path d="M15.2715 4.00045L4.30359 11.9241H4.125L15.2715 3.87158V4.00045Z" fill="#FF6908"/>
</g>
<mask id="mask96_507_77710" style="mask-type:luminance" maskUnits="userSpaceOnUse" x="1" y="0" width="15" height="12">
<path d="M4.75847 11.9242L10.0412 8.08612L15.2718 4.22L12.9876 0.026123L7.22663 4.21188L1.46533 8.39765L4.75847 11.9242Z" fill="white"/>
</mask>
<g mask="url(#mask96_507_77710)">
<path d="M15.2721 4.12945L4.48279 11.9239H4.3042L15.2721 4.00024V4.12945Z" fill="#FF6808"/>
</g>
<mask id="mask97_507_77710" style="mask-type:luminance" maskUnits="userSpaceOnUse" x="1" y="0" width="15" height="12">
<path d="M4.75847 11.9242L10.0412 8.08612L15.2718 4.22L12.9876 0.026123L7.22663 4.21188L1.46533 8.39765L4.75847 11.9242Z" fill="white"/>
</mask>
<g mask="url(#mask97_507_77710)">
<path d="M15.2717 4.25851L4.66101 11.9241H4.48242L15.2717 4.12964V4.25851Z" fill="#FF6708"/>
</g>
<mask id="mask98_507_77710" style="mask-type:luminance" maskUnits="userSpaceOnUse" x="1" y="0" width="15" height="12">
<path d="M4.75847 11.9242L10.0412 8.08612L15.2718 4.22L12.9876 0.026123L7.22663 4.21188L1.46533 8.39765L4.75847 11.9242Z" fill="white"/>
</mask>
<g mask="url(#mask98_507_77710)">
<path d="M15.2718 4.38751L4.83973 11.9239H4.66113L15.2718 4.2583V4.38751Z" fill="#FF6608"/>
</g>
<mask id="mask99_507_77710" style="mask-type:luminance" maskUnits="userSpaceOnUse" x="1" y="0" width="15" height="12">
<path d="M4.75847 11.9242L10.0412 8.08612L15.2718 4.22L12.9876 0.026123L7.22663 4.21188L1.46533 8.39765L4.75847 11.9242Z" fill="white"/>
</mask>
<g mask="url(#mask99_507_77710)">
<path d="M15.2719 4.51657L5.01844 11.9241H4.83984L15.2719 4.3877V4.51657Z" fill="#FF6408"/>
</g>
<mask id="mask100_507_77710" style="mask-type:luminance" maskUnits="userSpaceOnUse" x="1" y="0" width="15" height="12">
<path d="M4.75847 11.9242L10.0412 8.08612L15.2718 4.22L12.9876 0.026123L7.22663 4.21188L1.46533 8.39765L4.75847 11.9242Z" fill="white"/>
</mask>
<g mask="url(#mask100_507_77710)">
<path d="M15.2716 4.64557L5.19666 11.9239H5.01807L15.2716 4.51636V4.64557Z" fill="#FF6308"/>
</g>
<mask id="mask101_507_77710" style="mask-type:luminance" maskUnits="userSpaceOnUse" x="1" y="0" width="15" height="12">
<path d="M4.75847 11.9242L10.0412 8.08612L15.2718 4.22L12.9876 0.026123L7.22663 4.21188L1.46533 8.39765L4.75847 11.9242Z" fill="white"/>
</mask>
<g mask="url(#mask101_507_77710)">
<path d="M15.2717 4.77438L5.37537 11.9238H5.19678L15.2717 4.64551V4.77438Z" fill="#FF6208"/>
</g>
<mask id="mask102_507_77710" style="mask-type:luminance" maskUnits="userSpaceOnUse" x="1" y="0" width="15" height="12">
<path d="M4.75847 11.9242L10.0412 8.08612L15.2718 4.22L12.9876 0.026123L7.22663 4.21188L1.46533 8.39765L4.75847 11.9242Z" fill="white"/>
</mask>
<g mask="url(#mask102_507_77710)">
<path d="M15.2718 4.90387L5.55408 11.9241H5.37549L15.2718 4.77466V4.90387Z" fill="#FF6108"/>
</g>
<mask id="mask103_507_77710" style="mask-type:luminance" maskUnits="userSpaceOnUse" x="1" y="0" width="15" height="12">
<path d="M4.75847 11.9242L10.0412 8.08612L15.2718 4.22L12.9876 0.026123L7.22663 4.21188L1.46533 8.39765L4.75847 11.9242Z" fill="white"/>
</mask>
<g mask="url(#mask103_507_77710)">
<path d="M15.2719 5.03244L5.73279 11.9238H5.5542L15.2719 4.90356V5.03244Z" fill="#FF6008"/>
</g>
<mask id="mask104_507_77710" style="mask-type:luminance" maskUnits="userSpaceOnUse" x="1" y="0" width="15" height="12">
<path d="M4.75847 11.9242L10.0412 8.08612L15.2718 4.22L12.9876 0.026123L7.22663 4.21188L1.46533 8.39765L4.75847 11.9242Z" fill="white"/>
</mask>
<g mask="url(#mask104_507_77710)">
<path d="M15.2716 5.16192L5.91101 11.9241H5.73242L15.2716 5.03271V5.16192Z" fill="#FF5F08"/>
</g>
<mask id="mask105_507_77710" style="mask-type:luminance" maskUnits="userSpaceOnUse" x="1" y="0" width="15" height="12">
<path d="M4.75847 11.9242L10.0412 8.08612L15.2718 4.22L12.9876 0.026123L7.22663 4.21188L1.46533 8.39765L4.75847 11.9242Z" fill="white"/>
</mask>
<g mask="url(#mask105_507_77710)">
<path d="M15.2717 5.29073L6.08973 11.924H5.91113L15.2717 5.16187V5.29073Z" fill="#FF5E08"/>
</g>
<mask id="mask106_507_77710" style="mask-type:luminance" maskUnits="userSpaceOnUse" x="1" y="0" width="15" height="12">
<path d="M4.75847 11.9242L10.0412 8.08612L15.2718 4.22L12.9876 0.026123L7.22663 4.21188L1.46533 8.39765L4.75847 11.9242Z" fill="white"/>
</mask>
<g mask="url(#mask106_507_77710)">
<path d="M15.2718 5.41998L6.26844 11.9241H6.08984L15.2718 5.29077V5.41998Z" fill="#FF5D08"/>
</g>
<mask id="mask107_507_77710" style="mask-type:luminance" maskUnits="userSpaceOnUse" x="1" y="0" width="15" height="12">
<path d="M4.75847 11.9242L10.0412 8.08612L15.2718 4.22L12.9876 0.026123L7.22663 4.21188L1.46533 8.39765L4.75847 11.9242Z" fill="white"/>
</mask>
<g mask="url(#mask107_507_77710)">
<path d="M15.2719 5.54879L6.44715 11.924H6.26855L15.2719 5.41992V5.54879Z" fill="#FF5C08"/>
</g>
<mask id="mask108_507_77710" style="mask-type:luminance" maskUnits="userSpaceOnUse" x="1" y="0" width="15" height="12">
<path d="M4.75847 11.9242L10.0412 8.08612L15.2718 4.22L12.9876 0.026123L7.22663 4.21188L1.46533 8.39765L4.75847 11.9242Z" fill="white"/>
</mask>
<g mask="url(#mask108_507_77710)">
<path d="M15.2715 5.6777L6.62537 11.924H6.44678L15.2715 5.54883V5.6777Z" fill="#FF5B08"/>
</g>
<mask id="mask109_507_77710" style="mask-type:luminance" maskUnits="userSpaceOnUse" x="1" y="0" width="15" height="12">
<path d="M4.75847 11.9242L10.0412 8.08612L15.2718 4.22L12.9876 0.026123L7.22663 4.21188L1.46533 8.39765L4.75847 11.9242Z" fill="white"/>
</mask>
<g mask="url(#mask109_507_77710)">
<path d="M15.2717 5.80694L6.80408 11.9241H6.62549L15.2717 5.67773V5.80694Z" fill="#FF5A08"/>
</g>
<path d="M4.75847 11.9242L10.0412 8.08612L15.2718 4.22L12.9876 0.026123L7.22663 4.21188L1.46533 8.39765L4.75847 11.9242Z" fill="#FF5A08"/>
<path d="M15.271 4.22195L20.5537 8.06034L25.8367 11.8984L29.1298 8.37152L23.3685 4.18576L17.6072 0L15.271 4.22195Z" fill="#FF5A08"/>
<g clip-path="url(#clip0_507_77710)">
<mask id="mask110_507_77710" style="mask-type:luminance" maskUnits="userSpaceOnUse" x="21" y="11" width="10" height="16">
<path d="M25.8357 11.8987L23.8178 18.1092L21.7998 24.3193L26.1716 26.3616L28.3722 19.589L30.5728 12.8163L25.8357 11.8987Z" fill="white"/>
</mask>
<g mask="url(#mask110_507_77710)">
<path d="M27.1763 26.3615L30.5729 17.9944V18.246L27.2784 26.3615H27.1763Z" fill="#E7600D"/>
</g>
<mask id="mask111_507_77710" style="mask-type:luminance" maskUnits="userSpaceOnUse" x="21" y="11" width="10" height="16">
<path d="M25.8357 11.8987L23.8178 18.1092L21.7998 24.3193L26.1716 26.3616L28.3722 19.589L30.5728 12.8163L25.8357 11.8987Z" fill="white"/>
</mask>
<g mask="url(#mask111_507_77710)">
<path d="M27.0742 26.3615L30.573 17.7424V17.9944L27.1764 26.3615H27.0742Z" fill="#E65F0D"/>
</g>
<mask id="mask112_507_77710" style="mask-type:luminance" maskUnits="userSpaceOnUse" x="21" y="11" width="10" height="16">
<path d="M25.8357 11.8987L23.8178 18.1092L21.7998 24.3193L26.1716 26.3616L28.3722 19.589L30.5728 12.8163L25.8357 11.8987Z" fill="white"/>
</mask>
<g mask="url(#mask112_507_77710)">
<path d="M26.9717 26.3617L30.5726 17.491V17.7426L27.0738 26.3617H26.9717Z" fill="#E55E0D"/>
</g>
<mask id="mask113_507_77710" style="mask-type:luminance" maskUnits="userSpaceOnUse" x="21" y="11" width="10" height="16">
<path d="M25.8357 11.8987L23.8178 18.1092L21.7998 24.3193L26.1716 26.3616L28.3722 19.589L30.5728 12.8163L25.8357 11.8987Z" fill="white"/>
</mask>
<g mask="url(#mask113_507_77710)">
<path d="M26.8696 26.3617L30.5731 17.2393V17.4909L26.9721 26.3617H26.8696Z" fill="#E55D0C"/>
</g>
<mask id="mask114_507_77710" style="mask-type:luminance" maskUnits="userSpaceOnUse" x="21" y="11" width="10" height="16">
<path d="M25.8357 11.8987L23.8178 18.1092L21.7998 24.3193L26.1716 26.3616L28.3722 19.589L30.5728 12.8163L25.8357 11.8987Z" fill="white"/>
</mask>
<g mask="url(#mask114_507_77710)">
<path d="M26.7671 26.3617L30.5727 16.9873V17.2393L26.8692 26.3617H26.7671Z" fill="#E45C0C"/>
</g>
<mask id="mask115_507_77710" style="mask-type:luminance" maskUnits="userSpaceOnUse" x="21" y="11" width="10" height="16">
<path d="M25.8357 11.8987L23.8178 18.1092L21.7998 24.3193L26.1716 26.3616L28.3722 19.589L30.5728 12.8163L25.8357 11.8987Z" fill="white"/>
</mask>
<g mask="url(#mask115_507_77710)">
<path d="M26.665 26.3617L30.5728 16.7356V16.9872L26.7672 26.3617H26.665Z" fill="#E35B0C"/>
</g>
<mask id="mask116_507_77710" style="mask-type:luminance" maskUnits="userSpaceOnUse" x="21" y="11" width="10" height="16">
<path d="M25.8357 11.8987L23.8178 18.1092L21.7998 24.3193L26.1716 26.3616L28.3722 19.589L30.5728 12.8163L25.8357 11.8987Z" fill="white"/>
</mask>
<g mask="url(#mask116_507_77710)">
<path d="M26.563 26.3616L30.5729 16.4839V16.7355L26.6651 26.3616H26.563Z" fill="#E25A0C"/>
</g>
<mask id="mask117_507_77710" style="mask-type:luminance" maskUnits="userSpaceOnUse" x="21" y="11" width="10" height="16">
<path d="M25.8357 11.8987L23.8178 18.1092L21.7998 24.3193L26.1716 26.3616L28.3722 19.589L30.5728 12.8163L25.8357 11.8987Z" fill="white"/>
</mask>
<g mask="url(#mask117_507_77710)">
<path d="M26.4609 26.3616L30.573 16.2322V16.4838L26.5631 26.3616H26.4609Z" fill="#E1590C"/>
</g>
<mask id="mask118_507_77710" style="mask-type:luminance" maskUnits="userSpaceOnUse" x="21" y="11" width="10" height="16">
<path d="M25.8357 11.8987L23.8178 18.1092L21.7998 24.3193L26.1716 26.3616L28.3722 19.589L30.5728 12.8163L25.8357 11.8987Z" fill="white"/>
</mask>
<g mask="url(#mask118_507_77710)">
<path d="M26.3589 26.3616L30.5731 15.9802V16.2322L26.461 26.3616H26.3589Z" fill="#E0570C"/>
</g>
<mask id="mask119_507_77710" style="mask-type:luminance" maskUnits="userSpaceOnUse" x="21" y="11" width="10" height="16">
<path d="M25.8357 11.8987L23.8178 18.1092L21.7998 24.3193L26.1716 26.3616L28.3722 19.589L30.5728 12.8163L25.8357 11.8987Z" fill="white"/>
</mask>
<g mask="url(#mask119_507_77710)">
<path d="M26.2563 26.3615L30.5727 15.7285V15.9802L26.3585 26.3615H26.2563Z" fill="#E0560B"/>
</g>
<mask id="mask120_507_77710" style="mask-type:luminance" maskUnits="userSpaceOnUse" x="21" y="11" width="10" height="16">
<path d="M25.8357 11.8987L23.8178 18.1092L21.7998 24.3193L26.1716 26.3616L28.3722 19.589L30.5728 12.8163L25.8357 11.8987Z" fill="white"/>
</mask>
<g mask="url(#mask120_507_77710)">
<path d="M26.1538 26.3617L30.5726 15.4771V15.7287L26.2563 26.3617H26.1538Z" fill="#DF550B"/>
</g>
<mask id="mask121_507_77710" style="mask-type:luminance" maskUnits="userSpaceOnUse" x="21" y="11" width="10" height="16">
<path d="M25.8357 11.8987L23.8178 18.1092L21.7998 24.3193L26.1716 26.3616L28.3722 19.589L30.5728 12.8163L25.8357 11.8987Z" fill="white"/>
</mask>
<g mask="url(#mask121_507_77710)">
<path d="M26.0518 26.3617L30.5727 15.2253V15.477L26.1539 26.3617H26.0518Z" fill="#DE540B"/>
</g>
<mask id="mask122_507_77710" style="mask-type:luminance" maskUnits="userSpaceOnUse" x="21" y="11" width="10" height="16">
<path d="M25.8357 11.8987L23.8178 18.1092L21.7998 24.3193L26.1716 26.3616L28.3722 19.589L30.5728 12.8163L25.8357 11.8987Z" fill="white"/>
</mask>
<g mask="url(#mask122_507_77710)">
<path d="M25.9497 26.3617L30.5728 14.9734V15.2254L26.0519 26.3617H25.9497Z" fill="#DD530B"/>
</g>
<mask id="mask123_507_77710" style="mask-type:luminance" maskUnits="userSpaceOnUse" x="21" y="11" width="10" height="16">
<path d="M25.8357 11.8987L23.8178 18.1092L21.7998 24.3193L26.1716 26.3616L28.3722 19.589L30.5728 12.8163L25.8357 11.8987Z" fill="white"/>
</mask>
<g mask="url(#mask123_507_77710)">
<path d="M25.8477 26.3616L30.5729 14.7217V14.9733L25.9498 26.3616H25.8477Z" fill="#DC520B"/>
</g>
<mask id="mask124_507_77710" style="mask-type:luminance" maskUnits="userSpaceOnUse" x="21" y="11" width="10" height="16">
<path d="M25.8357 11.8987L23.8178 18.1092L21.7998 24.3193L26.1716 26.3616L28.3722 19.589L30.5728 12.8163L25.8357 11.8987Z" fill="white"/>
</mask>
<g mask="url(#mask124_507_77710)">
<path d="M25.7456 26.3616L30.573 14.47V14.7216L25.8478 26.3616H25.7456Z" fill="#DB510B"/>
</g>
<mask id="mask125_507_77710" style="mask-type:luminance" maskUnits="userSpaceOnUse" x="21" y="11" width="10" height="16">
<path d="M25.8357 11.8987L23.8178 18.1092L21.7998 24.3193L26.1716 26.3616L28.3722 19.589L30.5728 12.8163L25.8357 11.8987Z" fill="white"/>
</mask>
<g mask="url(#mask125_507_77710)">
<path d="M25.7033 26.3615L25.6519 26.3406L30.573 14.2183V14.4699L25.7455 26.3615H25.7033Z" fill="#DB500A"/>
</g>
<mask id="mask126_507_77710" style="mask-type:luminance" maskUnits="userSpaceOnUse" x="21" y="11" width="10" height="16">
<path d="M25.8357 11.8987L23.8178 18.1092L21.7998 24.3193L26.1716 26.3616L28.3722 19.589L30.5728 12.8163L25.8357 11.8987Z" fill="white"/>
</mask>
<g mask="url(#mask126_507_77710)">
<path d="M25.6519 26.3406L25.564 26.3051L30.573 13.9663V14.2183L25.6519 26.3406Z" fill="#DA4F0A"/>
</g>
<mask id="mask127_507_77710" style="mask-type:luminance" maskUnits="userSpaceOnUse" x="21" y="11" width="10" height="16">
<path d="M25.8357 11.8987L23.8178 18.1092L21.7998 24.3193L26.1716 26.3616L28.3722 19.589L30.5728 12.8163L25.8357 11.8987Z" fill="white"/>
</mask>
<g mask="url(#mask127_507_77710)">
<path d="M25.5637 26.305L25.4761 26.2692L30.5727 13.7146V13.9663L25.5637 26.305Z" fill="#D94E0A"/>
</g>
<mask id="mask128_507_77710" style="mask-type:luminance" maskUnits="userSpaceOnUse" x="21" y="11" width="10" height="16">
<path d="M25.8357 11.8987L23.8178 18.1092L21.7998 24.3193L26.1716 26.3616L28.3722 19.589L30.5728 12.8163L25.8357 11.8987Z" fill="white"/>
</mask>
<g mask="url(#mask128_507_77710)">
<path d="M25.4763 26.2694L25.3887 26.2338L30.5729 13.4631V13.7148L25.4763 26.2694Z" fill="#D84D0A"/>
</g>
<mask id="mask129_507_77710" style="mask-type:luminance" maskUnits="userSpaceOnUse" x="21" y="11" width="10" height="16">
<path d="M25.8357 11.8987L23.8178 18.1092L21.7998 24.3193L26.1716 26.3616L28.3722 19.589L30.5728 12.8163L25.8357 11.8987Z" fill="white"/>
</mask>
<g mask="url(#mask129_507_77710)">
<path d="M25.3887 26.2339L25.3008 26.1984L30.573 13.2112V13.4632L25.3887 26.2339Z" fill="#D74C0A"/>
</g>
<mask id="mask130_507_77710" style="mask-type:luminance" maskUnits="userSpaceOnUse" x="21" y="11" width="10" height="16">
<path d="M25.8357 11.8987L23.8178 18.1092L21.7998 24.3193L26.1716 26.3616L28.3722 19.589L30.5728 12.8163L25.8357 11.8987Z" fill="white"/>
</mask>
<g mask="url(#mask130_507_77710)">
<path d="M25.3005 26.1983L25.2129 26.1628L30.5727 12.9595V13.2111L25.3005 26.1983Z" fill="#D64B09"/>
</g>
<mask id="mask131_507_77710" style="mask-type:luminance" maskUnits="userSpaceOnUse" x="21" y="11" width="10" height="16">
<path d="M25.8357 11.8987L23.8178 18.1092L21.7998 24.3193L26.1716 26.3616L28.3722 19.589L30.5728 12.8163L25.8357 11.8987Z" fill="white"/>
</mask>
<g mask="url(#mask131_507_77710)">
<path d="M25.2131 26.1627L25.1255 26.1269L30.5729 12.7078V12.9594L25.2131 26.1627Z" fill="#D54A09"/>
</g>
<mask id="mask132_507_77710" style="mask-type:luminance" maskUnits="userSpaceOnUse" x="21" y="11" width="10" height="16">
<path d="M25.8357 11.8987L23.8178 18.1092L21.7998 24.3193L26.1716 26.3616L28.3722 19.589L30.5728 12.8163L25.8357 11.8987Z" fill="white"/>
</mask>
<g mask="url(#mask132_507_77710)">
<path d="M25.1255 26.1268L25.0376 26.0913L30.5134 12.6018L30.573 12.6262V12.7077L25.1255 26.1268Z" fill="#D54909"/>
</g>
<mask id="mask133_507_77710" style="mask-type:luminance" maskUnits="userSpaceOnUse" x="20" y="14" width="14" height="13">
<path d="M20.1322 18.2877L25.1278 22.4933L30.1232 26.6987L33.6599 23.416L28.212 18.8297L22.7641 14.2434L20.1322 18.2877Z" fill="white"/>
</mask>
<g mask="url(#mask133_507_77710)">
<path d="M30.4236 12.563L24.9482 26.0527L25.036 26.0884L30.5114 12.5986L30.4236 12.563Z" fill="#D44809"/>
</g>
<mask id="mask134_507_77710" style="mask-type:luminance" maskUnits="userSpaceOnUse" x="20" y="14" width="14" height="13">
<path d="M20.1107 18.1841L25.1064 22.3897L30.1017 26.5952L33.6384 23.3124L28.1905 18.7262L22.7426 14.1399L20.1107 18.1841Z" fill="white"/>
</mask>
<g mask="url(#mask134_507_77710)">
<path d="M30.3362 12.5273L24.8608 26.0171L24.9486 26.0527L30.424 12.563L30.3362 12.5273Z" fill="#D34709"/>
</g>
<mask id="mask135_507_77710" style="mask-type:luminance" maskUnits="userSpaceOnUse" x="20" y="14" width="14" height="13">
<path d="M20.0934 18.0847L25.0881 22.2913L30.0824 26.4979L33.6197 23.2159L28.173 18.6285L22.7262 14.0411L20.0934 18.0847Z" fill="white"/>
</mask>
<g mask="url(#mask135_507_77710)">
<path d="M30.2542 12.498L24.7759 25.9863L24.8636 26.022L30.3419 12.5337L30.2542 12.498Z" fill="#D24609"/>
</g>
<mask id="mask136_507_77710" style="mask-type:luminance" maskUnits="userSpaceOnUse" x="20" y="13" width="14" height="14">
<path d="M20.0677 17.9776L25.0634 22.1832L30.0588 26.3887L33.5954 23.1059L28.1475 18.5196L22.6996 13.9333L20.0677 17.9776Z" fill="white"/>
</mask>
<g mask="url(#mask136_507_77710)">
<path d="M30.1614 12.4565L24.686 25.9463L24.7738 25.9819L30.2492 12.4922L30.1614 12.4565Z" fill="#D14508"/>
</g>
<mask id="mask137_507_77710" style="mask-type:luminance" maskUnits="userSpaceOnUse" x="20" y="13" width="14" height="14">
<path d="M20.0453 17.8736L25.0409 22.0792L30.0363 26.2847L33.5729 23.0019L28.1251 18.4156L22.6772 13.8293L20.0453 17.8736Z" fill="white"/>
</mask>
<g mask="url(#mask137_507_77710)">
<path d="M30.073 12.4204L24.5977 25.9102L24.6854 25.9458L30.1608 12.456L30.073 12.4204Z" fill="#D04408"/>
</g>
<mask id="mask138_507_77710" style="mask-type:luminance" maskUnits="userSpaceOnUse" x="20" y="13" width="14" height="14">
<path d="M20.0238 17.7701L25.0195 21.9757L30.0148 26.1812L33.5515 22.8984L28.1036 18.3121L22.6557 13.7258L20.0238 17.7701Z" fill="white"/>
</mask>
<g mask="url(#mask138_507_77710)">
<path d="M29.9856 12.3845L24.5103 25.8743L24.598 25.9099L30.0734 12.4201L29.9856 12.3845Z" fill="#D04308"/>
</g>
<mask id="mask139_507_77710" style="mask-type:luminance" maskUnits="userSpaceOnUse" x="20" y="13" width="14" height="14">
<path d="M20.0018 17.6666L24.9975 21.8722L29.9928 26.0777L33.5295 22.7949L28.0816 18.2086L22.6337 13.6223L20.0018 17.6666Z" fill="white"/>
</mask>
<g mask="url(#mask139_507_77710)">
<path d="M29.8973 12.3491L24.4219 25.8389L24.5096 25.8745L29.985 12.3847L29.8973 12.3491Z" fill="#CF4208"/>
</g>
<mask id="mask140_507_77710" style="mask-type:luminance" maskUnits="userSpaceOnUse" x="19" y="13" width="15" height="13">
<path d="M19.9798 17.5628L24.9755 21.7684L29.9709 25.9739L33.5075 22.6911L28.0596 18.1048L22.6117 13.5185L19.9798 17.5628Z" fill="white"/>
</mask>
<g mask="url(#mask140_507_77710)">
<path d="M29.8094 12.3132L24.334 25.803L24.4217 25.8386L29.8971 12.3488L29.8094 12.3132Z" fill="#CE4108"/>
</g>
<mask id="mask141_507_77710" style="mask-type:luminance" maskUnits="userSpaceOnUse" x="19" y="13" width="15" height="13">
<path d="M19.9588 17.46L24.9545 21.6656L29.9499 25.8711L33.4865 22.5883L28.0386 18.002L22.5907 13.4158L19.9588 17.46Z" fill="white"/>
</mask>
<g mask="url(#mask141_507_77710)">
<path d="M29.7225 12.2786L24.2471 25.7683L24.3348 25.8039L29.8102 12.3142L29.7225 12.2786Z" fill="#CD4008"/>
</g>
<mask id="mask142_507_77710" style="mask-type:luminance" maskUnits="userSpaceOnUse" x="19" y="13" width="15" height="13">
<path d="M19.9369 17.356L24.9325 21.5616L29.9279 25.7671L33.4645 22.4843L28.0167 17.898L22.5688 13.3118L19.9369 17.356Z" fill="white"/>
</mask>
<g mask="url(#mask142_507_77710)">
<path d="M29.6346 12.2422L24.1592 25.7319L24.2469 25.7676L29.7223 12.2778L29.6346 12.2422Z" fill="#CC3F07"/>
</g>
<mask id="mask143_507_77710" style="mask-type:luminance" maskUnits="userSpaceOnUse" x="19" y="13" width="15" height="13">
<path d="M19.9149 17.2525L24.9106 21.4581L29.9059 25.6636L33.4426 22.3808L27.9947 17.7945L22.5468 13.2082L19.9149 17.2525Z" fill="white"/>
</mask>
<g mask="url(#mask143_507_77710)">
<path d="M29.5467 12.2065L24.0713 25.6963L24.159 25.7319L29.6344 12.2422L29.5467 12.2065Z" fill="#CB3E07"/>
</g>
<mask id="mask144_507_77710" style="mask-type:luminance" maskUnits="userSpaceOnUse" x="19" y="13" width="15" height="13">
<path d="M19.8934 17.149L24.8891 21.3546L29.8844 25.5601L33.4211 22.2773L27.9732 17.691L22.5253 13.1047L19.8934 17.149Z" fill="white"/>
</mask>
<g mask="url(#mask144_507_77710)">
<path d="M29.4593 12.1711L23.9839 25.6609L24.0716 25.6965L29.547 12.2068L29.4593 12.1711Z" fill="#CA3D07"/>
</g>
<mask id="mask145_507_77710" style="mask-type:luminance" maskUnits="userSpaceOnUse" x="19" y="13" width="15" height="13">
<path d="M19.8766 17.05L24.8713 21.2567L29.8656 25.4632L33.4029 22.1812L27.9562 17.5938L22.5094 13.0064L19.8766 17.05Z" fill="white"/>
</mask>
<g mask="url(#mask145_507_77710)">
<path d="M29.3772 12.1421L23.8989 25.6304L23.9867 25.666L29.465 12.1777L29.3772 12.1421Z" fill="#CA3B07"/>
</g>
<mask id="mask146_507_77710" style="mask-type:luminance" maskUnits="userSpaceOnUse" x="19" y="12" width="15" height="14">
<path d="M19.8499 16.942L24.8456 21.1476L29.841 25.353L33.3776 22.0702L27.9297 17.484L22.4819 12.8977L19.8499 16.942Z" fill="white"/>
</mask>
<g mask="url(#mask146_507_77710)">
<path d="M29.2835 12.0998L23.8081 25.5896L23.8959 25.6252L29.3713 12.1355L29.2835 12.0998Z" fill="#C93A07"/>
</g>
<mask id="mask147_507_77710" style="mask-type:luminance" maskUnits="userSpaceOnUse" x="19" y="12" width="15" height="14">
<path d="M19.828 16.8384L24.8237 21.044L29.819 25.2495L33.3557 21.9667L27.9078 17.3805L22.4599 12.7942L19.828 16.8384Z" fill="white"/>
</mask>
<g mask="url(#mask147_507_77710)">
<path d="M29.1956 12.0642L23.7202 25.554L23.808 25.5896L29.2834 12.0998L29.1956 12.0642Z" fill="#C83906"/>
</g>
<mask id="mask148_507_77710" style="mask-type:luminance" maskUnits="userSpaceOnUse" x="19" y="12" width="15" height="14">
<path d="M19.8065 16.7349L24.8022 20.9405L29.7975 25.146L33.3342 21.8632L27.8863 17.2769L22.4384 12.6907L19.8065 16.7349Z" fill="white"/>
</mask>
<g mask="url(#mask148_507_77710)">
<path d="M29.1082 12.0286L23.6328 25.5183L23.7206 25.5539L29.196 12.0642L29.1082 12.0286Z" fill="#C73806"/>
</g>
<mask id="mask149_507_77710" style="mask-type:luminance" maskUnits="userSpaceOnUse" x="19" y="12" width="15" height="14">
<path d="M19.7845 16.6314L24.7802 20.837L29.7756 25.0425L33.3122 21.7597L27.8643 17.1734L22.4164 12.5871L19.7845 16.6314Z" fill="white"/>
</mask>
<g mask="url(#mask149_507_77710)">
<path d="M29.0198 11.9929L23.5444 25.4827L23.6322 25.5183L29.1076 12.0285L29.0198 11.9929Z" fill="#C63706"/>
</g>
<mask id="mask150_507_77710" style="mask-type:luminance" maskUnits="userSpaceOnUse" x="19" y="12" width="15" height="13">
<path d="M19.763 16.5279L24.7587 20.7335L29.7541 24.939L33.2907 21.6562L27.8428 17.0699L22.3949 12.4836L19.763 16.5279Z" fill="white"/>
</mask>
<g mask="url(#mask150_507_77710)">
<path d="M28.9329 11.9573L23.4575 25.447L23.5453 25.4826L29.0207 11.9929L28.9329 11.9573Z" fill="#C53606"/>
</g>
<mask id="mask151_507_77710" style="mask-type:luminance" maskUnits="userSpaceOnUse" x="19" y="12" width="15" height="13">
<path d="M19.7411 16.4244L24.7367 20.63L29.7321 24.8355L33.2687 21.5527L27.8209 16.9664L22.373 12.3801L19.7411 16.4244Z" fill="white"/>
</mask>
<g mask="url(#mask151_507_77710)">
<path d="M28.8445 11.9219L23.3691 25.4116L23.4569 25.4472L28.9323 11.9575L28.8445 11.9219Z" fill="#C43506"/>
</g>
<mask id="mask152_507_77710" style="mask-type:luminance" maskUnits="userSpaceOnUse" x="21" y="11" width="10" height="16">
<path d="M25.8357 11.8987L23.8178 18.1092L21.7998 24.3193L26.1716 26.3616L28.3722 19.589L30.5728 12.8163L25.8357 11.8987Z" fill="white"/>
</mask>
<g mask="url(#mask152_507_77710)">
<path d="M23.3707 25.4145L23.2827 25.379L28.7552 11.8987H28.7809L28.8465 11.9254L23.3707 25.4145Z" fill="#C43406"/>
</g>
<mask id="mask153_507_77710" style="mask-type:luminance" maskUnits="userSpaceOnUse" x="21" y="11" width="10" height="16">
<path d="M25.8357 11.8987L23.8178 18.1092L21.7998 24.3193L26.1716 26.3616L28.3722 19.589L30.5728 12.8163L25.8357 11.8987Z" fill="white"/>
</mask>
<g mask="url(#mask153_507_77710)">
<path d="M23.2824 25.379L23.1948 25.3435L28.6527 11.8987H28.7549L23.2824 25.379Z" fill="#C33305"/>
</g>
<mask id="mask154_507_77710" style="mask-type:luminance" maskUnits="userSpaceOnUse" x="21" y="11" width="10" height="16">
<path d="M25.8357 11.8987L23.8178 18.1092L21.7998 24.3193L26.1716 26.3616L28.3722 19.589L30.5728 12.8163L25.8357 11.8987Z" fill="white"/>
</mask>
<g mask="url(#mask154_507_77710)">
<path d="M23.1949 25.3435L23.1069 25.3077L28.5506 11.8987H28.6528L23.1949 25.3435Z" fill="#C23205"/>
</g>
<mask id="mask155_507_77710" style="mask-type:luminance" maskUnits="userSpaceOnUse" x="21" y="11" width="10" height="16">
<path d="M25.8357 11.8987L23.8178 18.1092L21.7998 24.3193L26.1716 26.3616L28.3722 19.589L30.5728 12.8163L25.8357 11.8987Z" fill="white"/>
</mask>
<g mask="url(#mask155_507_77710)">
<path d="M23.1071 25.3077L23.0195 25.2721L28.4483 11.8987H28.5508L23.1071 25.3077Z" fill="#C13105"/>
</g>
</g>
<path d="M25.8357 11.8984L23.8178 18.1089L21.7998 24.3191L26.1716 26.3614L28.3722 19.5887L30.5728 12.8161L25.8357 11.8984Z" fill="#B21B0B"/>
<path d="M1.46527 8.39746L0 12.8416L4.75841 11.924L1.46527 8.39746Z" fill="#FF5A08"/>
<path d="M4.40137 26.3869L8.15046 29.1057L8.77282 24.345L4.40137 26.3869Z" fill="#FFA608"/>
<path d="M21.7998 24.3188L22.3927 29.1057L26.1716 26.3612L21.7998 24.3188Z" fill="#FF7610"/>
<path d="M12.9873 0.0260446L15.2708 4.22195L17.607 0L12.9873 0.0260446Z" fill="#FFA608"/>
<path d="M29.1294 8.37158L25.8353 11.8984H25.6104L30.5724 12.8161L29.1294 8.37158Z" fill="#FF7D12"/>
<path d="M23.6615 18.5897C21.8073 19.9051 19.2109 20.2383 16.9998 19.551C15.1645 18.9804 13.4844 17.876 12.3053 16.3583C11.1259 14.8406 10.467 12.9079 10.5647 10.9883C10.6446 9.42465 11.2067 7.95126 12.0324 6.61182L4.75879 11.8965L8.79471 24.3172H21.8546L23.6615 18.5897Z" fill="#FFB600"/>
<g opacity="0.42">
<path d="M6.08181 15.6548C9.78084 12.6732 13.834 10.4472 18.0539 8.24082C18.5569 7.97766 19.0609 7.71654 19.5645 7.45542L16.4554 5.19629C12.8737 8.42076 9.35161 11.513 5.68945 14.6458L6.08181 15.6548Z" fill="white"/>
<path d="M24.0908 17.386L25.8368 12.0127L22.0671 9.27393C17.1182 12.9699 12.3781 16.6534 7.69141 20.6697L8.56001 23.2745C13.6573 20.9487 18.7334 19.0248 24.0908 17.386Z" fill="white"/>
</g>
<path d="M4.7373 11.9238L8.7942 24.3167H21.8541L9.27552 23.6906L4.7373 11.9238Z" fill="white"/>
<path d="M21.854 24.3167L25.8375 12.0125L30.5729 12.8158L26.5126 12.6321L21.854 24.3167Z" fill="#B21B0B"/>
<path d="M8.79443 24.3169L21.1437 24.9521L22.3932 29.1057L21.8544 24.3169H8.79443Z" fill="#B21B0B"/>
<g opacity="0.3">
<path d="M8.7936 24.3189L6.77564 18.1084L4.72521 11.9473L4.01828 12.068C4.00949 12.3339 4.0697 12.6288 4.21582 13.0168C4.8003 14.571 4.95285 16.289 4.62881 17.9186C4.4607 18.7635 4.16204 19.5977 3.63472 20.2789C3.38103 20.607 3.06917 20.8962 2.71875 21.1187L4.42215 26.3608L8.7936 24.3189Z" fill="white"/>
</g>
<path d="M4.42236 26.3614L9.15506 24.1486L8.72143 23.2012L4.42236 26.3614Z" fill="white"/>
<path d="M8.23345 24.1895C8.23345 24.2494 8.1499 29.1059 8.1499 29.1059L8.89167 23.8303L8.23345 24.1895Z" fill="white"/>
<mask id="mask156_507_77710" style="mask-type:luminance" maskUnits="userSpaceOnUse" x="15" y="4" width="14" height="9">
<path d="M15.271 4.22168L25.8374 12.0124L28.8515 8.66924L25.8374 11.0241L15.271 4.22168Z" fill="white"/>
</mask>
<g mask="url(#mask156_507_77710)">
<path d="M15.4175 4.22168H15.271V12.0124H15.4175V4.22168Z" fill="#FF7D12"/>
</g>
<mask id="mask157_507_77710" style="mask-type:luminance" maskUnits="userSpaceOnUse" x="15" y="4" width="14" height="9">
<path d="M15.271 4.22168L25.8374 12.0124L28.8515 8.66924L25.8374 11.0241L15.271 4.22168Z" fill="white"/>
</mask>
<g mask="url(#mask157_507_77710)">
<path d="M15.5639 4.22168H15.4175V12.0124H15.5639V4.22168Z" fill="#FE7C12"/>
</g>
<mask id="mask158_507_77710" style="mask-type:luminance" maskUnits="userSpaceOnUse" x="15" y="4" width="14" height="9">
<path d="M15.271 4.22168L25.8374 12.0124L28.8515 8.66924L25.8374 11.0241L15.271 4.22168Z" fill="white"/>
</mask>
<g mask="url(#mask158_507_77710)">
<path d="M15.7104 4.22168H15.564V12.0124H15.7104V4.22168Z" fill="#FE7B12"/>
</g>
<mask id="mask159_507_77710" style="mask-type:luminance" maskUnits="userSpaceOnUse" x="15" y="4" width="14" height="9">
<path d="M15.271 4.22168L25.8374 12.0124L28.8515 8.66924L25.8374 11.0241L15.271 4.22168Z" fill="white"/>
</mask>
<g mask="url(#mask159_507_77710)">
<path d="M15.8569 4.22168H15.7104V12.0124H15.8569V4.22168Z" fill="#FD7A12"/>
</g>
<mask id="mask160_507_77710" style="mask-type:luminance" maskUnits="userSpaceOnUse" x="15" y="4" width="14" height="9">
<path d="M15.271 4.22168L25.8374 12.0124L28.8515 8.66924L25.8374 11.0241L15.271 4.22168Z" fill="white"/>
</mask>
<g mask="url(#mask160_507_77710)">
<path d="M16.0039 4.22168H15.8574V12.0124H16.0039V4.22168Z" fill="#FC7911"/>
</g>
<mask id="mask161_507_77710" style="mask-type:luminance" maskUnits="userSpaceOnUse" x="15" y="4" width="14" height="9">
<path d="M15.271 4.22168L25.8374 12.0124L28.8515 8.66924L25.8374 11.0241L15.271 4.22168Z" fill="white"/>
</mask>
<g mask="url(#mask161_507_77710)">
<path d="M16.1499 4.22168H16.0034V12.0124H16.1499V4.22168Z" fill="#FB7811"/>
</g>
<mask id="mask162_507_77710" style="mask-type:luminance" maskUnits="userSpaceOnUse" x="15" y="4" width="14" height="9">
<path d="M15.271 4.22168L25.8374 12.0124L28.8515 8.66924L25.8374 11.0241L15.271 4.22168Z" fill="white"/>
</mask>
<g mask="url(#mask162_507_77710)">
<path d="M16.2964 4.22168H16.1499V12.0124H16.2964V4.22168Z" fill="#FB7711"/>
</g>
<mask id="mask163_507_77710" style="mask-type:luminance" maskUnits="userSpaceOnUse" x="15" y="4" width="14" height="9">
<path d="M15.271 4.22168L25.8374 12.0124L28.8515 8.66924L25.8374 11.0241L15.271 4.22168Z" fill="white"/>
</mask>
<g mask="url(#mask163_507_77710)">
<path d="M16.4438 4.22168H16.2974V12.0124H16.4438V4.22168Z" fill="#FA7711"/>
</g>
<mask id="mask164_507_77710" style="mask-type:luminance" maskUnits="userSpaceOnUse" x="15" y="4" width="14" height="9">
<path d="M15.271 4.22168L25.8374 12.0124L28.8515 8.66924L25.8374 11.0241L15.271 4.22168Z" fill="white"/>
</mask>
<g mask="url(#mask164_507_77710)">
<path d="M16.5898 4.22168H16.4434V12.0124H16.5898V4.22168Z" fill="#F97611"/>
</g>
<mask id="mask165_507_77710" style="mask-type:luminance" maskUnits="userSpaceOnUse" x="15" y="4" width="14" height="9">
<path d="M15.271 4.22168L25.8374 12.0124L28.8515 8.66924L25.8374 11.0241L15.271 4.22168Z" fill="white"/>
</mask>
<g mask="url(#mask165_507_77710)">
<path d="M16.7363 4.22168H16.5898V12.0124H16.7363V4.22168Z" fill="#F87511"/>
</g>
<mask id="mask166_507_77710" style="mask-type:luminance" maskUnits="userSpaceOnUse" x="15" y="4" width="14" height="9">
<path d="M15.271 4.22168L25.8374 12.0124L28.8515 8.66924L25.8374 11.0241L15.271 4.22168Z" fill="white"/>
</mask>
<g mask="url(#mask166_507_77710)">
<path d="M16.8828 4.22168H16.7363V12.0124H16.8828V4.22168Z" fill="#F77410"/>
</g>
<mask id="mask167_507_77710" style="mask-type:luminance" maskUnits="userSpaceOnUse" x="15" y="4" width="14" height="9">
<path d="M15.271 4.22168L25.8374 12.0124L28.8515 8.66924L25.8374 11.0241L15.271 4.22168Z" fill="white"/>
</mask>
<g mask="url(#mask167_507_77710)">
<path d="M17.0302 4.22168H16.8838V12.0124H17.0302V4.22168Z" fill="#F77310"/>
</g>
<mask id="mask168_507_77710" style="mask-type:luminance" maskUnits="userSpaceOnUse" x="15" y="4" width="14" height="9">
<path d="M15.271 4.22168L25.8374 12.0124L28.8515 8.66924L25.8374 11.0241L15.271 4.22168Z" fill="white"/>
</mask>
<g mask="url(#mask168_507_77710)">
<path d="M17.1762 4.22168H17.0298V12.0124H17.1762V4.22168Z" fill="#F67210"/>
</g>
<mask id="mask169_507_77710" style="mask-type:luminance" maskUnits="userSpaceOnUse" x="15" y="4" width="14" height="9">
<path d="M15.271 4.22168L25.8374 12.0124L28.8515 8.66924L25.8374 11.0241L15.271 4.22168Z" fill="white"/>
</mask>
<g mask="url(#mask169_507_77710)">
<path d="M17.3227 4.22168H17.1763V12.0124H17.3227V4.22168Z" fill="#F57110"/>
</g>
<mask id="mask170_507_77710" style="mask-type:luminance" maskUnits="userSpaceOnUse" x="15" y="4" width="14" height="9">
<path d="M15.271 4.22168L25.8374 12.0124L28.8515 8.66924L25.8374 11.0241L15.271 4.22168Z" fill="white"/>
</mask>
<g mask="url(#mask170_507_77710)">
<path d="M17.4692 4.22168H17.3228V12.0124H17.4692V4.22168Z" fill="#F47010"/>
</g>
<mask id="mask171_507_77710" style="mask-type:luminance" maskUnits="userSpaceOnUse" x="15" y="4" width="14" height="9">
<path d="M15.271 4.22168L25.8374 12.0124L28.8515 8.66924L25.8374 11.0241L15.271 4.22168Z" fill="white"/>
</mask>
<g mask="url(#mask171_507_77710)">
<path d="M17.6157 4.22168H17.4692V12.0124H17.6157V4.22168Z" fill="#F36F10"/>
</g>
<mask id="mask172_507_77710" style="mask-type:luminance" maskUnits="userSpaceOnUse" x="15" y="4" width="14" height="9">
<path d="M15.271 4.22168L25.8374 12.0124L28.8515 8.66924L25.8374 11.0241L15.271 4.22168Z" fill="white"/>
</mask>
<g mask="url(#mask172_507_77710)">
<path d="M17.7627 4.22168H17.6162V12.0124H17.7627V4.22168Z" fill="#F36E0F"/>
</g>
<mask id="mask173_507_77710" style="mask-type:luminance" maskUnits="userSpaceOnUse" x="15" y="4" width="14" height="9">
<path d="M15.271 4.22168L25.8374 12.0124L28.8515 8.66924L25.8374 11.0241L15.271 4.22168Z" fill="white"/>
</mask>
<g mask="url(#mask173_507_77710)">
<path d="M17.9092 4.22168H17.7627V12.0124H17.9092V4.22168Z" fill="#F26D0F"/>
</g>
<mask id="mask174_507_77710" style="mask-type:luminance" maskUnits="userSpaceOnUse" x="15" y="4" width="14" height="9">
<path d="M15.271 4.22168L25.8374 12.0124L28.8515 8.66924L25.8374 11.0241L15.271 4.22168Z" fill="white"/>
</mask>
<g mask="url(#mask174_507_77710)">
<path d="M18.0556 4.22168H17.9092V12.0124H18.0556V4.22168Z" fill="#F16C0F"/>
</g>
<mask id="mask175_507_77710" style="mask-type:luminance" maskUnits="userSpaceOnUse" x="15" y="4" width="14" height="9">
<path d="M15.271 4.22168L25.8374 12.0124L28.8515 8.66924L25.8374 11.0241L15.271 4.22168Z" fill="white"/>
</mask>
<g mask="url(#mask175_507_77710)">
<path d="M18.2026 4.22168H18.0562V12.0124H18.2026V4.22168Z" fill="#F06B0F"/>
</g>
<mask id="mask176_507_77710" style="mask-type:luminance" maskUnits="userSpaceOnUse" x="15" y="4" width="14" height="9">
<path d="M15.271 4.22168L25.8374 12.0124L28.8515 8.66924L25.8374 11.0241L15.271 4.22168Z" fill="white"/>
</mask>
<g mask="url(#mask176_507_77710)">
<path d="M18.3491 4.22168H18.2026V12.0124H18.3491V4.22168Z" fill="#EF6A0F"/>
</g>
<mask id="mask177_507_77710" style="mask-type:luminance" maskUnits="userSpaceOnUse" x="15" y="4" width="14" height="9">
<path d="M15.271 4.22168L25.8374 12.0124L28.8515 8.66924L25.8374 11.0241L15.271 4.22168Z" fill="white"/>
</mask>
<g mask="url(#mask177_507_77710)">
<path d="M18.4956 4.22168H18.3491V12.0124H18.4956V4.22168Z" fill="#EE690F"/>
</g>
<mask id="mask178_507_77710" style="mask-type:luminance" maskUnits="userSpaceOnUse" x="15" y="4" width="14" height="9">
<path d="M15.271 4.22168L25.8374 12.0124L28.8515 8.66924L25.8374 11.0241L15.271 4.22168Z" fill="white"/>
</mask>
<g mask="url(#mask178_507_77710)">
<path d="M18.6426 4.22168H18.4961V12.0124H18.6426V4.22168Z" fill="#EE680E"/>
</g>
<mask id="mask179_507_77710" style="mask-type:luminance" maskUnits="userSpaceOnUse" x="15" y="4" width="14" height="9">
<path d="M15.271 4.22168L25.8374 12.0124L28.8515 8.66924L25.8374 11.0241L15.271 4.22168Z" fill="white"/>
</mask>
<g mask="url(#mask179_507_77710)">
<path d="M18.7885 4.22168H18.6421V12.0124H18.7885V4.22168Z" fill="#ED670E"/>
</g>
<mask id="mask180_507_77710" style="mask-type:luminance" maskUnits="userSpaceOnUse" x="15" y="4" width="14" height="9">
<path d="M15.271 4.22168L25.8374 12.0124L28.8515 8.66924L25.8374 11.0241L15.271 4.22168Z" fill="white"/>
</mask>
<g mask="url(#mask180_507_77710)">
<path d="M18.9355 4.22168H18.7891V12.0124H18.9355V4.22168Z" fill="#EC660E"/>
</g>
<mask id="mask181_507_77710" style="mask-type:luminance" maskUnits="userSpaceOnUse" x="15" y="4" width="14" height="9">
<path d="M15.271 4.22168L25.8374 12.0124L28.8515 8.66924L25.8374 11.0241L15.271 4.22168Z" fill="white"/>
</mask>
<g mask="url(#mask181_507_77710)">
<path d="M19.082 4.22168H18.9355V12.0124H19.082V4.22168Z" fill="#EB650E"/>
</g>
<mask id="mask182_507_77710" style="mask-type:luminance" maskUnits="userSpaceOnUse" x="15" y="4" width="14" height="9">
<path d="M15.271 4.22168L25.8374 12.0124L28.8515 8.66924L25.8374 11.0241L15.271 4.22168Z" fill="white"/>
</mask>
<g mask="url(#mask182_507_77710)">
<path d="M19.2285 4.22168H19.082V12.0124H19.2285V4.22168Z" fill="#EA640E"/>
</g>
<mask id="mask183_507_77710" style="mask-type:luminance" maskUnits="userSpaceOnUse" x="15" y="4" width="14" height="9">
<path d="M15.271 4.22168L25.8374 12.0124L28.8515 8.66924L25.8374 11.0241L15.271 4.22168Z" fill="white"/>
</mask>
<g mask="url(#mask183_507_77710)">
<path d="M19.375 4.22168H19.2285V12.0124H19.375V4.22168Z" fill="#EA630E"/>
</g>
<mask id="mask184_507_77710" style="mask-type:luminance" maskUnits="userSpaceOnUse" x="15" y="4" width="14" height="9">
<path d="M15.271 4.22168L25.8374 12.0124L28.8515 8.66924L25.8374 11.0241L15.271 4.22168Z" fill="white"/>
</mask>
<g mask="url(#mask184_507_77710)">
<path d="M19.5215 4.22168H19.375V12.0124H19.5215V4.22168Z" fill="#E9620D"/>
</g>
<mask id="mask185_507_77710" style="mask-type:luminance" maskUnits="userSpaceOnUse" x="15" y="4" width="14" height="9">
<path d="M15.271 4.22168L25.8374 12.0124L28.8515 8.66924L25.8374 11.0241L15.271 4.22168Z" fill="white"/>
</mask>
<g mask="url(#mask185_507_77710)">
<path d="M19.6679 4.22168H19.5215V12.0124H19.6679V4.22168Z" fill="#E8610D"/>
</g>
<mask id="mask186_507_77710" style="mask-type:luminance" maskUnits="userSpaceOnUse" x="15" y="4" width="14" height="9">
<path d="M15.271 4.22168L25.8374 12.0124L28.8515 8.66924L25.8374 11.0241L15.271 4.22168Z" fill="white"/>
</mask>
<g mask="url(#mask186_507_77710)">
<path d="M19.8149 4.22168H19.6685V12.0124H19.8149V4.22168Z" fill="#E7600D"/>
</g>
<mask id="mask187_507_77710" style="mask-type:luminance" maskUnits="userSpaceOnUse" x="15" y="4" width="14" height="9">
<path d="M15.271 4.22168L25.8374 12.0124L28.8515 8.66924L25.8374 11.0241L15.271 4.22168Z" fill="white"/>
</mask>
<g mask="url(#mask187_507_77710)">
<path d="M19.9614 4.22168H19.8149V12.0124H19.9614V4.22168Z" fill="#E65F0D"/>
</g>
<mask id="mask188_507_77710" style="mask-type:luminance" maskUnits="userSpaceOnUse" x="15" y="4" width="14" height="9">
<path d="M15.271 4.22168L25.8374 12.0124L28.8515 8.66924L25.8374 11.0241L15.271 4.22168Z" fill="white"/>
</mask>
<g mask="url(#mask188_507_77710)">
<path d="M20.1074 4.22168H19.9609V12.0124H20.1074V4.22168Z" fill="#E55E0D"/>
</g>
<mask id="mask189_507_77710" style="mask-type:luminance" maskUnits="userSpaceOnUse" x="15" y="4" width="14" height="9">
<path d="M15.271 4.22168L25.8374 12.0124L28.8515 8.66924L25.8374 11.0241L15.271 4.22168Z" fill="white"/>
</mask>
<g mask="url(#mask189_507_77710)">
<path d="M20.2549 4.22168H20.1084V12.0124H20.2549V4.22168Z" fill="#E55D0C"/>
</g>
<mask id="mask190_507_77710" style="mask-type:luminance" maskUnits="userSpaceOnUse" x="15" y="4" width="14" height="9">
<path d="M15.271 4.22168L25.8374 12.0124L28.8515 8.66924L25.8374 11.0241L15.271 4.22168Z" fill="white"/>
</mask>
<g mask="url(#mask190_507_77710)">
<path d="M20.4013 4.22168H20.2549V12.0124H20.4013V4.22168Z" fill="#E45C0C"/>
</g>
<mask id="mask191_507_77710" style="mask-type:luminance" maskUnits="userSpaceOnUse" x="15" y="4" width="14" height="9">
<path d="M15.271 4.22168L25.8374 12.0124L28.8515 8.66924L25.8374 11.0241L15.271 4.22168Z" fill="white"/>
</mask>
<g mask="url(#mask191_507_77710)">
<path d="M20.5473 4.22168H20.4009V12.0124H20.5473V4.22168Z" fill="#E35B0C"/>
</g>
<mask id="mask192_507_77710" style="mask-type:luminance" maskUnits="userSpaceOnUse" x="15" y="4" width="14" height="9">
<path d="M15.271 4.22168L25.8374 12.0124L28.8515 8.66924L25.8374 11.0241L15.271 4.22168Z" fill="white"/>
</mask>
<g mask="url(#mask192_507_77710)">
<path d="M20.6943 4.22168H20.5479V12.0124H20.6943V4.22168Z" fill="#E25A0C"/>
</g>
<mask id="mask193_507_77710" style="mask-type:luminance" maskUnits="userSpaceOnUse" x="15" y="4" width="14" height="9">
<path d="M15.271 4.22168L25.8374 12.0124L28.8515 8.66924L25.8374 11.0241L15.271 4.22168Z" fill="white"/>
</mask>
<g mask="url(#mask193_507_77710)">
<path d="M20.8408 4.22168H20.6943V12.0124H20.8408V4.22168Z" fill="#E1590C"/>
</g>
<mask id="mask194_507_77710" style="mask-type:luminance" maskUnits="userSpaceOnUse" x="15" y="4" width="14" height="9">
<path d="M15.271 4.22168L25.8374 12.0124L28.8515 8.66924L25.8374 11.0241L15.271 4.22168Z" fill="white"/>
</mask>
<g mask="url(#mask194_507_77710)">
<path d="M20.9878 4.22168H20.8413V12.0124H20.9878V4.22168Z" fill="#E0570C"/>
</g>
<mask id="mask195_507_77710" style="mask-type:luminance" maskUnits="userSpaceOnUse" x="15" y="4" width="14" height="9">
<path d="M15.271 4.22168L25.8374 12.0124L28.8515 8.66924L25.8374 11.0241L15.271 4.22168Z" fill="white"/>
</mask>
<g mask="url(#mask195_507_77710)">
<path d="M21.1343 4.22168H20.9878V12.0124H21.1343V4.22168Z" fill="#E0560B"/>
</g>
<mask id="mask196_507_77710" style="mask-type:luminance" maskUnits="userSpaceOnUse" x="15" y="4" width="14" height="9">
<path d="M15.271 4.22168L25.8374 12.0124L28.8515 8.66924L25.8374 11.0241L15.271 4.22168Z" fill="white"/>
</mask>
<g mask="url(#mask196_507_77710)">
<path d="M21.2802 4.22168H21.1338V12.0124H21.2802V4.22168Z" fill="#DF550B"/>
</g>
<mask id="mask197_507_77710" style="mask-type:luminance" maskUnits="userSpaceOnUse" x="15" y="4" width="14" height="9">
<path d="M15.271 4.22168L25.8374 12.0124L28.8515 8.66924L25.8374 11.0241L15.271 4.22168Z" fill="white"/>
</mask>
<g mask="url(#mask197_507_77710)">
<path d="M21.4272 4.22168H21.2808V12.0124H21.4272V4.22168Z" fill="#DE540B"/>
</g>
<mask id="mask198_507_77710" style="mask-type:luminance" maskUnits="userSpaceOnUse" x="15" y="4" width="14" height="9">
<path d="M15.271 4.22168L25.8374 12.0124L28.8515 8.66924L25.8374 11.0241L15.271 4.22168Z" fill="white"/>
</mask>
<g mask="url(#mask198_507_77710)">
<path d="M21.5742 4.22168H21.4277V12.0124H21.5742V4.22168Z" fill="#DD530B"/>
</g>
<mask id="mask199_507_77710" style="mask-type:luminance" maskUnits="userSpaceOnUse" x="15" y="4" width="14" height="9">
<path d="M15.271 4.22168L25.8374 12.0124L28.8515 8.66924L25.8374 11.0241L15.271 4.22168Z" fill="white"/>
</mask>
<g mask="url(#mask199_507_77710)">
<path d="M21.7202 4.22168H21.5737V12.0124H21.7202V4.22168Z" fill="#DC520B"/>
</g>
<mask id="mask200_507_77710" style="mask-type:luminance" maskUnits="userSpaceOnUse" x="15" y="4" width="14" height="9">
<path d="M15.271 4.22168L25.8374 12.0124L28.8515 8.66924L25.8374 11.0241L15.271 4.22168Z" fill="white"/>
</mask>
<g mask="url(#mask200_507_77710)">
<path d="M21.8667 4.22168H21.7202V12.0124H21.8667V4.22168Z" fill="#DB510B"/>
</g>
<mask id="mask201_507_77710" style="mask-type:luminance" maskUnits="userSpaceOnUse" x="15" y="4" width="14" height="9">
<path d="M15.271 4.22168L25.8374 12.0124L28.8515 8.66924L25.8374 11.0241L15.271 4.22168Z" fill="white"/>
</mask>
<g mask="url(#mask201_507_77710)">
<path d="M22.0136 4.22168H21.8672V12.0124H22.0136V4.22168Z" fill="#DB500A"/>
</g>
<mask id="mask202_507_77710" style="mask-type:luminance" maskUnits="userSpaceOnUse" x="15" y="4" width="14" height="9">
<path d="M15.271 4.22168L25.8374 12.0124L28.8515 8.66924L25.8374 11.0241L15.271 4.22168Z" fill="white"/>
</mask>
<g mask="url(#mask202_507_77710)">
<path d="M22.1601 4.22168H22.0137V12.0124H22.1601V4.22168Z" fill="#DA4F0A"/>
</g>
<mask id="mask203_507_77710" style="mask-type:luminance" maskUnits="userSpaceOnUse" x="15" y="4" width="14" height="9">
<path d="M15.271 4.22168L25.8374 12.0124L28.8515 8.66924L25.8374 11.0241L15.271 4.22168Z" fill="white"/>
</mask>
<g mask="url(#mask203_507_77710)">
<path d="M22.3066 4.22168H22.1602V12.0124H22.3066V4.22168Z" fill="#D94E0A"/>
</g>
<mask id="mask204_507_77710" style="mask-type:luminance" maskUnits="userSpaceOnUse" x="15" y="4" width="14" height="9">
<path d="M15.271 4.22168L25.8374 12.0124L28.8515 8.66924L25.8374 11.0241L15.271 4.22168Z" fill="white"/>
</mask>
<g mask="url(#mask204_507_77710)">
<path d="M22.4531 4.22168H22.3066V12.0124H22.4531V4.22168Z" fill="#D84D0A"/>
</g>
<mask id="mask205_507_77710" style="mask-type:luminance" maskUnits="userSpaceOnUse" x="15" y="4" width="14" height="9">
<path d="M15.271 4.22168L25.8374 12.0124L28.8515 8.66924L25.8374 11.0241L15.271 4.22168Z" fill="white"/>
</mask>
<g mask="url(#mask205_507_77710)">
<path d="M22.5996 4.22168H22.4531V12.0124H22.5996V4.22168Z" fill="#D74C0A"/>
</g>
<mask id="mask206_507_77710" style="mask-type:luminance" maskUnits="userSpaceOnUse" x="15" y="4" width="14" height="9">
<path d="M15.271 4.22168L25.8374 12.0124L28.8515 8.66924L25.8374 11.0241L15.271 4.22168Z" fill="white"/>
</mask>
<g mask="url(#mask206_507_77710)">
<path d="M22.7461 4.22168H22.5996V12.0124H22.7461V4.22168Z" fill="#D64B09"/>
</g>
<mask id="mask207_507_77710" style="mask-type:luminance" maskUnits="userSpaceOnUse" x="15" y="4" width="14" height="9">
<path d="M15.271 4.22168L25.8374 12.0124L28.8515 8.66924L25.8374 11.0241L15.271 4.22168Z" fill="white"/>
</mask>
<g mask="url(#mask207_507_77710)">
<path d="M22.893 4.22168H22.7466V12.0124H22.893V4.22168Z" fill="#D54A09"/>
</g>
<mask id="mask208_507_77710" style="mask-type:luminance" maskUnits="userSpaceOnUse" x="15" y="4" width="14" height="9">
<path d="M15.271 4.22168L25.8374 12.0124L28.8515 8.66924L25.8374 11.0241L15.271 4.22168Z" fill="white"/>
</mask>
<g mask="url(#mask208_507_77710)">
<path d="M23.04 4.22168H22.8936V12.0124H23.04V4.22168Z" fill="#D54909"/>
</g>
<mask id="mask209_507_77710" style="mask-type:luminance" maskUnits="userSpaceOnUse" x="15" y="4" width="14" height="9">
<path d="M15.271 4.22168L25.8374 12.0124L28.8515 8.66924L25.8374 11.0241L15.271 4.22168Z" fill="white"/>
</mask>
<g mask="url(#mask209_507_77710)">
<path d="M23.186 4.22168H23.0396V12.0124H23.186V4.22168Z" fill="#D44809"/>
</g>
<mask id="mask210_507_77710" style="mask-type:luminance" maskUnits="userSpaceOnUse" x="15" y="4" width="14" height="9">
<path d="M15.271 4.22168L25.8374 12.0124L28.8515 8.66924L25.8374 11.0241L15.271 4.22168Z" fill="white"/>
</mask>
<g mask="url(#mask210_507_77710)">
<path d="M23.3325 4.22168H23.186V12.0124H23.3325V4.22168Z" fill="#D34709"/>
</g>
<mask id="mask211_507_77710" style="mask-type:luminance" maskUnits="userSpaceOnUse" x="15" y="4" width="14" height="9">
<path d="M15.271 4.22168L25.8374 12.0124L28.8515 8.66924L25.8374 11.0241L15.271 4.22168Z" fill="white"/>
</mask>
<g mask="url(#mask211_507_77710)">
<path d="M23.4795 4.22168H23.333V12.0124H23.4795V4.22168Z" fill="#D24609"/>
</g>
<mask id="mask212_507_77710" style="mask-type:luminance" maskUnits="userSpaceOnUse" x="15" y="4" width="14" height="9">
<path d="M15.271 4.22168L25.8374 12.0124L28.8515 8.66924L25.8374 11.0241L15.271 4.22168Z" fill="white"/>
</mask>
<g mask="url(#mask212_507_77710)">
<path d="M23.626 4.22168H23.4795V12.0124H23.626V4.22168Z" fill="#D14508"/>
</g>
<mask id="mask213_507_77710" style="mask-type:luminance" maskUnits="userSpaceOnUse" x="15" y="4" width="14" height="9">
<path d="M15.271 4.22168L25.8374 12.0124L28.8515 8.66924L25.8374 11.0241L15.271 4.22168Z" fill="white"/>
</mask>
<g mask="url(#mask213_507_77710)">
<path d="M23.7724 4.22168H23.626V12.0124H23.7724V4.22168Z" fill="#D04408"/>
</g>
<mask id="mask214_507_77710" style="mask-type:luminance" maskUnits="userSpaceOnUse" x="15" y="4" width="14" height="9">
<path d="M15.271 4.22168L25.8374 12.0124L28.8515 8.66924L25.8374 11.0241L15.271 4.22168Z" fill="white"/>
</mask>
<g mask="url(#mask214_507_77710)">
<path d="M23.9189 4.22168H23.7725V12.0124H23.9189V4.22168Z" fill="#D04308"/>
</g>
<mask id="mask215_507_77710" style="mask-type:luminance" maskUnits="userSpaceOnUse" x="15" y="4" width="14" height="9">
<path d="M15.271 4.22168L25.8374 12.0124L28.8515 8.66924L25.8374 11.0241L15.271 4.22168Z" fill="white"/>
</mask>
<g mask="url(#mask215_507_77710)">
<path d="M24.0659 4.22168H23.9194V12.0124H24.0659V4.22168Z" fill="#CF4208"/>
</g>
<mask id="mask216_507_77710" style="mask-type:luminance" maskUnits="userSpaceOnUse" x="15" y="4" width="14" height="9">
<path d="M15.271 4.22168L25.8374 12.0124L28.8515 8.66924L25.8374 11.0241L15.271 4.22168Z" fill="white"/>
</mask>
<g mask="url(#mask216_507_77710)">
<path d="M24.2124 4.22168H24.0659V12.0124H24.2124V4.22168Z" fill="#CE4108"/>
</g>
<mask id="mask217_507_77710" style="mask-type:luminance" maskUnits="userSpaceOnUse" x="15" y="4" width="14" height="9">
<path d="M15.271 4.22168L25.8374 12.0124L28.8515 8.66924L25.8374 11.0241L15.271 4.22168Z" fill="white"/>
</mask>
<g mask="url(#mask217_507_77710)">
<path d="M24.3589 4.22168H24.2124V12.0124H24.3589V4.22168Z" fill="#CD4008"/>
</g>
<mask id="mask218_507_77710" style="mask-type:luminance" maskUnits="userSpaceOnUse" x="15" y="4" width="14" height="9">
<path d="M15.271 4.22168L25.8374 12.0124L28.8515 8.66924L25.8374 11.0241L15.271 4.22168Z" fill="white"/>
</mask>
<g mask="url(#mask218_507_77710)">
<path d="M24.5053 4.22168H24.3589V12.0124H24.5053V4.22168Z" fill="#CC3F07"/>
</g>
<mask id="mask219_507_77710" style="mask-type:luminance" maskUnits="userSpaceOnUse" x="15" y="4" width="14" height="9">
<path d="M15.271 4.22168L25.8374 12.0124L28.8515 8.66924L25.8374 11.0241L15.271 4.22168Z" fill="white"/>
</mask>
<g mask="url(#mask219_507_77710)">
<path d="M24.6518 4.22168H24.5054V12.0124H24.6518V4.22168Z" fill="#CB3E07"/>
</g>
<mask id="mask220_507_77710" style="mask-type:luminance" maskUnits="userSpaceOnUse" x="15" y="4" width="14" height="9">
<path d="M15.271 4.22168L25.8374 12.0124L28.8515 8.66924L25.8374 11.0241L15.271 4.22168Z" fill="white"/>
</mask>
<g mask="url(#mask220_507_77710)">
<path d="M24.7988 4.22168H24.6523V12.0124H24.7988V4.22168Z" fill="#CA3D07"/>
</g>
<mask id="mask221_507_77710" style="mask-type:luminance" maskUnits="userSpaceOnUse" x="15" y="4" width="14" height="9">
<path d="M15.271 4.22168L25.8374 12.0124L28.8515 8.66924L25.8374 11.0241L15.271 4.22168Z" fill="white"/>
</mask>
<g mask="url(#mask221_507_77710)">
<path d="M24.9453 4.22168H24.7988V12.0124H24.9453V4.22168Z" fill="#CA3B07"/>
</g>
<mask id="mask222_507_77710" style="mask-type:luminance" maskUnits="userSpaceOnUse" x="15" y="4" width="14" height="9">
<path d="M15.271 4.22168L25.8374 12.0124L28.8515 8.66924L25.8374 11.0241L15.271 4.22168Z" fill="white"/>
</mask>
<g mask="url(#mask222_507_77710)">
<path d="M25.0918 4.22168H24.9453V12.0124H25.0918V4.22168Z" fill="#C93A07"/>
</g>
<mask id="mask223_507_77710" style="mask-type:luminance" maskUnits="userSpaceOnUse" x="15" y="4" width="14" height="9">
<path d="M15.271 4.22168L25.8374 12.0124L28.8515 8.66924L25.8374 11.0241L15.271 4.22168Z" fill="white"/>
</mask>
<g mask="url(#mask223_507_77710)">
<path d="M25.2383 4.22168H25.0918V12.0124H25.2383V4.22168Z" fill="#C83906"/>
</g>
<mask id="mask224_507_77710" style="mask-type:luminance" maskUnits="userSpaceOnUse" x="15" y="4" width="14" height="9">
<path d="M15.271 4.22168L25.8374 12.0124L28.8515 8.66924L25.8374 11.0241L15.271 4.22168Z" fill="white"/>
</mask>
<g mask="url(#mask224_507_77710)">
<path d="M25.3852 4.22168H25.2388V12.0124H25.3852V4.22168Z" fill="#C73806"/>
</g>
<mask id="mask225_507_77710" style="mask-type:luminance" maskUnits="userSpaceOnUse" x="15" y="4" width="14" height="9">
<path d="M15.271 4.22168L25.8374 12.0124L28.8515 8.66924L25.8374 11.0241L15.271 4.22168Z" fill="white"/>
</mask>
<g mask="url(#mask225_507_77710)">
<path d="M25.5317 4.22168H25.3853V12.0124H25.5317V4.22168Z" fill="#C63706"/>
</g>
<mask id="mask226_507_77710" style="mask-type:luminance" maskUnits="userSpaceOnUse" x="15" y="4" width="14" height="9">
<path d="M15.271 4.22168L25.8374 12.0124L28.8515 8.66924L25.8374 11.0241L15.271 4.22168Z" fill="white"/>
</mask>
<g mask="url(#mask226_507_77710)">
<path d="M25.6777 4.22168H25.5312V12.0124H25.6777V4.22168Z" fill="#C53606"/>
</g>
<mask id="mask227_507_77710" style="mask-type:luminance" maskUnits="userSpaceOnUse" x="15" y="4" width="14" height="9">
<path d="M15.271 4.22168L25.8374 12.0124L28.8515 8.66924L25.8374 11.0241L15.271 4.22168Z" fill="white"/>
</mask>
<g mask="url(#mask227_507_77710)">
<path d="M25.8247 4.22168H25.6782V12.0124H25.8247V4.22168Z" fill="#C43506"/>
</g>
<mask id="mask228_507_77710" style="mask-type:luminance" maskUnits="userSpaceOnUse" x="15" y="4" width="14" height="9">
<path d="M15.271 4.22168L25.8374 12.0124L28.8515 8.66924L25.8374 11.0241L15.271 4.22168Z" fill="white"/>
</mask>
<g mask="url(#mask228_507_77710)">
<path d="M25.9712 4.22168H25.8247V12.0124H25.9712V4.22168Z" fill="#C43406"/>
</g>
<mask id="mask229_507_77710" style="mask-type:luminance" maskUnits="userSpaceOnUse" x="15" y="4" width="14" height="9">
<path d="M15.271 4.22168L25.8374 12.0124L28.8515 8.66924L25.8374 11.0241L15.271 4.22168Z" fill="white"/>
</mask>
<g mask="url(#mask229_507_77710)">
<path d="M26.1177 4.22168H25.9712V12.0124H26.1177V4.22168Z" fill="#C33305"/>
</g>
<mask id="mask230_507_77710" style="mask-type:luminance" maskUnits="userSpaceOnUse" x="15" y="4" width="14" height="9">
<path d="M15.271 4.22168L25.8374 12.0124L28.8515 8.66924L25.8374 11.0241L15.271 4.22168Z" fill="white"/>
</mask>
<g mask="url(#mask230_507_77710)">
<path d="M26.2646 4.22168H26.1182V12.0124H26.2646V4.22168Z" fill="#C23205"/>
</g>
<mask id="mask231_507_77710" style="mask-type:luminance" maskUnits="userSpaceOnUse" x="15" y="4" width="14" height="9">
<path d="M15.271 4.22168L25.8374 12.0124L28.8515 8.66924L25.8374 11.0241L15.271 4.22168Z" fill="white"/>
</mask>
<g mask="url(#mask231_507_77710)">
<path d="M26.4111 4.22168H26.2646V12.0124H26.4111V4.22168Z" fill="#C13105"/>
</g>
<mask id="mask232_507_77710" style="mask-type:luminance" maskUnits="userSpaceOnUse" x="15" y="4" width="14" height="9">
<path d="M15.271 4.22168L25.8374 12.0124L28.8515 8.66924L25.8374 11.0241L15.271 4.22168Z" fill="white"/>
</mask>
<g mask="url(#mask232_507_77710)">
<path d="M28.8511 4.22168H26.4106V12.0124H28.8511V4.22168Z" fill="#C13105"/>
</g>
<path d="M5.06006 11.6769L15.271 4.22202L13.2956 0.58252L14.6212 4.00487L5.06006 11.6769Z" fill="white"/>
<g opacity="0.11">
<path d="M30.5331 12.8416C28.626 13.7203 27.314 16.5869 26.696 18.2548C26.1325 19.7755 25.8027 21.3822 25.6887 22.999C25.6407 23.6809 25.6272 24.3679 25.707 25.0471C25.7506 25.4201 25.8237 25.7898 25.9231 26.1521L26.1707 26.2678L28.3713 19.4951L30.5331 12.8416Z" fill="white"/>
</g>
<g opacity="0.18">
<path d="M7.25497 22.3994C6.72257 23.1994 5.9852 23.8772 5.10205 24.2557C6.23753 24.5994 7.19138 25.4149 7.86381 26.3924C8.53623 27.3699 8.94822 28.5037 9.24688 29.652C9.47486 28.6031 9.76169 27.5563 10.262 26.6065C10.7622 25.6567 11.4928 24.8026 12.4436 24.3047C11.3487 23.8099 10.4635 22.9152 9.85099 21.8816C9.23843 20.8476 8.88428 19.6783 8.66984 18.4961C8.796 19.1915 7.69739 21.7344 7.25497 22.3994Z" fill="white"/>
</g>
<g opacity="0.12">
<path d="M6.8452 22.134C6.16939 23.1223 5.23279 23.9595 4.11084 24.4269C5.55277 24.8517 6.76436 25.859 7.61842 27.0662C8.47249 28.2737 8.99575 29.6744 9.37492 31.0927C9.66479 29.7969 10.0287 28.5038 10.664 27.3304C11.2992 26.157 12.2273 25.102 13.4352 24.4871C12.0443 23.8759 10.9204 22.7705 10.1424 21.4937C9.36477 20.2165 8.91457 18.7718 8.64228 17.3113C8.80227 18.1714 7.40702 21.3127 6.8452 22.134Z" fill="white"/>
</g>
<path d="M8.35744 23.6155C8.21166 23.8344 8.01006 24.0197 7.76855 24.1232C8.07906 24.2173 8.34019 24.4405 8.52419 24.7077C8.7082 24.9749 8.82083 25.2854 8.90235 25.5993C8.96492 25.3125 9.04306 25.026 9.18005 24.7662C9.31703 24.5065 9.51694 24.2727 9.77705 24.1364C9.47736 24.0011 9.23518 23.7562 9.06775 23.4735C8.90032 23.1907 8.80324 22.8707 8.74473 22.5474C8.77889 22.7378 8.47853 23.4336 8.35744 23.6155Z" fill="white"/>
<g opacity="0.52">
<path d="M7.92665 23.1401C7.63001 23.5863 7.21871 23.9637 6.72656 24.1751C7.35942 24.3669 7.89113 24.8215 8.26591 25.3661C8.64068 25.911 8.87035 26.5432 9.03677 27.1831C9.16394 26.5983 9.3236 26.0149 9.60265 25.4852C9.8817 24.9555 10.2889 24.4796 10.819 24.2022C10.2084 23.9265 9.71494 23.4276 9.37366 22.8513C9.03237 22.2749 8.83483 21.6231 8.71509 20.9639C8.78579 21.3522 8.17323 22.7697 7.92665 23.1401Z" fill="white"/>
</g>
<g opacity="0.26">
<path d="M8.23358 3.47998L1.46533 8.39736C1.46533 8.39736 4.74528 11.999 4.72566 11.9476C4.71146 11.9104 3.26107 9.85418 2.47127 8.73628L8.23358 3.47998Z" fill="white"/>
</g>
<defs>
<clipPath id="clip0_507_77710">
<rect width="9.13257" height="15.5592" fill="white" transform="translate(18.0942 11.8672)"/>
</clipPath>
</defs>
</svg>
