<svg width="218" height="225" viewBox="0 0 218 225" fill="none" xmlns="http://www.w3.org/2000/svg">
<g opacity="0.8" filter="url(#filter0_f_320_862)">
<path d="M112.729 89.7781L110.381 89.5975H109.388H108.034L105.687 89.733L103.294 89.9587L101.037 90.2747L99.7731 89.2815L98.0126 87.9724L95.3944 86.0765L93.8596 85.0834L93.2412 84.7608C92.9617 84.6149 92.6719 84.4897 92.3741 84.3861L92.3045 84.3619C91.9577 84.2413 91.6001 84.1544 91.2367 84.1025L91.052 84.0761C90.9076 84.0555 90.7619 84.0451 90.6161 84.0451C90.224 84.0451 89.8356 84.12 89.4715 84.2656L89.3455 84.316L87.9912 85.0834L87.3389 85.5183C87.0524 85.7093 86.788 85.9315 86.5505 86.1808C86.1894 86.56 85.8949 86.9974 85.6794 87.4746L85.373 88.153L84.7862 90.0941L84.7481 90.339C84.5633 91.5269 84.5004 92.7305 84.5605 93.9311L84.7862 95.1048L85.3279 96.7299L85.6534 97.4622C86.158 98.5976 86.7432 99.6955 87.4044 100.747L88.3072 101.831L86.1856 106.39L84.2975 110.51C84.2321 110.652 84.1771 110.799 84.1329 110.95C84.0275 111.308 83.9842 111.682 84.0049 112.055L84.0188 112.304L85.5987 120.429L85.8717 121.872C85.9003 122.023 85.9425 122.172 85.9978 122.315L86.0037 122.331C86.0943 122.566 86.2207 122.787 86.3784 122.984C86.4604 123.086 86.5504 123.182 86.6476 123.27L92.7311 128.78L101.127 135.732L103.746 137.763L106.589 139.524L107.737 140.098C107.874 140.166 108.02 140.216 108.171 140.247C108.466 140.306 108.771 140.286 109.056 140.191L109.298 140.111L110.878 139.343L113.722 137.447L115.437 136.229L127.761 125.801L130.605 123.228C130.903 122.9 131.133 122.517 131.282 122.099L131.643 120.339L133.042 113.658L133.223 112.078V111.879C133.223 111.472 133.162 111.068 133.042 110.679L131.462 107.293L129.341 102.779L128.889 101.786C129.16 101.515 129.408 101.224 129.631 100.913L130.108 100.251L130.695 99.2127L131.462 97.723L132.185 95.8722L132.429 94.8503C132.597 94.1489 132.696 93.4329 132.726 92.7123L132.591 91.1323L132.465 90.5658C132.248 89.5907 131.958 88.6332 131.598 87.7016L131.192 86.9342L130.996 86.6631C130.736 86.3035 130.433 85.9772 130.094 85.6914C129.863 85.4971 129.616 85.3223 129.357 85.1691L128.262 84.5235C128.079 84.4154 127.887 84.3231 127.688 84.2474L127.39 84.1339C127.158 84.0454 126.911 84 126.662 84C126.522 84 126.383 84.0144 126.245 84.043L125.922 84.1103C125.554 84.187 125.195 84.3031 124.852 84.4565L124.2 84.7476C123.566 85.0311 122.957 85.3698 122.382 85.7598L120.583 86.9793L116.205 90.2295C115.754 90.2295 115.304 90.1935 114.859 90.1217L112.729 89.7781Z" fill="#560C8D"/>
</g>
<path d="M112.729 89.7781L110.381 89.5975H109.388H108.034L105.687 89.733L103.294 89.9587L101.037 90.2747L99.7731 89.2815L98.0126 87.9724L95.3944 86.0765L93.8596 85.0834L93.2412 84.7608C92.9617 84.6149 92.6719 84.4897 92.3741 84.3861L92.3045 84.3619C91.9577 84.2413 91.6001 84.1544 91.2367 84.1025L91.052 84.0761C90.9076 84.0555 90.7619 84.0451 90.6161 84.0451C90.224 84.0451 89.8356 84.12 89.4715 84.2656L89.3455 84.316L87.9912 85.0834L87.3389 85.5183C87.0524 85.7093 86.788 85.9315 86.5505 86.1808C86.1894 86.56 85.8949 86.9974 85.6794 87.4746L85.373 88.153L84.7862 90.0941L84.7481 90.339C84.5633 91.5269 84.5004 92.7305 84.5605 93.9311L84.7862 95.1048L85.3279 96.7299L85.6534 97.4622C86.158 98.5976 86.7432 99.6955 87.4044 100.747L88.3072 101.831L86.1856 106.39L84.2975 110.51C84.2321 110.652 84.1771 110.799 84.1329 110.95C84.0275 111.308 83.9842 111.682 84.0049 112.055L84.0188 112.304L85.5987 120.429L85.8717 121.872C85.9003 122.023 85.9425 122.172 85.9978 122.315L86.0037 122.331C86.0943 122.566 86.2207 122.787 86.3784 122.984C86.4604 123.086 86.5504 123.182 86.6476 123.27L92.7311 128.78L101.127 135.732L103.746 137.763L106.589 139.524L107.737 140.098C107.874 140.166 108.02 140.216 108.171 140.247C108.466 140.306 108.771 140.286 109.056 140.191L109.298 140.111L110.878 139.343L113.722 137.447L115.437 136.229L127.761 125.801L130.605 123.228C130.903 122.9 131.133 122.517 131.282 122.099L131.643 120.339L133.042 113.658L133.223 112.078V111.879C133.223 111.472 133.162 111.068 133.042 110.679L131.462 107.293L129.341 102.779L128.889 101.786C129.16 101.515 129.408 101.224 129.631 100.913L130.108 100.251L130.695 99.2127L131.462 97.723L132.185 95.8722L132.429 94.8503C132.597 94.1489 132.696 93.4329 132.726 92.7123L132.591 91.1323L132.465 90.5658C132.248 89.5907 131.958 88.6332 131.598 87.7016L131.192 86.9342L130.996 86.6631C130.736 86.3035 130.433 85.9772 130.094 85.6914C129.863 85.4971 129.616 85.3223 129.357 85.1691L128.262 84.5235C128.079 84.4154 127.887 84.3231 127.688 84.2474L127.39 84.1339C127.158 84.0454 126.911 84 126.662 84C126.522 84 126.383 84.0144 126.245 84.043L125.922 84.1103C125.554 84.187 125.195 84.3031 124.852 84.4565L124.2 84.7476C123.566 85.0311 122.957 85.3698 122.382 85.7598L120.583 86.9793L116.205 90.2295C115.754 90.2295 115.304 90.1935 114.859 90.1217L112.729 89.7781Z" fill="#390977"/>
<path d="M102.889 91.0422L108.261 90.5457H110.112L112.459 90.7714L116.341 91.3131L118.914 94.0215L121.216 95.9626L125.821 99.9351L127.581 101.696L127.988 102.147L131.373 109.37L132.321 111.401V111.943L132.186 113.026L130.967 118.759L130.335 121.964L130.064 122.461L129.658 122.822L126.182 125.982L119.591 131.715L113.362 136.68L109.434 139.073L108.396 139.389L107.674 139.073L105.236 137.628L99.2776 133.069L95.3503 129.819L87.8568 123.138L87.2248 122.551L86.954 122.19L86.7283 121.332L85.8255 116.908L84.9678 112.214V111.491L85.2838 110.769L89.0756 102.553L89.3916 101.921L89.6173 101.605L91.1522 100.116L92.5515 98.8517L93.5898 97.9489L96.0274 95.9626L97.5171 94.9695L101.038 91.4033L101.354 91.2679L102.889 91.0422Z" fill="url(#paint0_linear_320_862)"/>
<path opacity="0.5" d="M92.1904 120.745L84.9678 112.168L85.3289 114.245L85.8255 117.044L86.638 121.197L86.954 122.19L87.2248 122.551L87.3603 122.686L92.1904 120.745Z" fill="#6A1BAC"/>
<path d="M123.382 107.248L124.962 105.172L122.57 105.939L120.448 106.706L118.507 107.429L115.934 108.602L114.356 109.483C114.116 109.617 113.901 109.793 113.722 110.002L113.09 111.762L113.583 112.185C114.092 112.622 114.679 112.96 115.311 113.182C115.784 113.348 116.278 113.448 116.778 113.478L117.064 113.495C117.363 113.514 117.663 113.496 117.957 113.443L118.031 113.43C118.523 113.342 118.99 113.149 119.399 112.862C119.586 112.731 119.76 112.582 119.917 112.416L120.092 112.233C120.418 111.89 120.703 111.51 120.94 111.099L121.26 110.543C121.501 110.033 121.794 109.55 122.137 109.102L122.208 109.009L123.382 107.248Z" fill="#390977"/>
<path d="M113.812 135.055L109.524 136.59L109.162 136.77L108.576 136.861L108.124 136.77L103.926 135.281C103.385 134.77 102.882 134.22 102.422 133.635L101.94 133.024C101.158 132.182 100.441 131.284 99.7928 130.336L98.3285 128.194L98.1479 126.794V125.891V125.034L98.3285 123.409C98.3886 122.838 98.5018 122.274 98.6666 121.725L98.6896 121.648L101.127 114.832L101.94 113.252L103.384 112.259L108.395 109.234L114.083 112.575L114.76 112.936L115.438 114.016C115.948 114.829 116.371 115.692 116.701 116.592L118.416 121.377L118.687 122.1L118.958 123.093L119.139 124.311L119.319 125.621L119.41 126.388C119.05 127.498 118.559 128.56 117.949 129.554L117.684 129.986C117.18 130.806 116.614 131.587 115.992 132.321L114.619 133.943C114.322 134.293 114.052 134.664 113.812 135.055Z" fill="#390977"/>
<path opacity="0.5" d="M91.5131 113.613L92.0999 105.036L85.0127 111.491L91.5131 113.613Z" fill="#A42DD5"/>
<path d="M108.44 120.384V114.786L113.135 121.332L112.367 121.061L110.607 120.655L109.343 120.429L108.44 120.384Z" fill="#B735E0"/>
<path d="M113.045 111.943L113.135 121.332L108.44 114.787L108.395 109.234L111.284 110.859L113.045 111.943Z" fill="#B030DD"/>
<path d="M104.107 112.168V120.745L108.441 114.787L108.395 109.234L105.01 111.266L104.107 111.807V112.168Z" fill="#DD4EF6"/>
<path d="M108.44 109.144L108.575 105.126L110.968 107.383L113.721 110.001L113.044 111.943L110.02 110.092L108.44 109.144Z" fill="#7B1EB5"/>
<path d="M112.775 109.099L108.757 105.307L108.712 105.081L112.323 96.0079L115.483 102.102V104.72L112.775 109.099Z" fill="#D945F3"/>
<path d="M122.705 86.6634L120.132 88.4691L117.062 90.8616L119.455 93.886L120.087 94.5632L128.077 101.064L128.279 100.871C128.773 100.4 129.192 99.8562 129.522 99.2579L130.334 97.7231L131.101 95.9174L131.598 94.2923L131.607 94.2472C131.691 93.8266 131.74 93.3997 131.752 92.9709C131.77 92.3792 131.719 91.7875 131.6 91.2076L131.417 90.3199L131.036 89.0787C130.929 88.733 130.797 88.3958 130.64 88.07L130.404 87.5822C130.298 87.3618 130.164 87.1557 130.006 86.9688C129.834 86.7662 129.636 86.588 129.416 86.4392L128.212 85.6252L127.6 85.3191C127.063 85.0505 126.448 84.983 125.865 85.1286L124.421 85.7154L122.705 86.6634Z" fill="#AF30E1"/>
<path d="M104.783 96.2787L98.4185 94.9244L97.6059 95.3759L100.63 101.921L101.624 102.734L104.783 96.2787Z" fill="#FE80FE"/>
<path d="M92.189 105.217L96.026 101.335L101.488 104.494L104.422 109.054L103.339 109.776L100.63 108.286L96.9288 106.661L92.189 105.217Z" fill="#FE80FE"/>
<path d="M115.618 104.901L121.216 101.38L124.872 105.217L122.074 106.119L118.598 107.383L115.889 108.647L113.722 110.002L112.774 109.099L115.618 104.901Z" fill="#A222D1"/>
<path d="M119.907 94.8792L116.656 91.5839L116.295 91.313L115.934 91.6742L113.812 94.2021L112.323 96.0529L119.907 94.8792Z" fill="#D541EF"/>
<path d="M97.2902 88.6496L99.7278 90.5456L100.27 90.9518L99.9987 91.3581L99.4118 92.1255L97.8319 93.8409L95.8908 95.466L93.8143 96.9105L89.1196 101.064L88.6682 100.657L88.307 100.251L87.8556 99.619L87.2688 98.5808L86.6368 97.3168L86.0499 95.8271L85.7945 95.0143C85.6342 94.5043 85.529 93.9787 85.4806 93.4464C85.4389 92.9881 85.4396 92.527 85.4825 92.0688L85.5534 91.313L85.8242 90.0039L86.4111 88.3336L86.7104 87.689C86.9 87.2807 87.173 86.9165 87.5118 86.62C87.6505 86.4987 87.7993 86.3895 87.9566 86.2936L89.571 85.3092L90.0591 85.0507C90.2425 84.9537 90.4469 84.9029 90.6544 84.9029L92.0086 85.3543L93.7691 86.212L97.2902 88.6496Z" fill="#AF30E1"/>
<path d="M123.517 86.2573L123.196 88.0664C123.169 88.2143 123.156 88.3642 123.156 88.5144L124.059 87.431L125.549 86.0316L126.405 85.2144C126.496 85.1275 126.596 85.0509 126.704 84.9861C126.722 84.9755 126.715 84.9482 126.694 84.9482H126.677C126.587 84.9482 126.498 84.9592 126.41 84.981L126 85.0836L125.323 85.3093L124.42 85.7156L123.517 86.2573Z" fill="#FF6AFE"/>
<path d="M123.066 88.5595L123.518 86.2122C122.887 86.5427 122.283 86.9222 121.711 87.3471L119.229 89.1915L117.062 90.8617L117.875 91.9L118.552 92.7125L119.455 93.8862L122.344 89.4623L123.066 88.5595Z" fill="#D13EEE"/>
<path d="M87.1783 94.0216L86.0993 93.6845C85.8592 93.6094 85.6408 93.4773 85.4629 93.2994L85.5532 94.2473L85.824 95.1953L86.14 96.1884L86.5914 97.2267L86.9526 97.9489L87.3137 98.6712L87.8102 99.5289L88.4422 100.432L89.1193 101.064L90.6993 99.6643L88.1714 97.1364L87.7651 96.7301L87.5394 96.369L87.404 96.0981L87.2685 94.8793L87.1783 94.0216Z" fill="#8013BC"/>
<path d="M94.221 88.6948L90.8354 85.2189L90.6548 84.9029L91.2868 85.0835L92.0542 85.3543L93.2278 85.9411L93.7695 86.212L94.1307 86.4377L94.221 88.6948Z" fill="#FF6AFE"/>
<path d="M94.3109 88.7399L94.1304 86.4377L95.304 87.2502L97.0646 88.469L98.3285 89.4622L100.27 90.9518L100.044 91.2678L99.4119 92.1255L98.6897 92.8929L97.8771 93.7506L94.3109 88.7399Z" fill="#D13EEE"/>
<path d="M95.3952 94.6536L95.666 95.6016L94.9889 96.0981L94.1312 96.685L93.4541 97.2267L92.6392 96.7377C92.1329 96.434 91.6826 96.0455 91.3078 95.5893C90.9948 95.2082 90.7381 94.7842 90.5455 94.3303L90.5097 94.2458C90.3067 93.7675 90.1691 93.2641 90.1004 92.7491L89.9331 91.4937L89.8468 89.7695C89.8441 89.7153 89.8466 89.661 89.8543 89.6073L89.8785 89.4382C89.9116 89.2062 90.0794 89.0162 90.3054 88.9545C90.3872 88.9322 90.4729 88.9279 90.5566 88.9418L90.9978 89.0153C91.3379 89.072 91.6635 89.1953 91.9559 89.3781C92.1414 89.494 92.3117 89.6327 92.4627 89.7909L92.7583 90.1005C93.0408 90.3966 93.2925 90.7206 93.5094 91.0677L93.9803 91.8211C94.3513 92.4146 94.6795 93.0339 94.9624 93.6741L95.3952 94.6536Z" fill="#390977"/>
<path d="M90.7456 95.9626L90.17 96.2092C89.5034 96.495 88.8773 96.8674 88.308 97.3168L87.7413 96.7169C87.6091 96.5768 87.509 96.4096 87.4481 96.2269C87.4195 96.1412 87.3998 96.0528 87.3893 95.9631L87.3148 95.3306L87.1343 93.5249V93.2675C87.1343 92.8083 87.1796 92.3502 87.2697 91.8998L87.2899 91.8353C87.4264 91.3985 87.6167 90.9805 87.8565 90.5907L88.5645 89.6075C88.634 89.5109 88.7133 89.4217 88.8011 89.3412L88.8099 89.3332C89.0707 89.0941 89.3994 88.9421 89.7505 88.8982C89.8718 88.883 89.9945 88.881 90.1163 88.892L90.4296 88.9205L90.2579 89.0064C90.1344 89.0681 90.0319 89.165 89.9634 89.2849C89.9137 89.372 89.8832 89.4687 89.8741 89.5686L89.8545 89.7842C89.8467 89.8704 89.8455 89.957 89.8509 90.0433L89.8879 90.6359L89.933 91.4033L90.0233 92.261L90.0773 92.6209C90.1315 92.9822 90.2168 93.3381 90.3324 93.6846C90.4272 93.969 90.542 94.2464 90.6761 94.5145L90.6893 94.5409C90.847 94.8562 91.0291 95.1587 91.234 95.4456L91.3776 95.6466L90.7456 95.9626Z" fill="#650CA2"/>
<path d="M89.4798 98.581L88.3062 97.317L88.9381 96.8205L89.525 96.4593L90.2021 96.1433L90.3234 96.0827C90.6634 95.9127 91.0151 95.767 91.3758 95.6468L91.8272 96.1433C92.0676 96.3537 92.3244 96.5444 92.5952 96.7137L92.9106 96.9108L93.4523 97.2267L90.6986 99.6644L89.4798 98.581Z" fill="#59109D"/>
<path d="M122.887 92.3063L122.76 92.581C122.298 93.5861 121.843 94.6347 121.397 95.6467L126.543 99.7546L127.897 98.4004L129.18 97.1892C129.404 96.9772 129.569 96.7099 129.658 96.4141C129.838 95.6331 129.953 94.838 129.996 94.0376C130.009 93.7879 130.019 93.5991 130.019 93.5702C130.019 93.498 129.959 92.6975 129.929 92.3063C129.914 92.1257 129.884 91.8549 129.838 91.7194C129.83 91.6936 129.77 91.5027 129.701 91.296C129.593 90.9745 129.405 90.6898 129.175 90.4406C129.046 90.3003 128.929 90.149 128.826 89.9884L128.75 89.8703C128.633 89.6894 128.493 89.5249 128.334 89.381L128.286 89.3381C128.178 89.2407 128.057 89.1553 127.929 89.0856C127.731 88.9776 127.512 88.9054 127.289 88.8756C127.064 88.8457 126.837 88.8575 126.617 88.9102L126.054 89.0452C125.899 89.0825 125.747 89.1329 125.6 89.1958C125.328 89.3126 125.075 89.4715 124.852 89.6668L124.739 89.7658C124.558 89.9243 124.392 90.0997 124.244 90.2896L123.835 90.8166L122.887 92.3063Z" fill="#390977"/>
<path d="M128.98 90.1846C129.311 89.2216 129.792 87.6567 129.882 87.3858L130.018 86.9796L130.244 87.2955L130.65 88.0629L131.056 89.1915L131.462 90.5006L131.688 91.7194L131.725 92.2576C131.761 92.7704 131.748 93.2854 131.688 93.7959L131.462 94.7439L131.146 95.8273L130.74 96.8204L130.153 98.0844L129.566 99.2129L129.446 99.3933C129.046 99.9938 128.587 100.553 128.077 101.064L126.542 99.7997L127.851 98.4455L128.754 97.6329L129.1 97.3097C129.318 97.1065 129.487 96.8565 129.593 96.5786C129.636 96.4692 129.668 96.3562 129.69 96.241L129.837 95.4661L129.866 95.2744C129.967 94.5906 130.018 93.9003 130.018 93.2091L129.928 92.2611L129.854 91.7967C129.813 91.5361 129.732 91.2833 129.614 91.0473C129.522 90.864 129.409 90.6924 129.277 90.536L128.98 90.1846Z" fill="#8013BC"/>
<path d="M129.024 97.3168C128.091 96.7751 126.189 95.6556 126.045 95.5112L126.722 94.1569L127.002 93.3419C127.146 92.9231 127.251 92.4919 127.315 92.0538L127.391 91.538C127.426 91.2986 127.432 91.0558 127.408 90.8151L127.365 90.3903C127.358 90.3139 127.336 90.2396 127.302 90.1709C127.247 90.0619 127.163 89.971 127.058 89.9092L126.725 89.7139C126.544 89.607 126.346 89.5306 126.14 89.4876L125.368 89.3268L125.736 89.1749C126.001 89.0658 126.277 88.9857 126.56 88.9359L126.75 88.9022C126.852 88.8843 126.954 88.8754 127.057 88.8754C127.312 88.8754 127.564 88.9307 127.796 89.0377L127.816 89.0468C127.959 89.1128 128.093 89.1967 128.215 89.2964L128.267 89.3392C128.44 89.4807 128.592 89.6457 128.719 89.8294L128.934 90.1393L129.132 90.357C129.3 90.542 129.442 90.7493 129.554 90.973C129.652 91.1689 129.726 91.3758 129.774 91.5893L129.927 92.261L129.94 92.3951C130.021 93.2364 130.017 94.0839 129.927 94.9243L129.701 96.1883L129.657 96.3309C129.538 96.7103 129.32 97.0509 129.024 97.3168Z" fill="#650CA2"/>
<path d="M125.233 96.5042L125.753 95.9838C125.886 95.851 125.986 95.6892 126.045 95.511L129.07 97.3167L127.941 98.355L126.542 99.7995L123.924 97.6778L124.285 97.407L125.233 96.5042Z" fill="#59109D"/>
<path d="M114.128 90.9971L116.295 91.3131L115.933 91.6742L112.367 96.0078L110.2 95.7821L108.44 95.5112L108.621 90.5457H110.155L112.142 90.7262L114.128 90.9971Z" fill="#EF5DFC"/>
<path d="M108.486 95.3757L104.829 95.9625L101.398 91.8095L101.489 91.3581L104.197 90.9518L107.222 90.681L108.305 90.7713L108.486 95.3757Z" fill="#FF7EFF"/>
<path d="M107.041 95.827L108.44 95.511L110.517 95.827L112.368 96.0076L108.576 105.307L104.919 96.143L107.041 95.827Z" fill="#E751FA"/>
<path d="M98.0581 94.4277L100.676 91.7644L101.399 91.8095L104.965 96.098L104.829 96.3237L98.329 94.6986L98.0581 94.4277Z" fill="#F05EFF"/>
<path d="M119.726 95.4661L119.591 94.9244L112.368 96.0078L112.323 96.0981L115.483 102.102L116.792 101.651L119.726 95.4661Z" fill="#D13EEE"/>
<path d="M101.759 102.734C102.812 100.687 104.883 96.2424 104.919 96.0979L107.628 102.734L108.44 105.262L104.423 109.053L101.579 104.449L101.759 102.734Z" fill="#F460FF"/>
<path d="M124.918 105.307L121.216 101.334L119.726 95.4661L119.591 94.9244L119.817 94.7889L122.751 97.2266L126.046 100.116L124.918 105.307Z" fill="#901FC9"/>
<path d="M124.918 105.307L126.001 100.251L126.047 100.161L127.988 102.147L132.321 111.401V111.581L124.918 105.307Z" fill="#751BB8"/>
<path opacity="0.35" d="M89.5271 101.696L91.0167 100.206L91.1973 100.071L92.1001 105.126L84.9678 111.491L89.3465 102.012L89.5271 101.696Z" fill="#AB31DA"/>
<path opacity="0.8" d="M96.0269 101.334L97.6971 95.6465L97.5166 94.9694L96.0721 95.9174L94.9435 96.8202L93.0476 98.4002L91.1968 100.07L92.0996 105.262L96.0269 101.334Z" fill="#C037E5"/>
<path d="M106.725 106.932L108.576 105.126L108.396 109.144L106.59 110.182L104.107 111.807L103.34 109.866L105.236 108.286L106.725 106.932Z" fill="#9E27CE"/>
<path d="M108.441 120.384V114.786L104.107 120.745V121.377L105.777 120.79L106.906 120.519L108.441 120.384Z" fill="#ED5FFF"/>
<path opacity="0.5" d="M132.319 111.582L125.819 113.478L124.826 105.172L132.319 111.582Z" fill="#731FB5"/>
<path d="M93.724 107.022L92.5548 105.619C92.4317 105.472 92.2941 105.337 92.144 105.217L93.5434 105.623L96.6582 106.616L97.5159 106.932L100.585 108.286L102.03 109.054L103.384 109.776L104.107 111.807L103.384 112.259L102.618 112.848C102.349 113.055 102.044 113.214 101.719 113.315C101.566 113.363 101.408 113.398 101.248 113.42L100.495 113.523H99.8866C99.5119 113.523 99.1392 113.468 98.7803 113.36L98.7296 113.345C98.5228 113.283 98.3226 113.201 98.1318 113.1C97.8136 112.932 97.525 112.712 97.2774 112.451L97.1034 112.267C96.9273 112.081 96.7661 111.882 96.6214 111.67L96.5587 111.579C96.3546 111.28 96.1767 110.965 96.0271 110.636L95.8005 110.137L95.0331 108.783L93.724 107.022Z" fill="#390977"/>
<g filter="url(#filter1_f_320_862)">
<path d="M97.832 108.286L96.8389 108.106L97.0646 109.144L97.2561 109.773C97.3387 110.045 97.4567 110.304 97.6071 110.545L97.6235 110.571C97.7619 110.792 97.9286 110.995 98.1195 111.173L98.1315 111.184C98.3813 111.417 98.6702 111.604 98.9851 111.737C99.2383 111.844 99.5053 111.914 99.7782 111.945C100.152 111.987 100.56 112.033 100.586 112.033C100.602 112.033 100.763 112.007 100.965 111.973C101.434 111.894 101.895 111.777 102.346 111.627L102.12 111.311L101.661 110.557C101.546 110.368 101.416 110.189 101.271 110.021C101.026 109.739 100.742 109.492 100.428 109.289L100.134 109.099L99.9125 108.992C99.2502 108.673 98.5516 108.436 97.832 108.286Z" fill="#FF79FC"/>
</g>
<path d="M97.832 108.286L96.8389 108.106L97.0646 109.144L97.2561 109.773C97.3387 110.045 97.4567 110.304 97.6071 110.545L97.6235 110.571C97.7619 110.792 97.9286 110.995 98.1195 111.173L98.1315 111.184C98.3813 111.417 98.6702 111.604 98.9851 111.737C99.2383 111.844 99.5053 111.914 99.7782 111.945C100.152 111.987 100.56 112.033 100.586 112.033C100.602 112.033 100.763 112.007 100.965 111.973C101.434 111.894 101.895 111.777 102.346 111.627L102.12 111.311L101.661 110.557C101.546 110.368 101.416 110.189 101.271 110.021C101.026 109.739 100.742 109.492 100.428 109.289L100.134 109.099L99.9125 108.992C99.2502 108.673 98.5516 108.436 97.832 108.286Z" fill="url(#paint1_radial_320_862)"/>
<g filter="url(#filter2_f_320_862)">
<path d="M118.129 108.618L118.507 108.467L119.049 108.286L120.403 108.015L120.365 108.22C120.24 108.894 120.041 109.552 119.771 110.182L119.556 110.552C119.37 110.874 119.121 111.155 118.824 111.378C118.643 111.513 118.447 111.626 118.239 111.713L118.186 111.736C117.86 111.873 117.515 111.955 117.163 111.981L116.842 112.003C116.569 112.023 116.294 112.008 116.024 111.959L115.955 111.946C115.613 111.884 115.284 111.761 114.986 111.581L115.257 111.175L115.349 111.001C115.557 110.607 115.815 110.241 116.114 109.911L116.405 109.662C116.632 109.467 116.873 109.289 117.126 109.13C117.444 108.929 117.78 108.758 118.129 108.618Z" fill="#FF79FC"/>
</g>
<path d="M118.129 108.618L118.507 108.467L119.049 108.286L120.403 108.015L120.365 108.22C120.24 108.894 120.041 109.552 119.771 110.182L119.556 110.552C119.37 110.874 119.121 111.155 118.824 111.378C118.643 111.513 118.447 111.626 118.239 111.713L118.186 111.736C117.86 111.873 117.515 111.955 117.163 111.981L116.842 112.003C116.569 112.023 116.294 112.008 116.024 111.959L115.955 111.946C115.613 111.884 115.284 111.761 114.986 111.581L115.257 111.175L115.349 111.001C115.557 110.607 115.815 110.241 116.114 109.911L116.405 109.662C116.632 109.467 116.873 109.289 117.126 109.13C117.444 108.929 117.78 108.758 118.129 108.618Z" fill="url(#paint2_radial_320_862)"/>
<path d="M95.5747 109.776C94.2957 111.01 91.7016 113.505 91.5571 113.613L91.9634 106.074L92.0988 105.172L92.4148 105.442L92.8211 105.894L93.5434 106.797L95.033 108.783L95.5747 109.776Z" fill="#8722C0"/>
<path d="M125.82 113.478L124.872 105.262L123.292 107.383L121.622 109.821L125.82 113.478Z" fill="#751FB6"/>
<path d="M84.9678 112.168V111.491L91.5133 113.568L93.2738 119.978L92.1001 120.745L84.9678 112.168Z" fill="#721CB1"/>
<path d="M97.7415 117.585L91.5571 113.613L95.5747 109.731L95.7101 109.956L96.1616 110.904C96.3118 111.205 96.4871 111.492 96.6857 111.763L96.8838 112.033L97.1041 112.273C97.2878 112.474 97.4919 112.654 97.713 112.812L97.7401 112.832C97.9212 112.961 98.1141 113.073 98.3161 113.166C98.5045 113.253 98.7001 113.323 98.9007 113.376L98.9459 113.388C99.2851 113.477 99.6345 113.523 99.9853 113.523H100.315L101.263 113.432L101.94 113.297L101.127 114.832L97.7415 117.585Z" fill="#AB2DD7"/>
<path d="M125.776 113.433L119.591 117.676L116.115 115.193L114.806 112.981L116.216 113.389C116.419 113.448 116.627 113.49 116.838 113.515C117.138 113.55 117.44 113.55 117.74 113.515L117.753 113.513C117.955 113.49 118.155 113.45 118.35 113.394L118.406 113.378C118.594 113.324 118.776 113.253 118.951 113.166C119.256 113.013 119.533 112.813 119.774 112.573L120.043 112.304L120.494 111.762C120.824 111.312 121.111 110.831 121.35 110.326L121.397 110.227L121.668 109.776L125.776 113.433Z" fill="#8E22C6"/>
<path d="M103.385 112.259L104.107 111.807V121.197L102.888 124.582L101.444 126.117L99.3223 122.506L100.677 117.811L101.805 114.967L103.385 112.259Z" fill="#B533DE"/>
<path d="M114.263 124.447L113 121.287L113.135 117.856L113.045 111.717L114.083 112.529L115.753 116.005L116.34 117.585L117.92 122.461L115.934 126.162L114.263 124.447Z" fill="#801EBF"/>
<path d="M105.957 120.971L107.898 120.61H108.485L109.297 120.655L111.329 121.016L112.592 121.332L113.134 121.603L113.495 122.099L113.902 123.499L114.082 124.311V124.627L112.818 125.891L111.013 127.471L108.981 128.916H108.304L105.596 126.93L104.106 125.666L103.113 124.537L103.519 122.912L103.835 121.964L104.061 121.603L104.512 121.332L105.957 120.971Z" fill="#530C86"/>
<path d="M98.7795 121.377L97.7864 117.63L91.5117 113.568L93.2271 119.978L92.0986 120.745L97.019 126.659L98.1475 125.937V125.079L98.2829 123.95L98.4184 122.596L98.7795 121.377Z" fill="#6318A8"/>
<path d="M98.7814 121.422L101.129 114.832L97.7432 117.585L98.7814 121.422Z" fill="#8D22C5"/>
<path d="M124.195 119.888L125.82 113.432L119.545 117.721L118.507 121.603C118.807 122.413 119.016 123.254 119.13 124.11L119.229 124.853L119.41 126.388L120.177 126.523L125.504 120.565L124.195 119.888Z" fill="#54159A"/>
<path d="M118.551 121.693L116.113 115.193L119.544 117.676L118.551 121.693Z" fill="#6E1AB0"/>
<path d="M98.9606 124.266L99.3218 122.506L101.443 126.117L101.353 130.631L100.134 129.187L98.8252 127.517V127.065V125.711L98.9606 124.266Z" fill="#8423BE"/>
<path d="M116.159 130.36L115.978 126.162L117.919 122.461L118 122.749C118.306 123.846 118.461 124.979 118.461 126.117L118.385 127.066C118.375 127.185 118.351 127.303 118.314 127.416C118.262 127.572 118.184 127.718 118.084 127.849L116.159 130.36Z" fill="#6418AB"/>
<path d="M101.444 126.298L103.024 124.627L103.114 124.537L104.107 125.666L104.784 126.253L105.461 126.794L106.003 127.246L108.26 128.871L108.275 128.908C108.325 129.032 108.35 129.165 108.35 129.3C108.35 129.434 108.325 129.567 108.275 129.691L108.26 129.728L107.493 130.044L103.927 131.263L103.295 131.453C103.117 131.506 102.928 131.517 102.745 131.483C102.601 131.457 102.463 131.404 102.338 131.328L101.94 131.083L101.354 130.676L101.444 126.298Z" fill="#6E1CAF"/>
<path d="M108.982 129.773L108.945 129.399C108.94 129.348 108.94 129.297 108.947 129.246C108.969 129.064 109.064 128.898 109.21 128.787L109.93 128.239L110.878 127.562L111.284 127.246L111.826 126.749L112.819 125.891L114.083 124.627L114.128 124.447L115.979 126.298L116.16 130.36L115.302 131.128L114.67 131.534L114.264 131.579L113.722 131.489L110.201 130.225L108.982 129.774L108.982 129.773Z" fill="#5815A0"/>
<path d="M105.552 131.534L107.899 130.857L108.667 130.812L109.208 130.857L113.858 132.482L112.82 134.423L108.712 135.822L104.378 134.423L103.43 132.301L105.552 131.534Z" fill="#5916A1"/>
<path opacity="0.8" d="M125.505 120.61L132.276 112.349L132.321 111.942V111.581L125.821 113.477L124.15 119.933L125.505 120.61Z" fill="#48128B"/>
<path d="M129.974 122.551L125.776 120.7L125.505 120.61L132.276 112.349C132.258 112.596 132.203 112.779 132.186 113.026L130.335 121.964C130.245 122.28 130.019 122.506 129.974 122.551Z" fill="#4F1293"/>
<path opacity="0.8" d="M124.466 124.898L125.052 124.695C126.132 124.32 127.255 124.085 128.393 123.995L129.973 122.551L125.459 120.565L124.963 121.152L121.848 124.627L120.178 126.523L120.268 126.794L122.525 125.801L124.466 124.898Z" fill="#4B1392"/>
<path d="M120.222 126.569L119.409 126.388L118.868 127.787L118.416 128.69L117.559 130.044L116.791 131.263L115.663 132.618L114.173 134.468L113.812 135.055L109.59 136.55C109.516 136.577 109.444 136.61 109.375 136.649C109.234 136.729 109.08 136.783 108.92 136.808L108.575 136.861L108.44 139.389C109.124 139.27 109.773 139.003 110.343 138.606L110.516 138.486L112.864 136.996C113.315 136.726 113.746 136.423 114.153 136.091L115.482 135.01L117.784 133.159L119.184 132.121L120.132 131.263L120.357 130.315C120.477 129.656 120.507 128.984 120.446 128.317L120.357 127.336L120.222 126.569Z" fill="#48128B"/>
<path d="M95.8009 126.433L89.2554 124.356L91.0159 125.936L93.589 128.239L95.53 129.954L98.1482 132.121L95.8009 126.433Z" fill="#59179F"/>
<path opacity="0.7" d="M126.678 125.53L128.394 123.996L127.265 124.086C126.303 124.296 125.359 124.578 124.439 124.928L123.925 125.124L120.268 126.749L120.449 128.194V128.473C120.449 129.397 120.343 130.318 120.133 131.218L121.803 129.774L123.067 128.69L126.678 125.53Z" fill="#501498"/>
<path d="M97.0196 126.794L89.2102 124.402L87.3594 122.686L92.1444 120.745L97.0196 126.659V126.794Z" fill="#48128B"/>
<path opacity="0.5" d="M108.441 139.389L108.577 136.861L108.125 136.77L106.004 136.003L103.927 135.281L102.889 134.197L101.851 132.888L101.354 132.346L100.903 131.85L100.361 131.128L99.5485 129.909L98.3297 128.148L98.1491 126.839V125.936L97.0206 126.659V126.794L95.8018 126.433L98.104 132.166L102.302 135.371L104.649 137.177L105.236 137.628L105.913 138.034L106.905 138.66C107.386 138.964 107.902 139.209 108.441 139.389Z" fill="#500E96"/>
<path d="M111.833 124.804L110.969 124.718H110.689C110.635 124.718 110.582 124.728 110.532 124.748C110.435 124.787 110.356 124.859 110.31 124.952L110.292 124.987C110.262 125.048 110.244 125.114 110.238 125.182L110.201 125.666V126.388C110.201 126.442 110.236 126.49 110.287 126.507C110.319 126.517 110.353 126.515 110.383 126.5L110.552 126.416C110.589 126.397 110.624 126.375 110.656 126.349L111.653 125.552C111.708 125.507 111.76 125.459 111.807 125.406L112.111 125.069C112.131 125.046 112.142 125.017 112.142 124.987C112.142 124.934 112.108 124.887 112.058 124.87L111.908 124.82C111.884 124.812 111.859 124.807 111.833 124.804Z" fill="#390977"/>
<path opacity="0.5" d="M104.144 122.628L104.108 123.436C104.107 123.446 104.115 123.455 104.125 123.456C104.591 123.514 105.065 123.529 105.535 123.499L106.951 123.409L108.621 123.183L110.562 123.454H112.943C113.046 123.454 113.126 123.365 113.115 123.262L113.062 122.76C113.051 122.651 113.026 122.544 112.987 122.442C112.852 122.082 112.564 121.802 112.2 121.677L111.648 121.487C111.436 121.414 111.217 121.37 110.994 121.355L109.646 121.265C108.964 121.22 108.279 121.229 107.599 121.294L105.777 121.468L105.135 121.564C104.963 121.59 104.799 121.653 104.655 121.749L104.633 121.764C104.438 121.894 104.289 122.083 104.209 122.303C104.171 122.408 104.15 122.517 104.144 122.628Z" fill="#7E10B1"/>
<path opacity="0.2" d="M108.666 123.138L108.628 122.117C108.624 121.993 108.557 121.881 108.452 121.817C108.414 121.795 108.374 121.779 108.331 121.771L108.048 121.718C107.8 121.672 107.546 121.674 107.299 121.723L106.996 121.784L105.867 122.009L105.1 122.1H104.964C104.817 122.1 104.672 122.14 104.546 122.216C104.379 122.315 104.254 122.472 104.192 122.656L104.187 122.672C104.164 122.742 104.15 122.814 104.145 122.887L104.108 123.433C104.108 123.444 104.116 123.454 104.128 123.455L105.1 123.499L106.996 123.409L108.079 123.273L108.666 123.138Z" fill="url(#paint3_linear_320_862)"/>
<path d="M106.32 124.763L105.457 124.841C105.377 124.849 105.308 124.9 105.278 124.975C105.252 125.04 105.26 125.114 105.299 125.172L105.305 125.181C105.319 125.203 105.337 125.222 105.358 125.238L106.816 126.343L107.166 126.553C107.223 126.587 107.297 126.57 107.334 126.515C107.349 126.491 107.357 126.463 107.354 126.435L107.275 125.522C107.27 125.467 107.261 125.413 107.248 125.36L107.181 125.092C107.15 124.969 107.067 124.866 106.953 124.809C106.893 124.779 106.826 124.763 106.759 124.763H106.32Z" fill="#390977"/>
<defs>
<filter id="filter0_f_320_862" x="0" y="0" width="217.223" height="224.28" filterUnits="userSpaceOnUse" color-interpolation-filters="sRGB">
<feFlood flood-opacity="0" result="BackgroundImageFix"/>
<feBlend mode="normal" in="SourceGraphic" in2="BackgroundImageFix" result="shape"/>
<feGaussianBlur stdDeviation="42" result="effect1_foregroundBlur_320_862"/>
</filter>
<filter id="filter1_f_320_862" x="88.8389" y="100.106" width="21.5073" height="19.9273" filterUnits="userSpaceOnUse" color-interpolation-filters="sRGB">
<feFlood flood-opacity="0" result="BackgroundImageFix"/>
<feBlend mode="normal" in="SourceGraphic" in2="BackgroundImageFix" result="shape"/>
<feGaussianBlur stdDeviation="4" result="effect1_foregroundBlur_320_862"/>
</filter>
<filter id="filter2_f_320_862" x="106.986" y="100.015" width="21.417" height="19.9965" filterUnits="userSpaceOnUse" color-interpolation-filters="sRGB">
<feFlood flood-opacity="0" result="BackgroundImageFix"/>
<feBlend mode="normal" in="SourceGraphic" in2="BackgroundImageFix" result="shape"/>
<feGaussianBlur stdDeviation="4" result="effect1_foregroundBlur_320_862"/>
</filter>
<linearGradient id="paint0_linear_320_862" x1="103.656" y1="96.8655" x2="121.532" y2="147.785" gradientUnits="userSpaceOnUse">
<stop stop-color="#FF79FC"/>
<stop offset="0.568611" stop-color="#A42DD5"/>
</linearGradient>
<radialGradient id="paint1_radial_320_862" cx="0" cy="0" r="1" gradientUnits="userSpaceOnUse" gradientTransform="translate(99.5925 110.047) rotate(119.055) scale(1.39428 1.9552)">
<stop stop-color="#FFC4FE"/>
<stop offset="1" stop-color="#FE78FC"/>
</radialGradient>
<radialGradient id="paint2_radial_320_862" cx="0" cy="0" r="1" gradientUnits="userSpaceOnUse" gradientTransform="translate(117.739 110.363) rotate(64.2307) scale(1.45367 1.96)">
<stop stop-color="#FFC4FE"/>
<stop offset="1" stop-color="#FE78FC"/>
</radialGradient>
<linearGradient id="paint3_linear_320_862" x1="105.416" y1="122.867" x2="108.26" y2="122.551" gradientUnits="userSpaceOnUse">
<stop stop-color="#A125D1"/>
<stop offset="1" stop-color="white" stop-opacity="0"/>
</linearGradient>
</defs>
</svg>
