<svg width="190" height="187" viewBox="0 0 190 187" fill="none" xmlns="http://www.w3.org/2000/svg">
<g filter="url(#filter0_f_320_940)">
<path d="M86.1601 75.2854L93.5633 73.4346L94.2447 73.2552C94.362 73.2244 94.4816 73.2033 94.6024 73.1924C94.8114 73.1734 95.022 73.1846 95.2277 73.2258L95.3689 73.254L97.31 73.7506L103.133 75.1499L104.731 75.5595C104.839 75.5874 104.945 75.6247 105.047 75.6711C105.274 75.7741 105.478 75.9203 105.649 76.1016L106.113 76.5945L106.564 77.1813L109.002 76.775L111.981 76.3236L115.186 75.5562L116.527 75.1905C116.626 75.1636 116.721 75.1243 116.809 75.0735C116.93 75.0046 117.038 74.9155 117.128 74.81L117.804 74.0214L118.249 73.3866C118.372 73.21 118.456 73.0088 118.495 72.7967C118.516 72.6806 118.523 72.5625 118.516 72.4448L118.391 70.2295L118.03 66.5279L117.86 64.7041C117.853 64.6265 117.859 64.5482 117.878 64.4725L117.889 64.4271C117.922 64.2971 118 64.1829 118.109 64.105C118.204 64.0367 118.319 64 118.436 64H118.48C118.599 64 118.717 64.0304 118.821 64.0882L118.908 64.1369C119.014 64.1957 119.109 64.2717 119.19 64.3618L120.242 65.5348L121.822 67.4308L124.801 71.5386L125.539 72.727C125.588 72.8069 125.623 72.8949 125.642 72.987C125.653 73.0444 125.658 73.103 125.657 73.1615L125.614 74.7888L125.343 77.091L125.072 78.7161L124.575 80.8378L124.173 82.0826C124.11 82.2755 124.031 82.4624 123.934 82.6409L123.832 82.8319C123.786 82.9167 123.731 82.9963 123.669 83.0694C123.552 83.2053 123.41 83.3167 123.249 83.3968L122.77 83.6365L118.21 86.029L115.999 87.293L116.947 87.5638C118.57 88.1049 120.152 88.7604 121.682 89.5255L121.732 89.5501L124.311 90.883C124.395 90.9264 124.465 90.9931 124.512 91.0752C124.581 91.1963 124.595 91.341 124.551 91.4733L124.483 91.6785C124.454 91.7638 124.414 91.8448 124.364 91.9192L124.035 92.4006C123.854 92.6664 123.648 92.9148 123.421 93.1423L122.95 93.6128L120.603 95.5539C119.552 96.2745 118.431 96.8955 117.263 97.4047L116.358 97.744C116.24 97.7883 116.115 97.8109 115.989 97.8109C115.876 97.8109 115.763 97.7927 115.656 97.757L115.547 97.7207L113.11 96.5921L112.297 96.1859L113.11 100.158L113.425 102.009L113.49 102.494C113.507 102.621 113.498 102.75 113.463 102.872C113.438 102.959 113.401 103.041 113.353 103.116L113.217 103.33C113.145 103.442 113.066 103.549 112.978 103.65L109.769 107.336L106.925 110.721L105.481 112.392V113.791L105.455 114.549C105.442 114.942 105.344 115.327 105.169 115.679C105.046 115.924 104.888 116.149 104.698 116.346L103.946 117.131L103.254 117.698C102.723 118.132 102.154 118.517 101.553 118.847L100.334 120.201C99.9461 120.619 99.4894 120.969 98.984 121.234L97.942 121.781L95.7738 122.782C95.6546 122.837 95.5309 122.882 95.4042 122.916L95.309 122.942C95.169 122.981 95.0245 123 94.8794 123C94.6661 123 94.4549 122.958 94.2577 122.877L92.2542 122.052L90.7147 121.282C90.5375 121.194 90.368 121.091 90.2078 120.974C90.0375 120.85 89.8785 120.712 89.7325 120.56L88.7783 119.569L88.372 119.118C88.1617 118.937 87.9366 118.775 87.6991 118.633L87.6046 118.576L86.476 117.73C86.1454 117.482 85.8328 117.211 85.5406 116.918L85.1499 116.528C84.9213 116.299 84.7206 116.044 84.5521 115.768L84.3707 115.471C84.3299 115.405 84.2968 115.333 84.272 115.259C84.2369 115.154 84.219 115.043 84.219 114.932V112.482L80.6077 108.239L77.5832 104.672L76.7255 103.724L76.4333 103.302C76.3576 103.193 76.2979 103.074 76.2558 102.947L76.2464 102.919C76.2049 102.795 76.1838 102.665 76.1838 102.534C76.1838 102.455 76.1914 102.377 76.2065 102.299L76.9963 98.2624L77.4026 96.3213C77.3455 96.2927 77.2786 96.2915 77.2204 96.3179L74.333 97.6304L74.1481 97.6976C73.9446 97.7716 73.7241 97.786 73.5127 97.739C73.4578 97.7268 73.4038 97.7105 73.3512 97.6903L72.398 97.3237C71.5232 96.9872 70.6821 96.5688 69.8861 96.0739L69.4126 95.7796L68.0705 94.7114C67.4915 94.2506 66.9495 93.7451 66.4494 93.1995L65.8961 92.5959C65.7729 92.4615 65.6602 92.3178 65.559 92.166L65.229 91.6711C65.1896 91.6119 65.1621 91.5455 65.1482 91.4758L65.1394 91.432C65.1294 91.3818 65.1306 91.3299 65.143 91.2803C65.1601 91.2118 65.1977 91.1503 65.2508 91.1038L65.4337 90.9438C65.498 90.8875 65.5684 90.8388 65.6437 90.7986L68.1486 89.4598C69.5006 88.7687 70.9065 88.1885 72.3523 87.7247L72.5725 87.6541L73.6038 87.3653C73.6657 87.348 73.7174 87.3053 73.7462 87.2478L69.864 85.1262L66.6138 83.5011L66.3583 83.3521C66.1698 83.2421 66.0073 83.0925 65.8821 82.9137C65.7986 82.7943 65.7327 82.6635 65.6866 82.5253L65.1241 80.8378L64.7179 79.2578L64.1762 75.8271L64.0859 74.7888L64.0014 73.352C63.9975 73.2869 64.0021 73.2217 64.0149 73.1577C64.032 73.0721 64.0637 72.99 64.1087 72.9151L64.447 72.3512L67.0201 68.5593L69.548 65.4897L70.6184 64.34C70.716 64.2351 70.8366 64.1544 70.9708 64.1041L71.025 64.0838C71.0931 64.0582 71.1652 64.0451 71.2379 64.0451H71.2882C71.4168 64.0451 71.5402 64.0962 71.6311 64.1872C71.7142 64.2702 71.7642 64.3806 71.7721 64.4978L71.797 64.8714C71.8024 64.9524 71.8011 65.0337 71.7932 65.1145L71.5794 67.2953L71.2634 70.7712L71.1731 72.938L71.9856 74.1117L72.3356 74.4985C72.668 74.8659 73.0927 75.1376 73.5656 75.2854L75.7775 75.8722L78.7569 76.5493L83.0453 77.1813L83.8487 76.3779C83.9749 76.2517 84.1119 76.1367 84.2582 76.0344C84.4123 75.9265 84.576 75.833 84.7473 75.7552L84.9864 75.6465L86.1601 75.2854Z" fill="#992F00"/>
</g>
<path d="M86.1601 75.2854L93.5633 73.4346L94.2447 73.2552C94.362 73.2244 94.4816 73.2033 94.6024 73.1924C94.8114 73.1734 95.022 73.1846 95.2277 73.2258L95.3689 73.254L97.31 73.7506L103.133 75.1499L104.731 75.5595C104.839 75.5874 104.945 75.6247 105.047 75.6711C105.274 75.7741 105.478 75.9203 105.649 76.1016L106.113 76.5945L106.564 77.1813L109.002 76.775L111.981 76.3236L115.186 75.5562L116.527 75.1905C116.626 75.1636 116.721 75.1243 116.809 75.0735C116.93 75.0046 117.038 74.9155 117.128 74.81L117.804 74.0214L118.249 73.3866C118.372 73.21 118.456 73.0088 118.495 72.7967C118.516 72.6806 118.523 72.5625 118.516 72.4448L118.391 70.2295L118.03 66.5279L117.86 64.7041C117.853 64.6265 117.859 64.5482 117.878 64.4725L117.889 64.4271C117.922 64.2971 118 64.1829 118.109 64.105C118.204 64.0367 118.319 64 118.436 64H118.48C118.599 64 118.717 64.0304 118.821 64.0882L118.908 64.1369C119.014 64.1957 119.109 64.2717 119.19 64.3618L120.242 65.5348L121.822 67.4308L124.801 71.5386L125.539 72.727C125.588 72.8069 125.623 72.8949 125.642 72.987C125.653 73.0444 125.658 73.103 125.657 73.1615L125.614 74.7888L125.343 77.091L125.072 78.7161L124.575 80.8378L124.173 82.0826C124.11 82.2755 124.031 82.4624 123.934 82.6409L123.832 82.8319C123.786 82.9167 123.731 82.9963 123.669 83.0694C123.552 83.2053 123.41 83.3167 123.249 83.3968L122.77 83.6365L118.21 86.029L115.999 87.293L116.947 87.5638C118.57 88.1049 120.152 88.7604 121.682 89.5255L121.732 89.5501L124.311 90.883C124.395 90.9264 124.465 90.9931 124.512 91.0752C124.581 91.1963 124.595 91.341 124.551 91.4733L124.483 91.6785C124.454 91.7638 124.414 91.8448 124.364 91.9192L124.035 92.4006C123.854 92.6664 123.648 92.9148 123.421 93.1423L122.95 93.6128L120.603 95.5539C119.552 96.2745 118.431 96.8955 117.263 97.4047L116.358 97.744C116.24 97.7883 116.115 97.8109 115.989 97.8109C115.876 97.8109 115.763 97.7927 115.656 97.757L115.547 97.7207L113.11 96.5921L112.297 96.1859L113.11 100.158L113.425 102.009L113.49 102.494C113.507 102.621 113.498 102.75 113.463 102.872C113.438 102.959 113.401 103.041 113.353 103.116L113.217 103.33C113.145 103.442 113.066 103.549 112.978 103.65L109.769 107.336L106.925 110.721L105.481 112.392V113.791L105.455 114.549C105.442 114.942 105.344 115.327 105.169 115.679C105.046 115.924 104.888 116.149 104.698 116.346L103.946 117.131L103.254 117.698C102.723 118.132 102.154 118.517 101.553 118.847L100.334 120.201C99.9461 120.619 99.4894 120.969 98.984 121.234L97.942 121.781L95.7738 122.782C95.6546 122.837 95.5309 122.882 95.4042 122.916L95.309 122.942C95.169 122.981 95.0245 123 94.8794 123C94.6661 123 94.4549 122.958 94.2577 122.877L92.2542 122.052L90.7147 121.282C90.5375 121.194 90.368 121.091 90.2078 120.974C90.0375 120.85 89.8785 120.712 89.7325 120.56L88.7783 119.569L88.372 119.118C88.1617 118.937 87.9366 118.775 87.6991 118.633L87.6046 118.576L86.476 117.73C86.1454 117.482 85.8328 117.211 85.5406 116.918L85.1499 116.528C84.9213 116.299 84.7206 116.044 84.5521 115.768L84.3707 115.471C84.3299 115.405 84.2968 115.333 84.272 115.259C84.2369 115.154 84.219 115.043 84.219 114.932V112.482L80.6077 108.239L77.5832 104.672L76.7255 103.724L76.4333 103.302C76.3576 103.193 76.2979 103.074 76.2558 102.947L76.2464 102.919C76.2049 102.795 76.1838 102.665 76.1838 102.534C76.1838 102.455 76.1914 102.377 76.2065 102.299L76.9963 98.2624L77.4026 96.3213C77.3455 96.2927 77.2786 96.2915 77.2204 96.3179L74.333 97.6304L74.1481 97.6976C73.9446 97.7716 73.7241 97.786 73.5127 97.739C73.4578 97.7268 73.4038 97.7105 73.3512 97.6903L72.398 97.3237C71.5232 96.9872 70.6821 96.5688 69.8861 96.0739L69.4126 95.7796L68.0705 94.7114C67.4915 94.2506 66.9495 93.7451 66.4494 93.1995L65.8961 92.5959C65.7729 92.4615 65.6602 92.3178 65.559 92.166L65.229 91.6711C65.1896 91.6119 65.1621 91.5455 65.1482 91.4758L65.1394 91.432C65.1294 91.3818 65.1306 91.3299 65.143 91.2803C65.1601 91.2118 65.1977 91.1503 65.2508 91.1038L65.4337 90.9438C65.498 90.8875 65.5684 90.8388 65.6437 90.7986L68.1486 89.4598C69.5006 88.7687 70.9065 88.1885 72.3523 87.7247L72.5725 87.6541L73.6038 87.3653C73.6657 87.348 73.7174 87.3053 73.7462 87.2478L69.864 85.1262L66.6138 83.5011L66.3583 83.3521C66.1698 83.2421 66.0073 83.0925 65.8821 82.9137C65.7986 82.7943 65.7327 82.6635 65.6866 82.5253L65.1241 80.8378L64.7179 79.2578L64.1762 75.8271L64.0859 74.7888L64.0014 73.352C63.9975 73.2869 64.0021 73.2217 64.0149 73.1577C64.032 73.0721 64.0637 72.99 64.1087 72.9151L64.447 72.3512L67.0201 68.5593L69.548 65.4897L70.6184 64.34C70.716 64.2351 70.8366 64.1544 70.9708 64.1041L71.025 64.0838C71.0931 64.0582 71.1652 64.0451 71.2379 64.0451H71.2882C71.4168 64.0451 71.5402 64.0962 71.6311 64.1872C71.7142 64.2702 71.7642 64.3806 71.7721 64.4978L71.797 64.8714C71.8024 64.9524 71.8011 65.0337 71.7932 65.1145L71.5794 67.2953L71.2634 70.7712L71.1731 72.938L71.9856 74.1117L72.3356 74.4985C72.668 74.8659 73.0927 75.1376 73.5656 75.2854L75.7775 75.8722L78.7569 76.5493L83.0453 77.1813L83.8487 76.3779C83.9749 76.2517 84.1119 76.1367 84.2582 76.0344C84.4123 75.9265 84.576 75.833 84.7473 75.7552L84.9864 75.6465L86.1601 75.2854Z" fill="#A53700"/>
<path d="M89.1843 75.3756L94.2853 74.0665L94.688 73.9933C94.7505 73.982 94.8138 73.9763 94.8773 73.9763C94.9638 73.9763 95.05 73.9869 95.134 74.0079L95.5493 74.1117L101.869 75.7819L104.532 76.4139C104.802 76.6538 105.042 76.9253 105.247 77.2225L105.842 78.0841L107.06 80.4315L108.46 83.14L109.272 84.7199L110.356 86.7061L110.852 87.7444C110.852 88.1299 110.759 88.5096 110.58 88.8511L110.356 89.2792L110.235 89.5541C110.105 89.8518 109.949 90.1374 109.769 90.4077L109.498 90.498L108.279 90.8592C107.197 91.1596 106.141 91.5439 105.119 92.0085L104.668 92.2134L102.23 93.4774L101.086 94.1639C100.646 94.4279 100.183 94.6514 99.7023 94.8316C99.6467 94.8594 99.5803 94.8545 99.5293 94.8189L98.2578 93.9288L97.6709 93.3871L97.4001 93.6579L98.3481 94.7865L98.6189 95.1927L98.7418 95.377C98.7801 95.4346 98.8241 95.4882 98.873 95.5372C98.944 95.6081 99.0248 95.6686 99.1129 95.7166L99.4766 95.915L99.7298 96.0301C99.8903 96.103 100.034 96.2088 100.151 96.3405C100.272 96.4765 100.362 96.6372 100.415 96.8113L100.563 97.2997C100.621 97.4897 100.663 97.6842 100.689 97.8812L101.192 101.738L101.373 103.634V104.051C101.373 104.372 101.434 104.69 101.553 104.988L102.095 105.936L102.591 106.839L103.121 107.675C103.339 108.019 103.51 108.391 103.63 108.78L104.036 110.676L104.216 112.301L104.262 112.978L104.216 115.642L103.043 116.68L101.643 117.809C101.525 117.809 101.408 117.781 101.301 117.728L101.102 117.628L100.743 117.472C99.5991 116.975 98.4218 116.559 97.2195 116.229L95.9104 115.868L95.1118 115.753C95.0124 115.739 94.912 115.732 94.8116 115.732C94.6717 115.732 94.5323 115.746 94.3952 115.773L93.4728 115.958L91.622 116.454C90.9308 116.635 90.2546 116.868 89.5992 117.152L89.2295 117.312L88.1912 117.854L87.3335 117.222L86.6029 116.637C86.1878 116.305 85.7982 115.942 85.4376 115.552V115.326L85.3925 113.159C85.3925 112.559 85.4518 111.96 85.5695 111.371L85.7987 110.225L85.9342 109.367L86.0135 109.103C86.1408 108.678 86.3109 108.268 86.521 107.877L87.2433 106.704L87.6947 105.756L87.927 105.291C88.0127 105.12 88.0812 104.941 88.1316 104.756C88.1713 104.61 88.1996 104.462 88.2163 104.312L88.4169 102.506L88.5975 101.016L88.8684 99.12L89.0038 97.5852L89.0335 97.1686C89.0437 97.0261 89.0786 96.8865 89.1366 96.756L89.1603 96.7026C89.206 96.5997 89.2703 96.5062 89.3499 96.4265C89.4196 96.3568 89.5001 96.2988 89.5883 96.2547L89.9066 96.0956C90.2326 95.977 90.5245 95.7801 90.7566 95.5223L90.8094 95.4636L91.4414 94.6962L91.8025 94.1093L91.622 93.9288L90.6792 94.7895C90.616 94.8473 90.5435 94.894 90.4648 94.9277L90.4406 94.9381C90.3275 94.9865 90.2033 95.003 90.0816 94.9856C89.9958 94.9733 89.9133 94.9446 89.8385 94.901L88.8684 94.3351L87.1981 93.2968L85.6633 92.4843L83.3611 91.446L80.9686 90.6786L80.1109 90.498C79.9324 90.3493 79.7876 90.1642 79.6862 89.9551L79.1178 88.7827L78.9752 88.4618C78.95 88.405 78.9311 88.3457 78.9189 88.2848C78.9011 88.196 78.8978 88.1049 78.9091 88.015L78.9139 87.9765C78.9293 87.8528 78.9661 87.7327 79.0224 87.6215L80.5623 84.5845L83.8576 78.039L84.4313 77.0603C84.56 76.8409 84.7161 76.6389 84.8959 76.459L85.3473 76.3236L89.1843 75.3756Z" fill="url(#paint0_linear_320_940)"/>
<path d="M94.0604 121.917L91.397 120.653C90.8594 120.354 90.3774 119.964 89.9724 119.502L89.9525 119.479L89.4037 118.825C89.0957 118.457 89.2366 117.896 89.6816 117.718L91.8033 116.951L93.7332 116.478C93.921 116.432 94.1118 116.4 94.3042 116.382C94.7406 116.34 95.1807 116.371 95.6071 116.472L95.9112 116.545L97.762 116.996L100.103 117.857C100.469 117.992 100.607 118.439 100.38 118.757L99.6579 119.659L99.4187 119.899C99.2479 120.069 99.0551 120.217 98.8454 120.337L97.4008 121.104L95.6912 121.928C95.1751 122.177 94.5728 122.173 94.0604 121.917Z" fill="#F0700B"/>
<path d="M78.621 96.5469L79.7495 91.3556L79.8194 91.1459C79.8326 91.1063 79.8586 91.0722 79.8934 91.0491C79.9446 91.0149 80.0094 91.008 80.0666 91.0307L82.3677 91.9425L82.3639 91.9641C82.2765 92.459 82.2561 92.9635 82.303 93.4639C82.346 93.9225 82.4452 94.3741 82.5985 94.8084L82.7977 95.3726C82.8718 95.5827 82.9742 95.7817 83.1019 95.9643C83.1841 96.0816 83.2763 96.1916 83.3776 96.2929L83.4311 96.3463C83.6835 96.5988 83.975 96.8089 84.2944 96.9685L84.3271 96.9849C84.8197 97.2312 85.3629 97.3595 85.9137 97.3595H86.0954C86.4374 97.3595 86.7777 97.3108 87.106 97.2151C87.4955 97.1015 87.863 96.923 88.1932 96.6872L88.5591 96.4258C88.5904 96.4034 88.6333 96.4295 88.6279 96.4677L88.5972 96.6823L88.4618 97.3595L88.3264 98.0817L88.2361 99.2103L88.1007 100.655L87.875 103.002L87.6944 104.402C87.6049 104.849 87.4309 105.275 87.1818 105.657L86.8819 106.117L86.1596 107.11L85.5124 107.795C85.4327 107.88 85.3658 107.975 85.3139 108.079C85.2759 108.155 85.2462 108.235 85.2253 108.317L84.5796 110.857L84.3991 111.444L80.8329 107.065L77.8987 103.77L77.194 102.982C77.1525 102.936 77.1195 102.882 77.0964 102.825C77.0602 102.734 77.0495 102.635 77.0655 102.539L77.0862 102.415L77.357 101.196L78.2147 98.1269L78.3953 97.4949L78.621 96.5469Z" fill="#F48200"/>
<path d="M90.914 118.492L92.0266 118.204C92.9275 117.971 93.8515 117.838 94.7815 117.808L94.8718 122.277H94.7815L93.7433 121.781L91.8473 120.878L91.2154 120.562L90.8091 120.291L90.3137 119.872C90.2529 119.821 90.1976 119.763 90.1487 119.7L89.9941 119.501C89.9372 119.428 89.9062 119.338 89.9062 119.245C89.9062 119.135 89.9502 119.028 90.0285 118.95L90.1201 118.859C90.1875 118.791 90.2675 118.738 90.3556 118.701L90.6209 118.59C90.7161 118.551 90.8141 118.518 90.914 118.492Z" fill="#EB7D02"/>
<path d="M110.491 93.2516L110.014 91.083C110.002 91.0327 109.955 90.9988 109.904 91.0045C109.694 91.0278 109.488 91.0794 109.292 91.1578L109.136 91.2202L107.547 91.8721C107.443 91.915 107.373 92.0148 107.368 92.1278L107.311 93.4734C107.294 93.8656 107.226 94.2596 107.112 94.6352C107.018 94.9428 106.891 95.2441 106.735 95.5252L106.697 95.5936C106.578 95.8073 106.439 96.0089 106.281 96.1955L106.201 96.29C106.082 96.4308 105.948 96.5585 105.802 96.6709C105.559 96.8576 105.285 96.9999 104.993 97.0913L104.556 97.228C104.181 97.345 103.791 97.4046 103.398 97.4046C102.837 97.4046 102.282 97.2827 101.772 97.0474L101.471 96.9088C101.425 96.8873 101.372 96.9212 101.372 96.9723V97.4949L101.507 98.8943L101.823 101.783L101.959 103.092L102.04 103.604C102.076 103.834 102.13 104.062 102.201 104.284C102.34 104.721 102.543 105.135 102.804 105.512L102.817 105.53L103.268 106.343L103.629 106.884L104.487 108.193L104.907 109.784C105.08 110.443 105.944 110.6 106.338 110.044L110.897 104.718L112.657 102.686L111.755 99.12L111.303 97.4046L111.123 96.3663L110.491 93.2516Z" fill="#FF680B"/>
<path d="M79.6155 98.2058L78.4402 97.3596L77.8533 99.4813L77.4922 100.745L77.1762 102.054L77.0971 102.49C77.0897 102.53 77.0859 102.572 77.0859 102.613V102.648C77.0859 102.733 77.1056 102.816 77.1434 102.892C77.1652 102.935 77.1927 102.976 77.2252 103.012L78.7562 104.718L81.4647 107.832L84.3989 111.444L84.6697 110.405L83.7669 107.471L82.3675 103.363L81.8258 101.738L81.3292 100.158C80.9134 99.3861 80.3273 98.7184 79.6155 98.2058Z" fill="url(#paint1_linear_320_940)"/>
<path d="M80.5156 91.4225L80.0994 91.1624C80.0246 91.1156 79.9287 91.1197 79.8581 91.1727C79.8172 91.2033 79.7886 91.2477 79.7776 91.2976L79.2078 93.8835L78.4404 97.3143L80.3815 98.8942L82.4129 96.4115C82.3229 96.2614 82.2495 96.102 82.1942 95.9361L81.9163 95.1024L81.6003 94.0641L81.2329 92.5944C81.1773 92.3718 81.087 92.1594 80.9654 91.9648L80.8112 91.7181C80.7364 91.5984 80.6353 91.4973 80.5156 91.4225Z" fill="#FF9F01"/>
<path d="M101.711 97.6869L101.417 97.5399L101.824 101.783L102.004 103.363C102.094 103.933 102.258 104.488 102.492 105.014L102.501 105.033L103.313 106.388L103.991 105.846L104.758 104.311L105.39 103.137L106.834 100.429L104.126 98.0365L102.95 97.9997C102.771 97.9941 102.594 97.9725 102.419 97.9351C102.174 97.8825 101.936 97.7991 101.711 97.6869Z" fill="#FB7B00"/>
<path d="M115.523 96.6272L112.071 94.9219C111.754 94.7204 111.535 94.3962 111.467 94.0271L111.258 92.8905L110.987 91.5814L110.897 90.498V90.2517C110.897 89.9967 110.943 89.7437 111.032 89.5049L111.343 88.8537C111.432 88.665 111.599 88.5241 111.8 88.4667L112.838 88.1958L113.341 88.1265C113.877 88.0525 114.419 88.0304 114.96 88.0604L115.682 88.1958L118.255 88.9632L120.241 89.7306L121.821 90.4078L123.311 91.3106L123.412 91.3861C123.558 91.4957 123.593 91.7003 123.491 91.8523C123.191 92.2429 122.86 92.6091 122.502 92.9475L122.227 93.2065L121.054 94.1545L119.935 94.8598C119.297 95.2618 118.63 95.6145 117.939 95.915L116.359 96.7727L116.133 96.863C115.923 96.8029 115.719 96.724 115.523 96.6272Z" fill="#F3C901"/>
<path d="M68.1936 93.8384L68.1448 93.7977C67.4566 93.2242 66.8231 92.588 66.2526 91.8973L66.0269 91.5813C66.147 91.4612 66.2779 91.3523 66.4178 91.2561L66.9297 90.9042L68.5548 90.0465L70.857 89.0082L71.9158 88.649C72.8932 88.3174 73.8986 88.075 74.9197 87.9248C75.4586 87.8949 75.999 87.9425 76.5244 88.0661L77.2671 88.2408L77.6227 88.3594C77.8332 88.4295 78.0212 88.5546 78.1674 88.7216C78.2291 88.7921 78.2826 88.8693 78.327 88.9518L78.5762 89.4145L78.847 90.0916C78.847 90.3321 78.8297 90.5722 78.7953 90.8102L78.4589 93.1346C78.3867 93.6331 78.275 94.125 78.1248 94.6058C77.9151 94.7855 77.682 94.936 77.4319 95.0533L76.3642 95.5537L74.2426 96.592C73.8071 96.7372 73.333 96.7138 72.9138 96.5265L71.4438 95.8697L69.5479 94.7412L68.1936 93.8384Z" fill="#FEEF0F"/>
<path d="M109.046 99.0749L111.258 97.1339L112.657 102.686L109.632 106.117L107.511 108.645L106.292 109.999L105.42 111.264C105.401 111.292 105.369 111.308 105.335 111.308C105.288 111.308 105.246 111.275 105.235 111.229L104.983 110.135L106.247 106.749L108.594 99.3458L109.046 99.0749Z" fill="#E06200"/>
<path opacity="0.6" d="M115.456 88.7827L114.147 88.557C113.83 88.2973 113.423 88.1641 113.014 88.1882C112.927 88.1933 112.84 88.2054 112.755 88.2243L112.071 88.3765L111.619 88.5119C111.506 88.5402 111.414 88.6219 111.372 88.7307L111.213 89.1439L111.108 89.3744C111.028 89.5511 110.97 89.737 110.935 89.9279C110.91 90.067 110.897 90.2081 110.897 90.3495V90.5371C110.897 90.7815 110.917 91.0256 110.957 91.2667L110.987 91.4461L112.973 92.2586L116.359 91.3107L118.706 90.7238L117.758 89.9113L117.35 89.5577C117.172 89.403 116.972 89.2748 116.757 89.1771C116.642 89.1249 116.524 89.0817 116.402 89.0477L115.456 88.7827Z" fill="#F47D00"/>
<path opacity="0.7" d="M76.9961 92.2585L78.7115 91.3105L78.576 92.3488L78.4858 92.8905L78.3503 93.7482L78.1246 94.6059L77.9892 94.6962L76.9961 92.2585Z" fill="#CD4A04"/>
<g filter="url(#filter1_f_320_940)">
<path d="M85.3018 93.3869L83.7219 92.484L83.5787 92.4124C83.5538 92.4 83.5281 92.3893 83.5016 92.3805L83.3056 92.3152C83.2831 92.3077 83.2586 92.3094 83.2374 92.32C83.2032 92.3371 83.1836 92.3741 83.1888 92.412L83.3156 93.3417L83.4832 93.9785C83.5219 94.1255 83.5729 94.269 83.6358 94.4074L83.6523 94.4436C83.7285 94.6113 83.8241 94.7694 83.9372 94.9147C84.0342 95.0394 84.1434 95.154 84.2633 95.2568L84.3619 95.3413C84.5962 95.5421 84.8588 95.711 85.1384 95.8415C85.3065 95.92 85.4819 95.9849 85.6606 96.0345L85.8717 96.0932C86.0921 96.1544 86.3212 96.1783 86.5495 96.1641L86.6023 96.1608C86.8169 96.1474 87.0273 96.0949 87.223 96.0059C87.3561 95.9454 87.4812 95.8686 87.5954 95.7772L88.2645 95.242C88.2958 95.2169 88.295 95.1691 88.263 95.145L87.9652 94.9217L87.4235 94.5605L85.3018 93.3869Z" fill="#FF8E01"/>
</g>
<path d="M85.3018 93.3869L83.7219 92.484L83.5787 92.4124C83.5538 92.4 83.5281 92.3893 83.5016 92.3805L83.3056 92.3152C83.2831 92.3077 83.2586 92.3094 83.2374 92.32C83.2032 92.3371 83.1836 92.3741 83.1888 92.412L83.3156 93.3417L83.4832 93.9785C83.5219 94.1255 83.5729 94.269 83.6358 94.4074L83.6523 94.4436C83.7285 94.6113 83.8241 94.7694 83.9372 94.9147C84.0342 95.0394 84.1434 95.154 84.2633 95.2568L84.3619 95.3413C84.5962 95.5421 84.8588 95.711 85.1384 95.8415C85.3065 95.92 85.4819 95.9849 85.6606 96.0345L85.8717 96.0932C86.0921 96.1544 86.3212 96.1783 86.5495 96.1641L86.6023 96.1608C86.8169 96.1474 87.0273 96.0949 87.223 96.0059C87.3561 95.9454 87.4812 95.8686 87.5954 95.7772L88.2645 95.242C88.2958 95.2169 88.295 95.1691 88.263 95.145L87.9652 94.9217L87.4235 94.5605L85.3018 93.3869Z" fill="url(#paint2_radial_320_940)"/>
<path d="M99.928 110.315L100.287 109.956C100.318 109.925 100.355 109.899 100.394 109.879C100.473 109.84 100.561 109.826 100.648 109.841L100.67 109.844C100.746 109.857 100.818 109.888 100.88 109.934L101.049 110.061C101.114 110.11 101.172 110.168 101.22 110.233C101.261 110.287 101.296 110.347 101.323 110.41L101.332 110.432C101.389 110.563 101.418 110.705 101.418 110.848V111.037L101.373 111.444L101.308 111.703C101.261 111.891 101.196 112.074 101.115 112.249L101.069 112.348C101.001 112.497 100.915 112.637 100.815 112.767C100.706 112.907 100.579 113.034 100.438 113.143L100.362 113.203C100.283 113.264 100.199 113.317 100.111 113.361L99.9102 113.461C99.8328 113.5 99.7475 113.52 99.661 113.52C99.5695 113.52 99.4795 113.498 99.3988 113.455L99.2366 113.368C98.9845 113.234 98.7918 113.01 98.6967 112.74C98.6168 112.514 98.6102 112.268 98.678 112.037L98.709 111.932C98.7686 111.729 98.8708 111.541 99.0086 111.382L99.928 110.315Z" stroke="black"/>
<path d="M100.425 108.058L99.3415 105.034L94.8725 107.2L89.9521 104.988L88.959 108.013L90.9903 109.277L94.7822 111.128L98.1227 109.503L100.425 108.058Z" fill="#FFEC1A"/>
<path d="M103.404 108.284L100.469 108.058L99.3408 104.988L100.83 104.898L101.417 105.53L102.681 107.11L103.404 108.284Z" fill="#FFC700"/>
<path d="M104.036 85.0811L104.352 76.7299L104.532 76.4139C105.431 77.4325 106.187 78.568 106.781 79.7896L107.466 81.1989L109.137 84.4943L107.421 84.5394L105.435 84.8102L104.036 85.0811Z" fill="#FF9B00"/>
<path d="M83.6771 88.5569L80.6075 84.6296L79.3435 86.977L79.0193 87.5894C78.965 87.692 78.9288 87.8031 78.9124 87.918C78.8989 88.0125 78.8989 88.1083 78.9124 88.2028L78.916 88.2276C78.9301 88.3264 78.9567 88.423 78.995 88.5151L79.1629 88.9181L79.5241 89.6403L79.6585 89.8899C79.7789 90.1136 79.9313 90.3184 80.1109 90.498C80.3211 90.3179 80.5482 90.1586 80.7892 90.0224L81.4652 89.6403L83.6771 88.5569Z" fill="#F89400"/>
<path d="M85.9344 84.9006L85.6636 76.6397L90.9903 81.4698L85.9344 84.9006Z" fill="#FFE313"/>
<path d="M94.8262 77.9488L94.9165 74.1118L104.216 76.6848L98.4826 81.3344L94.8262 77.9488Z" fill="#FFDB01"/>
<path d="M94.8266 77.9036V74.0665L85.7983 76.6396L91.125 81.3343L94.8266 77.9036Z" fill="#FFEF2F"/>
<path d="M91.3506 81.4696L94.8265 77.9034L98.3475 81.4696L94.6911 89.6854L91.3506 81.4696Z" fill="#FEE71F"/>
<path d="M103.901 85.1262L104.262 76.775L98.5288 81.5149L99.8379 82.6434L101.869 83.9977L103.901 85.1262Z" fill="#FFC300"/>
<path d="M85.5291 76.7749L85.2131 76.4589H84.8971L84.6714 76.7749L84.1748 77.5423L80.6538 84.5392L83.6783 88.4665L84.0394 88.5117L85.7097 85.2615L85.5291 76.7749Z" fill="#FFDD00"/>
<path d="M94.7361 92.4844L94.6909 90.0017L97.6703 83.2305L98.4828 81.5151L99.6113 82.463L100.424 83.0499L101.643 83.8624L103.9 85.0813L102.455 86.4806L101.643 87.3835L99.7919 89.2343L96.4966 92.6199L94.7361 92.4844Z" fill="#FEC900"/>
<path d="M85.9336 85.0361L91.2151 81.5151L94.691 90.0017V92.4844L93.1111 92.7102L85.9336 85.0361Z" fill="#FFD900"/>
<path d="M105.841 88.4215L104.036 85.1262L105.39 84.8102L106.022 84.7199L107.376 84.5394H109.137L105.841 88.4215Z" fill="#FCBB00"/>
<path d="M94.7378 115.687L94.783 111.128L94.6927 111.083L92.6613 110.09L91.3522 109.458L90.8557 109.187L88.9597 108.013L86.8832 108.284L86.4769 108.013L86.161 108.645L85.9353 109.412L85.7547 110.405L85.529 111.624L85.3936 112.572V113.159L85.4387 115.552L85.9353 116.048L86.7027 116.725L87.2444 117.177L88.1923 117.854L89.3209 117.267L90.4043 116.816L91.7585 116.409L93.1579 116.048L93.9253 115.868L94.7378 115.687Z" fill="#F09006"/>
<path d="M105.887 88.4667L109.137 84.6296L110.853 87.7444C110.823 88.103 110.733 88.454 110.587 88.7828L110.446 89.0986L110.131 89.7758L109.769 90.4077L105.887 88.4667Z" fill="#F07E01"/>
<path d="M102.457 91.1752L105.662 88.6924L105.69 88.6735C105.76 88.6269 105.842 88.6021 105.926 88.6021C105.99 88.6021 106.053 88.6165 106.11 88.6442L109.77 90.4078L109.273 90.5432L107.603 90.9946L106.023 91.5363L104.714 92.1683L102.682 93.2065L101.057 94.1545L99.6127 94.8316L99.0259 94.3802L100.019 93.342L101.238 92.1683L102.457 91.1752Z" fill="#FD7B00"/>
<path d="M101.148 87.9703L103.901 85.0812L105.797 88.4668L103.811 90.1371L100.335 93.0261L98.9356 94.3804L97.8974 93.1616C97.7834 92.9907 97.7548 92.7767 97.8197 92.5819L97.8264 92.562C97.8435 92.5105 97.8666 92.4611 97.8951 92.4148L98.5745 91.3108L99.5676 89.9565L101.148 87.9703Z" fill="#FFE71D"/>
<path d="M87.3346 91.2203L84.3101 88.7827L83.9941 88.5118L85.8449 85.0359L89.9528 89.5952L91.3973 91.6266L91.9737 92.6558C92.0102 92.7209 92.0293 92.7944 92.0293 92.869C92.0293 92.9972 91.973 93.1189 91.8752 93.2019L90.5397 94.3351C89.9691 93.6144 89.3321 92.949 88.6371 92.3475L87.3346 91.2203Z" fill="#FFE516"/>
<path d="M95.007 94.3351L95.6448 94.1805C96.1869 94.0491 96.7593 94.1546 97.2189 94.4706L97.5844 94.7591C97.9096 95.0159 98.1838 95.3314 98.3926 95.6894L98.9343 104.086C98.6949 104.415 98.4069 104.706 98.08 104.948L97.7378 105.202C97.3628 105.48 96.9565 105.721 96.5325 105.916C96.1802 106.079 95.8117 106.213 95.437 106.314L94.8264 106.478L94.7812 94.3803L95.007 94.3351Z" fill="#FED000"/>
<path d="M94.1289 94.2033L94.7356 94.3803L94.8259 106.478L94.1225 106.291C93.6903 106.175 93.2739 106.007 92.8829 105.79L91.4812 105.011C91.1936 104.851 90.9763 104.59 90.8723 104.277C90.8299 104.15 90.8072 104.017 90.805 103.884L90.7632 101.377L90.8083 97.9013V95.9602L90.8535 95.7796L91.3049 95.2831L92.3813 94.3723C92.446 94.3175 92.5159 94.2693 92.59 94.2281L92.6481 94.1958C92.8033 94.1095 92.978 94.0643 93.1557 94.0643C93.485 94.0643 93.8127 94.1111 94.1289 94.2033Z" fill="#FFEB28"/>
<path opacity="0.25" d="M98.6632 104.402L94.8262 101.964L94.9165 106.478L95.3679 106.343L96.0901 106.117L96.677 105.846L97.4895 105.395L98.2118 104.853L98.6632 104.402Z" fill="#D3A500"/>
<path d="M90.9453 104.402L94.6018 102.099L94.8275 101.964L94.8726 106.478L93.7441 106.162L93.1572 105.936L92.1641 105.395L91.6404 105.115C91.5385 105.061 91.4427 104.996 91.355 104.92C91.2331 104.816 91.1277 104.693 91.0426 104.557L90.9453 104.402Z" fill="#FFE514"/>
<path d="M87.3784 106.523L88.4167 104.988H89.9063L88.9132 108.013L86.8819 108.284L86.4756 108.013L86.8367 107.336L87.3784 106.523Z" fill="#FFD500"/>
<path d="M83.7229 88.5568H83.9486L84.9869 89.3694L87.4697 91.3556L88.7336 92.439L89.6364 93.2967L90.1727 93.9458C90.3863 94.2044 90.5698 94.4864 90.7198 94.7863L90.5692 94.8767C90.5193 94.9067 90.4663 94.931 90.4111 94.9494L90.3705 94.963C90.2738 94.9952 90.1707 95.0033 90.0702 94.9865C89.9924 94.9736 89.9177 94.946 89.8502 94.9052L87.3342 93.387L85.7091 92.4841L83.4521 91.491L82.6847 91.2202L80.1567 90.4979L81.7367 89.5048L83.7229 88.5568Z" fill="#FD7A01"/>
<path opacity="0.5" d="M94.7812 115.732V111.173L98.1669 109.457L100.469 108.058L103.448 108.284L103.629 108.78L104.035 110.676L104.126 111.489L104.261 112.753V113.34L104.216 115.642L102.907 116.77L101.643 117.809L101.417 117.763L99.2503 116.861L98.4377 116.59L97.0835 116.183L95.9098 115.867L95.2778 115.777L94.7812 115.732Z" fill="#FFA51D"/>
<path opacity="0.8" d="M87.7404 110.315L88.6411 109.496C88.7017 109.441 88.7752 109.402 88.8547 109.382C88.8942 109.372 88.9346 109.367 88.9752 109.367H89.0069C89.124 109.367 89.2394 109.395 89.3442 109.447L89.4205 109.485C89.5039 109.527 89.5817 109.579 89.6522 109.64L90.2232 110.135L91.2147 111.163C91.3658 111.32 91.4993 111.492 91.6127 111.678L91.6485 111.737C91.8398 112.05 91.9641 112.399 92.0137 112.762L92.0437 112.982C92.0637 113.129 92.0591 113.279 92.03 113.424C91.9708 113.72 91.8132 113.987 91.5828 114.182L91.5128 114.242C91.4059 114.332 91.2875 114.408 91.1608 114.468L90.7481 114.662C90.6393 114.713 90.5247 114.751 90.4069 114.775L90.1015 114.836C89.837 114.889 89.563 114.814 89.3613 114.635C89.3042 114.584 89.2541 114.526 89.2123 114.462L88.5981 113.52L88.2579 112.913C88.064 112.567 87.911 112.199 87.802 111.817L87.652 111.292C87.6208 111.183 87.605 111.07 87.605 110.957V110.642C87.605 110.52 87.6537 110.402 87.7404 110.315Z" fill="#D5810D"/>
<path d="M90.2004 113.719L90.3303 113.744C90.4977 113.775 90.6696 113.774 90.8366 113.741C90.9683 113.714 91.0951 113.668 91.213 113.604L91.5318 113.43L91.589 113.378C91.8633 113.129 91.9944 112.758 91.938 112.392L91.7575 111.985C91.6674 111.805 91.5598 111.635 91.4361 111.476L91.306 111.308L90.6741 110.631L89.8673 109.824C89.8043 109.761 89.7263 109.716 89.6406 109.691C89.521 109.657 89.393 109.666 89.2797 109.718L89.1033 109.798C89.0074 109.842 88.9187 109.899 88.84 109.969L88.6773 110.114C88.5951 110.187 88.5299 110.277 88.4866 110.378C88.4408 110.485 88.4205 110.601 88.4274 110.717L88.4621 111.308C88.5222 111.669 88.6105 112.024 88.7261 112.371L88.733 112.392L88.8253 112.595C88.9137 112.789 89.0314 112.969 89.1743 113.128L89.2019 113.158C89.3101 113.279 89.4341 113.384 89.5706 113.471C89.7628 113.593 89.9766 113.677 90.2004 113.719Z" fill="#AE3C00"/>
<path opacity="0.5" d="M89.1821 109.968L89.1611 109.961C89.0604 109.928 88.9505 109.935 88.8555 109.983C88.8341 109.994 88.8136 110.006 88.7944 110.021L88.7547 110.05C88.6806 110.106 88.6164 110.174 88.565 110.251C88.4973 110.353 88.4532 110.468 88.4359 110.589L88.4323 110.614C88.4221 110.685 88.4203 110.758 88.4268 110.829L88.4621 111.218L88.4716 111.274C88.495 111.415 88.554 111.547 88.643 111.658C88.6728 111.696 88.7058 111.73 88.7416 111.762L89.6726 112.586C89.798 112.697 89.9374 112.791 90.0871 112.866L90.3566 113C90.4466 113.045 90.5459 113.069 90.6466 113.069H90.7143C90.8607 113.069 90.9997 113.005 91.095 112.894C91.1729 112.803 91.2158 112.687 91.2158 112.567V112.488C91.2158 112.337 91.1683 112.19 91.0802 112.068L90.6289 111.444L89.8615 110.541L89.3464 110.065C89.2991 110.022 89.2431 109.989 89.1821 109.968Z" fill="#862500"/>
<path d="M88.1921 112.753L87.831 111.895L85.4385 114.017V115.552L86.7476 116.77L87.7407 117.538L89.8172 114.829C89.5524 114.741 89.32 114.576 89.1498 114.355L88.9595 114.107L88.1921 112.753Z" fill="#E98202"/>
<path d="M94.7812 115.732V111.128L96.632 110.225L98.1669 109.457L99.3405 108.735L100.424 108.058L103.448 108.284L104.035 110.676L104.126 111.579L104.261 112.662V112.933L104.216 115.642L103.132 116.59L101.643 117.809L101.372 117.763L101.011 117.583L99.2503 116.861L97.8057 116.409L96.7223 116.093L96.3471 115.983C96.0862 115.906 95.819 115.852 95.5487 115.822L95.2327 115.777L94.7812 115.732Z" fill="#F28502"/>
<path d="M98.0312 111.624L99.5209 109.999L99.882 109.683L100.215 109.441C100.322 109.363 100.447 109.312 100.579 109.293C100.656 109.283 100.733 109.283 100.81 109.293L100.817 109.294C100.944 109.313 101.066 109.359 101.174 109.431L101.399 109.581C101.501 109.649 101.596 109.727 101.683 109.814L102.038 110.169C102.16 110.291 102.229 110.458 102.229 110.631C102.14 111.408 101.915 112.163 101.566 112.862L101.255 113.483C101.153 113.688 101.026 113.88 100.879 114.055L100.564 114.429C100.443 114.573 100.285 114.683 100.108 114.747C99.9592 114.801 99.8002 114.822 99.6424 114.808L99.2408 114.771C99.0079 114.75 98.7804 114.689 98.5681 114.591L98.1724 114.408C97.8822 114.274 97.6647 114.021 97.5769 113.713C97.5489 113.615 97.5347 113.514 97.5347 113.412V112.419C97.5347 112.343 97.5591 112.268 97.6044 112.206L98.0312 111.624Z" fill="#EE7A03"/>
<path d="M97.8516 112.337V112.316C97.8516 112.044 97.9482 111.782 98.1241 111.575L98.619 110.992L99.2961 110.225L99.6485 109.873C99.6843 109.837 99.7236 109.804 99.7658 109.776C99.98 109.634 100.251 109.607 100.489 109.706L100.581 109.745C100.627 109.764 100.672 109.787 100.714 109.813L100.938 109.951C101.132 110.07 101.279 110.251 101.357 110.464C101.397 110.575 101.418 110.691 101.418 110.809V110.983C101.418 111.139 101.399 111.295 101.363 111.446L101.287 111.768C101.224 112.032 101.123 112.285 100.986 112.519L100.963 112.558C100.905 112.658 100.839 112.752 100.766 112.842C100.571 113.081 100.327 113.276 100.051 113.414L100.018 113.43L99.633 113.568C99.4705 113.626 99.2974 113.648 99.1254 113.634C98.9407 113.619 98.762 113.561 98.6031 113.466L98.5724 113.447C98.4536 113.376 98.3465 113.287 98.2545 113.184L98.0321 112.933C97.9144 112.757 97.8516 112.549 97.8516 112.337Z" fill="#A53700"/>
<path d="M101.96 117.493L101.671 117.233C100.966 116.598 100.376 115.846 99.9282 115.01L99.8379 114.829L99.9733 114.784L100.036 114.761C100.233 114.687 100.411 114.572 100.56 114.423C100.8 114.153 101.017 113.862 101.206 113.554L101.282 113.43L101.824 112.256L102.095 111.399L102.198 110.953C102.219 110.859 102.23 110.763 102.23 110.667C102.23 110.583 102.222 110.5 102.206 110.417L102.185 110.315L104.036 110.676L104.262 112.753V113.565L104.217 115.642L101.96 117.493Z" fill="#EA7503"/>
<path d="M82.1871 79.1676L82.6954 78.1934C82.7167 78.1524 82.7205 78.1046 82.7059 78.0608C82.6917 78.018 82.6609 77.9826 82.6206 77.9624L82.6181 77.9612C82.6017 77.9529 82.5841 77.9473 82.566 77.9445L81.4197 77.7682L80.3363 77.5876L78.7563 77.3168L77.0861 76.9556L75.777 76.6397L73.9262 76.1431L72.1205 75.6465L70.36 72.9381L70.4052 72.1707L70.4954 70.1393L70.676 68.0628L70.8566 66.7537L71.1156 65.2427C71.1233 65.1979 71.1165 65.1518 71.0961 65.1112L71.0839 65.0867C71.0552 65.0294 70.9967 64.9932 70.9326 64.9932C70.8842 64.9932 70.8382 65.0138 70.8061 65.05L70.4954 65.3994L69.8635 66.1668L68.9606 67.2954L67.6967 69.0108L66.3876 70.8164L65.259 72.4866L64.8076 73.1186V73.2992L65.0333 75.7368L65.259 77.1362L65.4847 78.5807L65.6653 79.4384L66.1167 81.1989L66.6584 82.5983L67.787 83.1852L70.1794 84.3588L72.7977 85.4874L74.7387 86.3451L78.0341 87.8347L78.4855 86.6611L79.2077 84.9457L80.1106 83.2755L80.3814 82.6886L80.7425 82.1018L81.2391 81.0635L82.1871 79.1676Z" fill="url(#paint3_linear_320_940)"/>
<g filter="url(#filter2_f_320_940)">
<path d="M102.456 94.5154L104.668 93.2063L105.796 92.5743L106.261 92.321C106.282 92.3095 106.306 92.3035 106.33 92.3035C106.409 92.3035 106.473 92.3679 106.473 92.4473V92.5551C106.473 92.5679 106.473 92.5807 106.471 92.5933L106.437 92.8094C106.401 93.0431 106.339 93.272 106.251 93.4916L105.842 94.5154L105.717 94.7435C105.62 94.9218 105.501 95.0876 105.364 95.2373C105.172 95.4467 104.946 95.6219 104.695 95.7556L104.397 95.9148C104.129 96.0634 103.832 96.151 103.527 96.1714L103.314 96.1856C102.87 96.1856 102.435 96.0679 102.052 95.8444L101.599 95.5805C101.568 95.5626 101.539 95.5422 101.512 95.5195L101.319 95.3586C101.296 95.3392 101.282 95.3104 101.282 95.28C101.282 95.2529 101.293 95.2269 101.312 95.2077L101.384 95.1358C101.406 95.1135 101.432 95.0944 101.459 95.0789L102.456 94.5154Z" fill="#FF8E01"/>
</g>
<path d="M102.456 94.5154L104.668 93.2063L105.796 92.5743L106.261 92.321C106.282 92.3095 106.306 92.3035 106.33 92.3035C106.409 92.3035 106.473 92.3679 106.473 92.4473V92.5551C106.473 92.5679 106.473 92.5807 106.471 92.5933L106.437 92.8094C106.401 93.0431 106.339 93.272 106.251 93.4916L105.842 94.5154L105.717 94.7435C105.62 94.9218 105.501 95.0876 105.364 95.2373C105.172 95.4467 104.946 95.6219 104.695 95.7556L104.397 95.9148C104.129 96.0634 103.832 96.151 103.527 96.1714L103.314 96.1856C102.87 96.1856 102.435 96.0679 102.052 95.8444L101.599 95.5805C101.568 95.5626 101.539 95.5422 101.512 95.5195L101.319 95.3586C101.296 95.3392 101.282 95.3104 101.282 95.28C101.282 95.2529 101.293 95.2269 101.312 95.2077L101.384 95.1358C101.406 95.1135 101.432 95.0944 101.459 95.0789L102.456 94.5154Z" fill="url(#paint4_radial_320_940)"/>
<path d="M108.008 80.2057L107.06 78.3098L106.966 78.1452C106.922 78.0692 106.964 77.9728 107.049 77.9515C107.056 77.9496 107.064 77.9484 107.072 77.9479L107.737 77.9035L110.13 77.4521L113.064 76.8201L115.456 76.2784L117.442 75.6916L117.758 75.3756L118.255 74.7436L119.338 73.0283L119.293 71.8997L119.203 70.2746L119.113 69.0107L118.887 67.1147L118.661 65.3091V65.0421C118.661 65.0121 118.678 64.9846 118.705 64.9711C118.733 64.957 118.767 64.961 118.791 64.9812L118.985 65.1425C119.01 65.1632 119.033 65.1865 119.053 65.2119L120.196 66.6633L121.37 68.1078L122.318 69.4169L123.266 70.8163L123.988 71.8094L124.936 73.254L124.891 73.7054L124.71 75.6013L124.439 77.4973L124.033 79.4835L123.627 81.0634L123.04 82.6434L122.318 82.9594L120.422 83.9073L116.269 85.713L112.973 87.2478L111.484 87.8347L111.48 87.8196C111.393 87.4391 111.273 87.0666 111.123 86.7061L110.897 86.0741L110.355 84.7199L109.904 83.6816L109.752 83.3564C109.643 83.1223 109.512 82.8987 109.362 82.6885C109.242 82.5384 109.137 82.3772 109.047 82.207L108.73 81.6051L108.008 80.2057Z" fill="#FCE722"/>
<path d="M69.5023 67.9725L71.0311 65.0949C71.035 65.0874 71.0371 65.079 71.0371 65.0705C71.0371 65.0508 71.026 65.0327 71.0084 65.0239L70.9831 65.0113C70.9599 64.9997 70.933 64.9978 70.9084 65.006L70.8661 65.0201C70.8303 65.032 70.7986 65.0535 70.7742 65.0823L70.3149 65.6251L69.6829 66.3925L68.7349 67.6114L67.6515 69.101L66.7938 70.2747L65.7556 71.7644L64.8076 73.1186L66.839 73.7957L68.4189 70.2747L69.5023 67.9725Z" fill="#FFC001"/>
<path opacity="0.5" d="M67.7873 75.5109L66.8394 73.7503L68.9159 69.1911L71.0375 65.0832L71.1278 65.2186L70.9472 66.2117L70.7215 67.6563L70.6312 68.4688L70.4958 70.0939L70.4507 71.1321L70.3604 72.9378L72.1209 75.6914L70.9021 78.5353L70.4507 79.4382L70.0444 78.9416L68.7353 77.0908L67.7873 75.5109Z" fill="#FFDF01"/>
<path d="M70.4497 79.4836L77.6272 81.2892L80.6065 82.2823L82.5928 78.4002L82.6796 78.2554C82.7105 78.204 82.7173 78.1418 82.6984 78.085C82.6883 78.0548 82.6713 78.0273 82.6488 78.0048L82.6447 78.0007C82.6109 77.9669 82.5674 77.9445 82.5202 77.9367L82.3219 77.9036L81.1934 77.7231L79.8391 77.4973L78.6203 77.2716L77.7626 77.0911L76.7695 76.8654L75.7764 76.6397L74.1513 76.1882L72.1651 75.6465L70.54 79.1676L70.4497 79.4836Z" fill="#FFDB00"/>
<path d="M78.6672 86.2548L70.4966 79.4385L80.6083 82.3275L79.9311 83.5915L79.2089 84.9457L78.6672 86.2548Z" fill="#EB7900"/>
<path d="M66.7041 82.5984L70.4508 79.4385L76.9512 84.8103L78.6666 86.2097L78.0346 87.8348L73.8365 85.9388L69.1869 83.8623L67.1555 82.8692L66.7041 82.5984Z" fill="#DC5C01"/>
<path d="M119.746 67.1147L118.707 65.2188L118.679 65.162C118.668 65.14 118.662 65.1157 118.662 65.0911V65.0421C118.662 65.0121 118.679 64.9846 118.706 64.9711C118.734 64.957 118.768 64.961 118.792 64.9812L118.986 65.1426C119.011 65.1632 119.033 65.1864 119.053 65.2117L119.7 66.0313L121.009 67.6564L121.777 68.6495L123.673 71.358L124.937 73.2991L122.996 73.8408L121.912 71.7192L120.874 69.2815L119.746 67.1147Z" fill="#FFC001"/>
<path d="M119.746 67.1147L118.707 65.2188L118.679 65.162C118.668 65.14 118.662 65.1157 118.662 65.0911V65.0421C118.662 65.0121 118.679 64.9846 118.706 64.9711C118.734 64.957 118.768 64.961 118.792 64.9812L118.986 65.1426C119.011 65.1632 119.033 65.1864 119.053 65.2117L119.7 66.0313L121.009 67.6564L121.777 68.6495L123.673 71.358L124.937 73.2991L122.996 73.8408L121.912 71.7192L120.874 69.2815L119.746 67.1147Z" fill="black" fill-opacity="0.03"/>
<path opacity="0.5" d="M118.12 77.1812L117.571 75.8302C117.547 75.77 117.501 75.7207 117.443 75.6916L117.849 75.2402L118.21 74.7887L118.436 74.4276L118.752 73.9311L119.113 73.3894L119.339 73.0282L119.249 71.2226L119.158 69.5523L119.068 68.6947L118.887 67.1147L118.707 65.7605L118.662 65.1285L119.023 65.8056L119.61 66.889L120.512 68.6044L120.964 69.5072L121.37 70.4552L121.822 71.5386L122.95 73.7956L122.222 75.1812C121.775 76.0313 121.253 76.8396 120.662 77.5961L120.044 78.3863C119.755 78.7555 119.428 79.0931 119.068 79.3932L118.617 78.3549L118.12 77.1812Z" fill="#FFE40C"/>
<path d="M122.362 75.0597L122.949 73.886L124.936 73.2991L124.8 74.4728L124.665 76.0076L124.439 77.5424L124.168 78.8967L123.852 80.1606L123.819 80.3013C123.691 80.8387 123.521 81.3652 123.31 81.876L123.04 82.6434L119.112 79.5287C119.653 78.9878 120.151 78.4058 120.602 77.7879L121.144 77.0459L122.362 75.0597Z" fill="#ED6F00"/>
<path d="M119.16 79.4837L109.138 82.3276L107.784 79.7997L107.017 78.2649L106.966 78.1635C106.941 78.1145 106.945 78.0562 106.975 78.0107C107.001 77.9717 107.044 77.9468 107.091 77.9432L107.603 77.9038L108.19 77.8135L110.086 77.4524L111.666 77.1364L114.465 76.5044L115.639 76.2335L116.677 75.9175L117.354 75.6918L119.16 79.4837Z" fill="#FFD800"/>
<path opacity="0.8" d="M110.672 85.5324L111.124 86.7061L111.485 87.8346L113.336 87.0672L118.166 84.9004L120.152 84.0427L121.281 83.4559L122.996 82.6434L119.114 79.4835L117.624 79.9349L112.117 81.5148L109.183 82.3725L109.679 83.1399L109.95 83.7719L110.311 84.6296L110.672 85.5324Z" fill="#EB7900"/>
<path d="M111.403 86.4716L111.413 86.4394C111.46 86.2871 111.532 86.1434 111.624 86.0136C111.681 85.9337 111.746 85.8597 111.818 85.7924L112.478 85.1713L113.967 83.9073L115.141 82.9142L117.037 81.4245L119.113 79.4835L123.041 82.6434L120.738 83.7719L118.211 84.8553L114.825 86.4352L113.064 87.2026L111.484 87.8346L111.376 87.3995C111.299 87.0936 111.309 86.7726 111.403 86.4716Z" fill="#DC5B00"/>
<path opacity="0.7" d="M77.0416 92.2587L71.3989 90.7691L71.7759 90.3749C72.1851 89.9471 72.6454 89.5713 73.1463 89.2559C73.4556 89.0612 73.7792 88.8902 74.1143 88.7445L74.6491 88.512L75.1204 88.3752C75.7307 88.198 76.3739 88.1657 76.9989 88.2808L77.5428 88.381C77.6889 88.4079 77.8285 88.4621 77.9545 88.5408L77.9633 88.5464C78.0703 88.6132 78.1653 88.6977 78.2441 88.7963C78.285 88.8474 78.3213 88.902 78.3527 88.9595L78.5764 89.3697C78.8094 89.7483 78.8986 90.1979 78.8278 90.6368L78.7118 91.3559L77.0416 92.2587Z" fill="#FD8C00"/>
<path d="M71.3985 90.769L66.1621 91.7621C66.2823 91.9423 66.4181 92.1115 66.5681 92.2678L67.4261 93.1615C67.906 93.6414 68.44 94.0639 69.0174 94.4205L69.6831 94.8317L71.3534 95.8248L72.9785 96.5471L73.3752 96.7274C73.441 96.7573 73.5124 96.7728 73.5847 96.7728C73.6317 96.7728 73.6785 96.7662 73.7238 96.7533L73.9716 96.6825L74.6938 96.3665L76.5446 95.4637L77.0361 95.2403C77.3698 95.0886 77.6889 94.9065 77.9892 94.6963L77.0412 92.3038L73.9264 91.4461L71.3985 90.769Z" fill="#EC7A00"/>
<path d="M77.447 95.0574L69.7729 91.1301L71.398 90.769L76.9956 92.2586L78.079 94.6511L77.8984 94.7866L77.6276 94.9671L77.447 95.0574Z" fill="#CE4C00"/>
<path opacity="0.6" d="M112.973 92.2587L110.942 91.4461L111.438 93.8386L111.516 94.3788C111.524 94.4392 111.546 94.4969 111.58 94.5477C111.606 94.5863 111.638 94.6202 111.675 94.648L111.8 94.7414L112.973 92.2587Z" fill="#C74700"/>
<path opacity="0.9" d="M121.01 91.2656L118.753 90.8142H118.618L112.975 92.2587L111.801 94.7415L112.162 94.9672L113.065 95.4186L114.69 96.2312L115.548 96.6375L116.135 96.8632L117.715 96.0506L119.385 95.1929L121.055 94.1547L122.319 93.1164L123.041 92.3942L123.538 91.7622L123.229 91.618C122.987 91.5048 122.722 91.4462 122.455 91.4462L121.01 91.2656Z" fill="#E46901"/>
<path d="M114.916 93.6127L114.032 94.0906C113.511 94.3724 113.033 94.7285 112.614 95.1476L111.801 94.7413L112.569 93.2065L113.02 92.2585L116.496 91.2654L118.708 90.7237L118.798 90.7688L119.385 90.9494L120.559 91.1751L121.281 91.3105L122.41 91.446H122.545L122.665 91.4609C122.825 91.481 122.982 91.5214 123.132 91.5814L122.68 91.6265L121.687 91.6717L120.243 91.884C119.163 92.0429 118.103 92.3199 117.083 92.7099L114.916 93.6127Z" fill="#C64600"/>
<path d="M109.573 91.1117L109.905 90.9945L110.492 93.387L110.808 95.0121L111.214 97.1337L109.995 98.172L108.957 99.0748L108.641 98.5783L107.196 96.3663L108.235 92.9807L108.537 92.1411C108.606 91.95 108.708 91.7728 108.839 91.6178C109.034 91.387 109.288 91.2123 109.573 91.1117Z" fill="#EF7D00"/>
<path d="M108.956 99.075L107.15 96.4117L104.216 98.0819L106.834 100.384L108.956 99.075Z" fill="#FFB001"/>
<path d="M106.835 100.474L108.55 99.436L106.203 106.794L104.939 110.134L104.442 108.193L104.171 107.787L103.72 107.11L103.269 106.433L103.539 106.207L103.991 105.846L104.262 105.35L104.758 104.311L106.835 100.474Z" fill="#E96A01"/>
<path d="M80.3813 98.8945C80.9832 98.112 82.3405 96.4478 82.4127 96.4117L83.7218 97.2242L85.4372 97.9916L82.7738 100.7L82.6274 100.645C82.2453 100.502 81.885 100.307 81.5565 100.064C81.3154 99.8868 81.0929 99.6851 80.8926 99.4625L80.3813 98.8945Z" fill="#FED502"/>
<path d="M83.5416 101.738L82.8193 100.7C82.5488 100.61 82.2851 100.501 82.03 100.373L81.9616 100.339L81.5554 100.068L81.0137 99.6168L81.3297 100.158L82.5936 104.086L84.1284 108.645L84.6701 110.406L85.1215 108.645L85.257 108.239C85.3467 108.029 85.4678 107.835 85.6161 107.662L85.6632 107.607L86.0244 107.246L86.2952 106.93L85.3021 104.989L83.5416 101.738Z" fill="#EB6E02"/>
<path d="M86.6117 97.8111L85.5283 97.9917L85.3477 98.082L83.9935 99.4813L82.8198 100.7L83.5872 101.829L86.0249 106.388L86.5666 105.801L87.1534 105.034L87.4243 104.582L87.5145 103.995L87.6048 102.822L87.8305 99.4813L87.9208 97.4951L87.5145 97.6305L86.6117 97.8111Z" fill="#FEA800"/>
<path opacity="0.5" d="M94.8715 122.277L94.7812 117.808L96.3612 117.989L97.8509 118.215L98.2817 118.296C98.9555 118.422 99.6133 118.622 100.243 118.892L100.108 119.072L99.6275 119.656C99.5266 119.778 99.4164 119.893 99.2978 119.998C99.1461 120.133 98.9814 120.252 98.806 120.355L98.528 120.517L96.3612 121.6L95.0521 122.232L94.8715 122.277Z" fill="#DB5901"/>
<path d="M66.839 73.8408L64.8076 73.2089L64.8528 74.0214L65.0333 75.6465L65.2139 76.9105L65.5299 78.7613L65.7556 79.7995L65.9813 80.7926L66.3424 81.7857L66.6584 82.5983L70.36 79.4384L69.3669 78.2196C68.616 77.1984 67.9569 76.1128 67.3973 74.9754L66.839 73.8408Z" fill="#ED7100"/>
<path d="M80.6538 84.5846L85.5742 79.8448L85.7097 84.7652C85.0203 84.5854 84.3108 84.4944 83.5984 84.4944H82.64L80.6538 84.5846Z" fill="#FEC200"/>
<path opacity="0.5" d="M99.985 110.286L100.483 109.846C100.504 109.828 100.528 109.814 100.555 109.805C100.615 109.785 100.681 109.794 100.734 109.829L100.988 109.999C101.034 110.029 101.076 110.064 101.115 110.103L101.12 110.108C101.255 110.243 101.344 110.416 101.375 110.604L101.399 110.746C101.411 110.82 101.418 110.895 101.418 110.97V111.02C101.418 111.182 101.398 111.342 101.359 111.499L101.282 111.805L101.16 112.172C101.121 112.288 101.068 112.399 101.002 112.501L100.979 112.538C100.796 112.822 100.515 113.027 100.189 113.114C100.076 113.144 99.9587 113.159 99.8411 113.159H99.4223C99.3089 113.159 99.1963 113.139 99.0897 113.101L98.9527 113.051C98.8246 113.004 98.7172 112.914 98.6496 112.795C98.5999 112.708 98.5737 112.61 98.5737 112.51V112.382C98.5737 112.154 98.6478 111.932 98.7848 111.749L99.2509 111.128L99.5517 110.745C99.6819 110.579 99.8269 110.426 99.985 110.286Z" fill="#7E2500"/>
<defs>
<filter id="filter0_f_320_940" x="0" y="0" width="189.657" height="187" filterUnits="userSpaceOnUse" color-interpolation-filters="sRGB">
<feFlood flood-opacity="0" result="BackgroundImageFix"/>
<feBlend mode="normal" in="SourceGraphic" in2="BackgroundImageFix" result="shape"/>
<feGaussianBlur stdDeviation="32" result="effect1_foregroundBlur_320_940"/>
</filter>
<filter id="filter1_f_320_940" x="74.188" y="83.3106" width="23.0996" height="21.8575" filterUnits="userSpaceOnUse" color-interpolation-filters="sRGB">
<feFlood flood-opacity="0" result="BackgroundImageFix"/>
<feBlend mode="normal" in="SourceGraphic" in2="BackgroundImageFix" result="shape"/>
<feGaussianBlur stdDeviation="4.5" result="effect1_foregroundBlur_320_940"/>
</filter>
<filter id="filter2_f_320_940" x="91.2822" y="82.3035" width="25.1914" height="23.8821" filterUnits="userSpaceOnUse" color-interpolation-filters="sRGB">
<feFlood flood-opacity="0" result="BackgroundImageFix"/>
<feBlend mode="normal" in="SourceGraphic" in2="BackgroundImageFix" result="shape"/>
<feGaussianBlur stdDeviation="5" result="effect1_foregroundBlur_320_940"/>
</filter>
<linearGradient id="paint0_linear_320_940" x1="93.8791" y1="71.1323" x2="94.8722" y2="98.0818" gradientUnits="userSpaceOnUse">
<stop offset="0.0792343" stop-color="#FFFC6C"/>
<stop offset="0.806698" stop-color="#FF9F02"/>
</linearGradient>
<linearGradient id="paint1_linear_320_940" x1="79.975" y1="109.277" x2="79.4333" y2="96.7728" gradientUnits="userSpaceOnUse">
<stop stop-color="#E56A00"/>
<stop offset="1" stop-color="#FFD901"/>
</linearGradient>
<radialGradient id="paint2_radial_320_940" cx="0" cy="0" r="1" gradientUnits="userSpaceOnUse" gradientTransform="translate(85.7532 94.2445) rotate(112.62) scale(1.76052 2.33371)">
<stop offset="0.297473" stop-color="#FEF900"/>
<stop offset="0.995302" stop-color="#FF8E01"/>
</radialGradient>
<linearGradient id="paint3_linear_320_940" x1="73.7682" y1="64.9932" x2="73.7682" y2="87.8347" gradientUnits="userSpaceOnUse">
<stop stop-color="#FCE722"/>
<stop offset="1" stop-color="#F17500"/>
</linearGradient>
<radialGradient id="paint4_radial_320_940" cx="0" cy="0" r="1" gradientTransform="matrix(-0.683062 1.62509 -2.17309 -0.89758 103.878 94.2445)" gradientUnits="userSpaceOnUse">
<stop offset="0.297473" stop-color="#FEF900"/>
<stop offset="0.995302" stop-color="#FF8E01"/>
</radialGradient>
</defs>
</svg>
