<svg width="20" height="21" viewBox="0 0 20 21" fill="none" xmlns="http://www.w3.org/2000/svg">
<path opacity="0.7" d="M15.4971 14.8605C17.984 11.9255 17.7232 7.6171 14.9147 5.23742C12.1062 2.85774 7.81347 3.30792 5.32661 6.24292C2.83974 9.17793 3.10047 13.4863 5.90897 15.866C8.71748 18.2457 13.0102 17.7955 15.4971 14.8605Z" fill="#F79F03"/>
<path d="M7.17722 14.8081C4.56139 12.5917 3.66198 9.28573 4.99249 7.14147C4.96783 7.01133 4.95004 6.87925 4.93508 6.74777C2.87677 9.65375 3.25688 13.6191 5.90824 15.8656C8.00343 17.6408 10.9245 17.8407 13.3057 16.6092C11.443 17.0527 9.0966 16.4344 7.17722 14.8081Z" fill="#D86A07"/>
<path opacity="0.9" d="M14.6733 13.9299C17.1594 10.9945 16.8977 6.68639 14.0889 4.30745C11.28 1.9285 6.98758 2.37959 4.50148 5.31498C2.01538 8.25037 2.27704 12.5585 5.08591 14.9374C7.89478 17.3164 12.1872 16.8653 14.6733 13.9299Z" fill="#FFE70F"/>
<path d="M14.4649 13.7534C16.8491 10.9383 16.5982 6.8067 13.9044 4.52524C11.2106 2.24378 7.09408 2.67639 4.70985 5.4915C2.32562 8.30662 2.57655 12.4382 5.27032 14.7197C7.96409 17.0011 12.0806 16.5685 14.4649 13.7534Z" fill="#FDC816"/>
<path d="M13.3591 12.8169C15.2028 10.64 15.0088 7.44501 12.9257 5.68073C10.8425 3.91646 7.65919 4.251 5.81545 6.42794C3.9717 8.60489 4.16575 11.7999 6.24887 13.5642C8.33198 15.3284 11.5153 14.9939 13.3591 12.8169Z" fill="#FFE70F"/>
<path d="M13.0947 12.5929C14.8092 10.5686 14.6288 7.59758 12.6917 5.95699C10.7546 4.3164 7.79445 4.6275 6.07995 6.65184C4.36546 8.67618 4.5459 11.6472 6.48298 13.2878C8.42005 14.9284 11.3802 14.6173 13.0947 12.5929Z" fill="#FF930F"/>
<g opacity="0.35">
<path d="M14.0676 14.1836L4.88797 5.28952C4.82766 5.35549 4.76802 5.42247 4.70975 5.49129C4.07421 6.24169 3.62602 7.08567 3.36133 7.96319L10.6141 16.05C11.8766 15.7927 13.0867 15.1641 14.0676 14.1836Z" fill="#FDC816"/>
<path d="M8.54115 3.19839C7.90849 3.32926 7.28924 3.5535 6.70557 3.86842L15.6775 11.6827C15.8891 11.1123 16.0208 10.5233 16.0736 9.93291L8.54115 3.19839Z" fill="#FDC816"/>
</g>
<path opacity="0.5" d="M6.15 7.52997H7.02L7.035 10.085L7.995 10.115V10.94H6.195L6.15 7.52997ZM9.4023 8.27997C9.32564 8.29664 9.25897 8.37497 9.2023 8.51497C9.14897 8.65497 9.11397 8.82164 9.0973 9.01497C9.08397 9.20497 9.0823 9.39497 9.0923 9.58497C9.10564 9.77497 9.14397 9.93664 9.2073 10.07C9.27064 10.2 9.35064 10.265 9.4473 10.265C9.6073 10.265 9.71564 10.0933 9.7723 9.74997C9.82897 9.40664 9.81897 9.06997 9.7423 8.73997C9.66897 8.40664 9.55564 8.2533 9.4023 8.27997ZM9.5073 11.075C9.3373 11.0816 9.1723 11.0466 9.0123 10.97C8.8523 10.8933 8.71064 10.7833 8.5873 10.64C8.46397 10.4966 8.3623 10.32 8.2823 10.11C8.20564 9.89664 8.1623 9.6683 8.1523 9.42497C8.14564 9.25164 8.15564 9.07497 8.1823 8.89497C8.2123 8.71164 8.26064 8.53164 8.3273 8.35497C8.3973 8.17497 8.4823 8.01664 8.5823 7.87997C8.6823 7.7433 8.8073 7.6333 8.9573 7.54997C9.11064 7.4633 9.27897 7.42164 9.4623 7.42497C9.6223 7.4283 9.77564 7.46997 9.9223 7.54997C10.0723 7.62997 10.2073 7.74497 10.3273 7.89497C10.4506 8.04164 10.5473 8.2383 10.6173 8.48497C10.6906 8.7283 10.7256 9.00164 10.7223 9.30497C10.719 9.4683 10.7023 9.62997 10.6723 9.78997C10.6423 9.94997 10.5956 10.1066 10.5323 10.26C10.469 10.41 10.3906 10.5433 10.2973 10.66C10.2073 10.7766 10.094 10.8733 9.9573 10.95C9.82064 11.0233 9.67064 11.065 9.5073 11.075ZM11.4937 10.985L10.8487 7.54497C10.832 7.55497 11.1403 7.54664 11.7737 7.51997C11.817 7.51664 11.8387 7.51497 11.8387 7.51497L12.1387 9.97997H12.1837L12.4837 7.51497L13.5087 7.57497L12.7137 10.97L11.4937 10.985Z" fill="black"/>
</svg>
