<svg width="50" height="49" viewBox="0 0 50 49" fill="none" xmlns="http://www.w3.org/2000/svg">
<path d="M7.49204 15.831L7.51233 15.6745C7.52294 15.5927 7.54607 15.513 7.58091 15.4382C7.62635 15.3407 7.6909 15.2533 7.77074 15.1811L7.93009 15.0371C8.00044 14.9735 8.07553 14.9154 8.15471 14.8632L9.7283 13.8269L20.3154 6.81133L23.5916 4.49302C23.6299 4.46595 23.6708 4.44284 23.7137 4.42403C23.8958 4.3443 24.1034 4.34671 24.2835 4.43064L24.3214 4.44831L34.4747 10.2359L39.6524 13.0613C39.7343 13.1059 39.8122 13.1574 39.8853 13.2152L40.0265 13.3266C40.0766 13.3661 40.1198 13.4137 40.1543 13.4674C40.1842 13.5138 40.2073 13.5643 40.2229 13.6172L40.3075 13.9049L41.7058 23.0151L42.8176 31.1222C42.8303 31.2142 42.8339 31.3072 42.8284 31.4L42.824 31.4753C42.8164 31.6054 42.7842 31.7329 42.7291 31.851C42.7038 31.9055 42.6737 31.9576 42.6393 32.0068L42.6238 32.029C42.5573 32.124 42.4789 32.21 42.3903 32.2848L41.8786 32.7174L41.1416 33.22L26.9345 42.2497L26.481 42.51C26.3771 42.5696 26.2654 42.6146 26.1492 42.6438L26.1338 42.6476C25.9675 42.6893 25.7943 42.6956 25.6254 42.6663C25.5552 42.6541 25.4861 42.6358 25.419 42.6116L23.5109 41.9235L10.2367 36.4794L9.86821 36.3077C9.74985 36.2526 9.65274 36.1603 9.59166 36.0449C9.55571 35.977 9.53316 35.9028 9.52524 35.8263L7.62607 17.4998L7.48821 16.2687C7.47192 16.1232 7.4732 15.9762 7.49204 15.831Z" fill="black"/>
<g opacity="0.3" filter="url(#filter0_f_306_1560)">
<path d="M12.165 18.025L12.1814 17.9062C12.1901 17.8434 12.2082 17.7823 12.2349 17.7248C12.2699 17.6497 12.3192 17.5822 12.38 17.5261L12.4998 17.4155C12.5535 17.366 12.6108 17.3205 12.6713 17.2795L13.8599 16.4742L21.8631 11.0187L24.3422 9.2169C24.3703 9.19648 24.4004 9.17895 24.432 9.16455C24.5697 9.10179 24.7281 9.10246 24.8653 9.1664L24.8889 9.17737L32.4567 13.5158L36.3164 15.6315C36.3778 15.6652 36.4362 15.7041 36.4909 15.7479L36.5945 15.8309C36.6323 15.8611 36.6647 15.8976 36.6904 15.9386C36.7122 15.9735 36.7289 16.0114 36.7399 16.0511L36.8012 16.2714L37.7721 23.2257L38.5366 29.4142C38.5453 29.4853 38.5473 29.557 38.5424 29.6285L38.5385 29.6847C38.5316 29.7848 38.5064 29.8827 38.464 29.9736C38.4445 30.0154 38.4215 30.0555 38.3953 30.0934L38.3836 30.1103C38.3328 30.1837 38.273 30.2503 38.2055 30.3087L37.8185 30.6433L37.2613 31.0339L26.5248 38.0607L26.1801 38.265C26.1031 38.3105 26.0203 38.3453 25.9339 38.3683L25.9183 38.3725C25.7948 38.4053 25.6658 38.4115 25.5398 38.3906C25.4867 38.3818 25.4346 38.3683 25.384 38.3502L23.9591 37.8406L14.0468 33.7916L13.7747 33.6648C13.6847 33.6228 13.6112 33.552 13.566 33.4635C13.54 33.4128 13.5241 33.3575 13.5189 33.3008L12.2511 19.3008L12.1584 18.3623C12.1474 18.25 12.1496 18.1368 12.165 18.025Z" fill="url(#paint0_linear_306_1560)"/>
</g>
<path d="M12.165 18.025L12.1814 17.9062C12.1901 17.8434 12.2082 17.7823 12.2349 17.7248C12.2699 17.6497 12.3192 17.5822 12.38 17.5261L12.4998 17.4155C12.5535 17.366 12.6108 17.3205 12.6713 17.2795L13.8599 16.4742L21.8631 11.0187L24.3422 9.2169C24.3703 9.19648 24.4004 9.17895 24.432 9.16455C24.5697 9.10179 24.7281 9.10246 24.8653 9.1664L24.8889 9.17737L32.4567 13.5158L36.3164 15.6315C36.3778 15.6652 36.4362 15.7041 36.4909 15.7479L36.5945 15.8309C36.6323 15.8611 36.6647 15.8976 36.6904 15.9386C36.7122 15.9735 36.7289 16.0114 36.7399 16.0511L36.8012 16.2714L37.7721 23.2257L38.5366 29.4142C38.5453 29.4853 38.5473 29.557 38.5424 29.6285L38.5385 29.6847C38.5316 29.7848 38.5064 29.8827 38.464 29.9736C38.4445 30.0154 38.4215 30.0555 38.3953 30.0934L38.3836 30.1103C38.3328 30.1837 38.273 30.2503 38.2055 30.3087L37.8185 30.6433L37.2613 31.0339L26.5248 38.0607L26.1801 38.265C26.1031 38.3105 26.0203 38.3453 25.9339 38.3683L25.9183 38.3725C25.7948 38.4053 25.6658 38.4115 25.5398 38.3906C25.4867 38.3818 25.4346 38.3683 25.384 38.3502L23.9591 37.8406L14.0468 33.7916L13.7747 33.6648C13.6847 33.6228 13.6112 33.552 13.566 33.4635C13.54 33.4128 13.5241 33.3575 13.5189 33.3008L12.2511 19.3008L12.1584 18.3623C12.1474 18.25 12.1496 18.1368 12.165 18.025Z" fill="url(#paint1_linear_306_1560)"/>
<path d="M17.3064 23.0376L16.7511 19.9343C16.749 19.8809 16.7666 19.8287 16.8004 19.7875L16.8183 19.7657C16.8356 19.7446 16.8558 19.726 16.8782 19.7105L17.8281 19.0543L21.9277 16.2504L23.8218 14.9561C24.0581 14.7945 24.3488 14.7329 24.6304 14.7847C24.721 14.8013 24.8091 14.8294 24.8926 14.8683L26.5482 15.6396L30.1608 17.7291L31.8114 18.6606L32.2026 18.9005C32.3087 18.9656 32.4046 19.046 32.4872 19.1391C32.5678 19.2298 32.6349 19.3317 32.6864 19.4415L32.7551 19.5879C32.8796 19.9164 32.9781 20.2542 33.0496 20.5981L33.148 21.0714L33.4821 23.6653L33.6918 26.5263L33.6934 26.5686C33.6964 26.6479 33.6703 26.7257 33.6199 26.7871C33.6077 26.8019 33.5943 26.8156 33.5797 26.8281L33.0475 27.2827L31.9985 28.0131L31.0428 28.5432L28.8046 29.8574L27.2885 30.6953L26.4293 31.1078L25.3458 31.5631C25.2742 31.5932 25.1967 31.6062 25.1192 31.6013C25.0632 31.5977 25.0082 31.5847 24.9564 31.5628L23.1879 30.8167L20.625 29.7853L19.152 29.099L18.9626 29.0108C18.884 28.9742 18.8129 28.9232 18.753 28.8605C18.7201 28.8261 18.6908 28.7885 18.6655 28.7481L18.6464 28.7174C18.5892 28.626 18.5465 28.5263 18.5197 28.4219L18.2047 27.1948L17.3064 23.0376Z" fill="#00E0F8"/>
<path d="M15.3805 19.4211L12.6636 18.0383C12.5696 17.9905 12.4568 18.0516 12.4456 18.1565C12.4445 18.1664 12.4444 18.1764 12.4454 18.1863L13.2474 26.917L13.6479 32.1426L13.6714 32.4727C13.6928 32.7715 14.0318 32.9328 14.2771 32.7609L17.234 29.9935L17.7401 29.4951C17.8133 29.423 17.877 29.3419 17.9296 29.2537L17.9443 29.2292C18.0077 29.123 18.0518 29.0064 18.0745 28.8848C18.0888 28.8082 18.0946 28.7303 18.0916 28.6524L18.0866 28.5214L17.7403 26.4907L16.7452 21.557L16.5179 20.7885C16.3426 20.1959 15.9313 19.7014 15.3805 19.4211Z" fill="#02E3FB"/>
<path d="M17.4085 30.1559L15.1389 32.2571C14.5961 32.7596 14.7678 33.657 15.4577 33.9236L18.061 34.93L19.6711 35.6801L21.2748 36.2647L22.7447 36.8682L24.1355 37.4345C24.7933 37.7024 25.5129 37.2182 25.5126 36.508L25.5125 36.2071L25.4402 34.3041L25.3836 32.8148L25.365 32.6771C25.3462 32.538 25.3117 32.4016 25.262 32.2705C25.1917 32.133 25.0736 32.0258 24.93 31.9692L20.6094 30.2655L19.3451 29.7577L18.8398 29.5223C18.7886 29.4985 18.7345 29.4817 18.6789 29.4725C18.5569 29.4523 18.4318 29.4688 18.3193 29.5201L18.2272 29.562L17.9315 29.7493L17.4085 30.1559Z" fill="#0376C1"/>
<path d="M25.6983 34.018L25.6669 32.4621C25.6627 32.2537 25.7572 32.0556 25.9217 31.9277L26.9085 31.3309L32.1104 28.3089L33.5579 27.4391L33.7456 27.3201C33.8129 27.2775 33.8973 27.2721 33.9695 27.3057C33.9835 27.3123 33.9969 27.3202 34.0094 27.3294L34.8907 27.9787L36.7905 29.2702L37.5057 29.7197C37.6941 29.8381 37.8618 29.9867 38.0019 30.1596L38.0019 30.1599L37.118 30.8045L32.6853 33.6971L29.3358 35.8752L26.5092 37.6468L26.0585 37.9139C26.0519 37.9178 26.0448 37.9211 26.0375 37.9237C25.9857 37.9418 25.9282 37.9216 25.8991 37.8751L25.8936 37.8662C25.8828 37.849 25.8762 37.8295 25.8743 37.8093L25.8209 37.2449L25.7581 35.5901L25.6983 34.018Z" fill="#0385CC"/>
<path d="M34.7311 17.5826L36.2937 16.1974L28.9625 11.8879L25.5897 9.9102L24.7731 9.52978C24.7242 9.50696 24.6714 9.49347 24.6175 9.49001L24.6132 9.48973C24.537 9.48483 24.4608 9.50086 24.393 9.53608C24.3524 9.55716 24.3155 9.58474 24.2838 9.61772L24.2646 9.63772C24.2022 9.7026 24.1556 9.78092 24.1283 9.86666L24.1183 9.89789C24.0927 9.9783 24.0813 10.0625 24.0845 10.1469L24.1173 11.0123L24.333 13.1446L24.3915 13.454C24.4085 13.5444 24.4384 13.6318 24.4803 13.7137C24.5109 13.7735 24.5476 13.8299 24.5899 13.882L24.6122 13.9096C24.6956 14.0125 24.7943 14.1021 24.9047 14.1752L25.9807 14.8876L29.0079 16.623L29.8674 17.1047L31.4495 18.0043L32.4118 18.5339L32.5153 18.5821C32.6713 18.6548 32.8451 18.6807 33.0155 18.6567C33.1086 18.6435 33.199 18.6157 33.2833 18.5743L33.5177 18.4592C33.6726 18.3832 33.8192 18.2916 33.9554 18.1857L34.7311 17.5826Z" fill="#00BDE6"/>
<path d="M23.7873 11.1839L23.5922 10.2456C23.5854 10.2131 23.5637 10.1857 23.5336 10.1716C23.4996 10.1558 23.4597 10.1593 23.429 10.1807L16.0701 15.3096L13.2809 17.1799L12.6926 17.6373L15.3023 19.0157L16.0902 19.3828C16.3538 19.5056 16.6549 19.5205 16.9294 19.4245L16.9511 19.4169C17.0493 19.3825 17.1425 19.3353 17.2282 19.2763L20.903 16.7485L23.3413 15.0038C23.5497 14.8547 23.7413 14.6836 23.9131 14.4935L23.9437 14.4492C24.0073 14.3572 24.0469 14.2508 24.0588 14.1397C24.0632 14.0979 24.0637 14.0557 24.0603 14.0138L23.9404 12.5556L23.7873 11.1839Z" fill="#2FF3FB"/>
<path opacity="0.07" d="M20.2539 14.2093L16.6616 14.9347L18.1714 13.9313L20.1698 12.5054L23.3079 10.3427C23.4251 10.2619 23.5871 10.3206 23.6252 10.4578L23.7531 11.1676L23.9373 12.4726L24.0345 14.1433C22.7808 13.9353 21.4996 13.9577 20.2539 14.2093Z" fill="black"/>
<path d="M38.2511 29.6254L34.1026 26.7174L33.2967 19.6774L33.2497 19.2234C33.2456 19.1846 33.2472 19.1455 33.2544 19.1072C33.2657 19.0468 33.2906 18.9898 33.3272 18.9405L33.414 18.8234C33.4682 18.7504 33.5317 18.6849 33.603 18.6285L36.4683 16.3597L38.2511 29.6254Z" fill="#036AB8"/>
<path opacity="0.15" d="M23.8478 32.0455L17.9927 34.8983L24.4758 37.5699C24.9772 37.7765 25.5241 37.3951 25.5035 36.8532L25.4592 34.8007L25.3886 32.9436C25.3854 32.858 25.3757 32.7727 25.3598 32.6884L25.3174 32.4638C25.3056 32.4014 25.2822 32.3417 25.2486 32.2878C25.1887 32.192 25.0987 32.1187 24.9928 32.0794L24.7777 31.9997C24.4745 31.8873 24.1385 31.9039 23.8478 32.0455Z" fill="black"/>
<path opacity="0.15" d="M30.7284 31.9379L26.0225 37.8625C25.9867 37.9075 25.9172 37.9036 25.8867 37.8549C25.8806 37.8452 25.8766 37.8343 25.875 37.823L25.787 37.229L25.721 35.4915L25.6707 34.1677L25.5619 32.1361C25.5576 32.0558 25.6069 31.9822 25.6829 31.9556C25.995 31.8464 26.2944 31.7039 26.576 31.5306L27.7307 30.8198L29.281 29.9979L30.9931 29.0075L32.2103 28.2742L33.7406 27.4141C33.7746 27.395 33.8072 27.3734 33.838 27.3495L33.8845 27.3133C33.9524 27.2605 34.0067 27.1923 34.0431 27.1143C34.0683 27.0602 34.0844 27.0023 34.0907 26.943L34.0959 26.8942C34.1026 26.8318 34.1022 26.7689 34.0948 26.7066L33.4126 20.9506L37.4756 28.6953L37.887 29.781L37.5882 29.8856L31.3895 31.4678C31.1291 31.5589 30.8999 31.7219 30.7284 31.9379Z" fill="black"/>
<path opacity="0.09" d="M14.9095 24.6028C14.8821 24.5901 13.5858 23.7152 12.9412 23.2794L13.7033 32.7244C13.704 32.7332 13.7068 32.7417 13.7115 32.7492C13.8255 32.9316 14.0672 32.9842 14.2467 32.8659L14.2528 32.8618C14.2712 32.8497 14.2885 32.8361 14.3046 32.821L17.2374 30.0762L17.8607 29.4426C17.9199 29.3825 17.9684 29.3126 18.004 29.2361C18.0302 29.1798 18.0493 29.1205 18.0607 29.0595L18.0674 29.0236C18.0886 28.9102 18.0906 28.7941 18.0734 28.6801L17.8747 27.366L16.5884 26.279L16.0308 25.7754L15.8346 25.6007C15.7104 25.4902 15.5999 25.3654 15.5053 25.2287C15.4342 25.1261 15.3543 25.0299 15.2656 24.9421C15.1124 24.7902 14.9302 24.6125 14.9095 24.6028Z" fill="black"/>
<path opacity="0.08" d="M25.0104 9.72165L26.4603 15.1111L29.0078 16.623L31.1037 17.762L32.0006 18.3424L32.3995 18.5282C32.4985 18.5744 32.6034 18.6069 32.7112 18.6247L32.7269 18.6273C32.7886 18.6376 32.8511 18.6422 32.9137 18.6411C33.073 18.6383 33.2295 18.5986 33.3709 18.5252L33.4859 18.4655L33.9777 18.1257L33.0336 16.3042L32.8437 15.8029C32.7959 15.6768 32.7358 15.5557 32.6643 15.4413C32.5929 15.3269 32.5328 15.2058 32.485 15.0797L31.9211 13.5914L25.0104 9.72165Z" fill="black"/>
<path opacity="0.07" d="M30.905 18.7262L30.9172 18.163L26.5167 15.7065L28.4785 24.8293L29.2649 29.5845L31.7024 28.2005L32.6861 27.521L33.2744 27.0636C33.5034 26.8583 33.6404 26.5697 33.6547 26.2625L33.6694 25.9472L33.538 24.2605L33.3275 25.3118C33.2795 25.5517 33.203 25.7851 33.0997 26.0069L33.0313 26.115C32.9854 26.1877 32.8834 26.1979 32.824 26.1358C32.8088 26.1198 32.7978 26.1003 32.792 26.079L31.0392 19.6015L31.0236 19.5409C30.9552 19.2743 30.9154 19.0012 30.905 18.7262Z" fill="black"/>
<path opacity="0.05" d="M24.4615 15.2136L25.7315 31.3513C25.3308 31.5272 24.8746 31.5271 24.4739 31.3512L19.0456 28.9679L21.1086 16.8438L23.9554 14.9663C23.9833 14.9479 24.0137 14.934 24.0458 14.9248C24.2445 14.8681 24.4453 15.0076 24.4615 15.2136Z" fill="black"/>
<path opacity="0.5" d="M14.3441 17.9396L13.549 18.0362L14.6858 18.7284L16.056 19.3668L16.2049 19.4361C16.309 19.4846 16.4248 19.5019 16.5385 19.4858C16.6005 19.4771 16.6607 19.4585 16.717 19.4309L17.2267 19.1807L18.3442 18.4822L22.1793 15.7988L21.7454 15.9241C20.8155 16.1927 19.9064 16.529 19.0256 16.9303C17.4991 17.4087 15.9321 17.7465 14.3441 17.9396Z" fill="#7DFEFE"/>
<path opacity="0.1" d="M20.3043 30.2046L16.7625 34.4063L15.3752 33.8808C14.7246 33.6344 14.5589 32.7906 15.0679 32.3164L16.4 31.0677L17.3432 30.2067L17.8661 29.8001L18.2118 29.5314C18.2427 29.5074 18.2763 29.487 18.312 29.4708L18.3166 29.4687C18.4475 29.409 18.598 29.4097 18.7285 29.4704L20.3043 30.2046Z" fill="black"/>
<path d="M20.24 20.448H21.632L21.656 24.536L23.192 24.584V25.904H20.312L20.24 20.448ZM23.8449 25.976L22.8129 20.472C22.7862 20.488 23.2795 20.4747 24.2929 20.432C24.3622 20.4267 24.3969 20.424 24.3969 20.424L24.8769 24.368H24.9489L25.4289 20.424L27.0689 20.52L25.7969 25.952L23.8449 25.976ZM30.4149 22.008L29.5909 22.608C29.8469 22.7147 30.0682 22.8533 30.2549 23.024C30.4469 23.1893 30.5935 23.392 30.6949 23.632C30.8015 23.8667 30.8442 24.1173 30.8229 24.384C30.7749 24.832 30.5695 25.2187 30.2069 25.544C29.8442 25.8693 29.4309 26.0507 28.9669 26.088C28.3269 26.136 27.7269 25.92 27.1669 25.44L27.0949 25.392L27.8869 24.48L27.9589 24.552C28.2842 24.8187 28.5962 24.9307 28.8949 24.888C29.0655 24.8613 29.2202 24.792 29.3589 24.68C29.5029 24.5627 29.5802 24.424 29.5909 24.264C29.6015 24.1253 29.5509 24.0053 29.4389 23.904C29.3269 23.8027 29.1775 23.7307 28.9909 23.688C28.8095 23.6453 28.6442 23.616 28.4949 23.6C28.3455 23.5787 28.2069 23.568 28.0789 23.568H27.9829L27.6709 22.512L28.7509 21.72H27.4309L27.4549 20.52L30.4149 20.544V22.008Z" fill="white"/>
<path opacity="0.6" d="M15.1314 25.3054L13.0295 27.4073L12.1842 18.1098C12.1513 17.7475 12.3176 17.396 12.6186 17.1917L24.202 9.33156C24.5143 9.11966 24.9193 9.1016 25.2492 9.28488L36.3911 15.4748C36.6742 15.6321 36.8636 15.9167 36.8994 16.2386L37.741 23.8129L36.8667 23.2301C36.5578 23.0242 36.195 22.9143 35.8239 22.9143C35.3253 22.9143 34.8471 22.7163 34.4945 22.3637L33.8993 21.7684C33.7649 21.6341 33.6176 21.5133 33.4595 21.4079C32.7552 20.9384 31.8803 20.8018 31.0664 21.0344L30.1017 21.31C29.5084 21.4795 28.9512 21.7562 28.4575 22.1265L27.4071 22.9143L27.1214 23.1285C26.1692 23.8427 24.9376 24.0701 23.7931 23.7431C22.9349 23.498 22.0179 23.5622 21.2024 23.9247L19.2839 24.7773C18.7322 25.0225 18.1049 25.0343 17.5443 24.8101C16.7133 24.4777 15.7642 24.6725 15.1314 25.3054Z" fill="black"/>
<defs>
<filter id="filter0_f_306_1560" x="7.15137" y="4.11798" width="36.3936" height="39.2847" filterUnits="userSpaceOnUse" color-interpolation-filters="sRGB">
<feFlood flood-opacity="0" result="BackgroundImageFix"/>
<feBlend mode="normal" in="SourceGraphic" in2="BackgroundImageFix" result="shape"/>
<feGaussianBlur stdDeviation="2.5" result="effect1_foregroundBlur_306_1560"/>
</filter>
<linearGradient id="paint0_linear_306_1560" x1="12.0856" y1="18.0452" x2="38.06" y2="31.1003" gradientUnits="userSpaceOnUse">
<stop stop-color="#42FEFB"/>
<stop offset="1" stop-color="#0FE9EA"/>
</linearGradient>
<linearGradient id="paint1_linear_306_1560" x1="12.0856" y1="18.0452" x2="38.06" y2="31.1003" gradientUnits="userSpaceOnUse">
<stop stop-color="#42FEFB"/>
<stop offset="1" stop-color="#0FE9EA"/>
</linearGradient>
</defs>
</svg>
