<svg width="74" height="76" viewBox="0 0 74 76" fill="none" xmlns="http://www.w3.org/2000/svg">
<path opacity="0.3" d="M26.8839 3.36952C15.9369 5.80352 4.88392 11.7315 1.26992 22.4375C-2.32008 33.0735 2.21895 44.7825 8.41995 54.1405C13.1829 61.3275 19.1439 67.9815 26.8159 71.9165C34.4869 75.8515 44.0869 76.7065 51.6639 72.5915C59.3629 68.4095 63.742 60.0555 67.06 51.9465C71.12 42.0235 74.0379 29.7825 71.1059 19.1675C67.0929 4.63953 47.9819 1.2075 34.9129 2.1815C32.3209 2.3755 29.6059 2.76452 26.8839 3.36952Z" fill="#111111"/>
<path d="M28.59 1.34142C17.643 3.77642 6.58998 9.70341 2.97598 20.4094C-0.614021 31.0454 3.925 42.7544 10.126 52.1124C14.889 59.2994 20.85 65.9534 28.522 69.8884C36.193 73.8234 45.793 74.6784 53.37 70.5634C61.069 66.3824 65.448 58.0274 68.766 49.9184C72.826 39.9954 75.744 27.7544 72.812 17.1394C68.799 2.61142 49.688 -0.820571 36.619 0.153429C34.027 0.347429 31.312 0.736418 28.59 1.34142Z" fill="#111111"/>
<path d="M41.282 70.3675C66.713 68.7145 80.639 18.9665 61.889 6.2225C46.084 -4.5195 7.54103 5.81248 4.89103 20.9005C2.09403 36.8265 16.484 71.9795 41.282 70.3675Z" fill="#1C1C1C"/>
<path opacity="0.1" d="M45.9922 63.5394C49.3752 61.1604 51.5492 57.9354 53.3802 54.7254C56.8592 48.6274 59.4082 42.2574 60.9512 35.8084C62.3182 30.0944 62.8872 24.2134 61.2312 18.7524C59.5752 13.2914 55.4742 8.26342 49.1552 5.77142C42.5542 3.16842 34.0362 3.63242 26.9982 6.49542C19.9592 9.35942 14.4172 14.4414 11.2932 20.1124C8.17018 25.7834 7.36015 32.0004 8.25515 37.8754C9.21615 44.1904 12.1812 50.1564 16.6502 55.2434C20.4822 59.6054 26.5412 65.4014 33.5862 66.5874C37.7122 67.2824 42.7502 65.8204 45.9922 63.5394Z" fill="#D2C4E6"/>
<path opacity="0.1" d="M27.639 14.7063C29.217 15.7293 29.941 17.4194 29.764 19.0594C29.588 20.7004 28.583 22.2804 27.193 23.5794C26.071 24.6274 24.663 25.5274 23.033 25.9994C21.403 26.4714 19.539 26.4774 18.083 25.8484C15.534 24.7454 14.893 21.9914 15.823 19.7484C17.371 16.0154 22.647 11.4723 27.639 14.7063ZM52.985 33.2284C52.627 43.3544 45.667 53.5034 34.852 59.6694C41.904 57.8214 48.748 54.8794 52.185 49.7234C55.622 44.5684 55.287 38.5054 52.985 33.2284Z" fill="#D2C4E6"/>
<path d="M24.981 37.2114C24.52 37.2114 24.059 37.0354 23.708 36.6844L10.914 23.8904C10.211 23.1874 10.211 22.0474 10.914 21.3444C11.617 20.6414 12.757 20.6414 13.46 21.3444L24.982 32.8654L36.503 21.3444C37.206 20.6414 38.346 20.6414 39.049 21.3444C39.752 22.0474 39.752 23.1874 39.049 23.8904L26.255 36.6844C25.903 37.0354 25.442 37.2114 24.981 37.2114Z" fill="#F2EEEB"/>
<path d="M50.5698 37.2114C50.1088 37.2114 49.6478 37.0354 49.2968 36.6844L36.5028 23.8904C35.7998 23.1874 35.7998 22.0474 36.5028 21.3444C37.2058 20.6414 38.3458 20.6414 39.0488 21.3444L50.5698 32.8654L62.0908 21.3444C62.7938 20.6414 63.9338 20.6414 64.6368 21.3444C65.3398 22.0474 65.3398 23.1874 64.6368 23.8904L51.8428 36.6834C51.4918 37.0354 51.0308 37.2114 50.5698 37.2114Z" fill="#F2EEEB"/>
<path d="M37.7761 62.8004C36.7811 62.8004 35.9761 61.9944 35.9761 60.9994V22.6164C35.9761 21.6224 36.7821 20.8164 37.7761 20.8164C38.7701 20.8164 39.5761 21.6224 39.5761 22.6164V60.9994C39.5761 61.9944 38.7701 62.8004 37.7761 62.8004Z" fill="#F2EEEB"/>
</svg>
