<svg width="58" height="77" viewBox="0 0 58 77" fill="none" xmlns="http://www.w3.org/2000/svg">
<path opacity="0.3" d="M29.2315 2.02837C9.21545 1.90437 -10.1966 40.8874 6.06745 65.3444C20.2374 86.6544 51.0385 75.0694 55.2685 46.1034C58.8105 21.8434 46.4484 2.13537 29.2315 2.02837Z" fill="#111111"/>
<path d="M30.9375 0.000295097C10.9215 -0.123705 -8.4905 38.8593 7.7735 63.3163C21.9435 84.6253 52.7455 73.0413 56.9745 44.0753C60.5165 19.8153 48.1545 0.107295 30.9375 0.000295097Z" fill="#111111"/>
<path d="M30.9094 0.814252C11.3324 0.694252 -7.65457 38.1712 8.25243 61.6832C22.1114 82.1692 52.2384 71.0322 56.3754 43.1862C59.8394 19.8632 47.7484 0.917252 30.9094 0.814252Z" fill="#1C1C1C"/>
<path opacity="0.1" d="M45.3486 57.6854C46.8536 55.7384 48.1326 53.6354 49.1436 51.4804C51.8586 45.6974 53.0886 39.3234 53.7246 32.9664C54.9326 20.8804 47.4226 4.91238 34.6705 2.08138C26.0476 0.166385 16.6146 5.80038 11.5976 12.5164C6.82555 18.9044 4.69555 26.9234 3.92555 34.8604C3.39855 40.2994 3.47257 45.8704 4.98357 51.1224C7.76457 60.7924 16.1655 68.2424 26.5495 68.1294C34.1435 68.0464 40.7866 63.5864 45.3486 57.6854Z" fill="#D2C4E6"/>
<path opacity="0.1" d="M24.5325 13.5523C25.0275 15.5203 24.4095 17.7043 23.0425 19.2033C21.6755 20.7033 19.6195 21.5143 17.5905 21.4763C16.3935 21.4543 15.1575 21.1263 14.2745 20.3183C12.5765 18.7633 12.7605 15.8843 14.0815 13.9993C16.6305 10.3603 22.9865 7.41128 24.5325 13.5523ZM38.8635 47.7373C37.8285 54.1013 33.0905 59.7243 26.9935 61.8233C29.1895 63.1773 32.1065 62.7413 34.2525 61.3093C36.3975 59.8773 37.7835 57.5093 38.5035 55.0323C39.2225 52.5543 38.7985 50.3163 38.8635 47.7373Z" fill="#D2C4E6"/>
<path d="M30.1494 50.0943C29.6884 50.0943 29.2274 49.9183 28.8764 49.5673L16.0824 36.7723C15.3794 36.0693 15.3794 34.9293 16.0824 34.2263L28.8764 21.4323C29.5794 20.7293 30.7194 20.7293 31.4224 21.4323L44.2164 34.2263C44.9194 34.9293 44.9194 36.0693 44.2164 36.7723L31.4224 49.5673C31.0714 49.9183 30.6104 50.0943 30.1494 50.0943ZM19.9014 35.4993L30.1494 45.7473L40.3974 35.4993L30.1494 25.2513L19.9014 35.4993Z" fill="#F2EEEB"/>
</svg>
