<svg width="110" height="109" viewBox="0 0 110 109" fill="none" xmlns="http://www.w3.org/2000/svg">
<path d="M81.6773 43.3059C81.6773 43.3059 83.2832 40.8604 83.2122 40.8061C83.1412 40.7518 81.452 35.1142 81.452 35.1142L74.949 28.2725L70.3669 28.7766L69.179 30.4977L66.759 34.0042L63.709 38.4234L71.8805 42.9362L74.3305 44.2892L81.6773 43.3059Z" fill="url(#paint0_linear_320_736)"/>
<path opacity="0.4" d="M81.6769 43.3059C81.6769 43.3059 83.2829 40.8604 83.2119 40.8061C83.1409 40.7518 81.4517 35.1142 81.4517 35.1142L74.9487 28.2725L70.3666 28.7766L69.1787 30.4977C72.2641 28.7952 76.0239 30.7461 76.5252 34.5733C76.9116 37.5222 74.1951 40.7609 71.8805 42.9362L74.3304 44.2892L81.6769 43.3059Z" fill="url(#paint1_linear_320_736)"/>
<path opacity="0.2" d="M68.7934 32.6006C68.8978 32.4641 71.3647 28.0306 73.5071 31.1759C73.5071 31.1759 76.5832 28.92 77.0158 34.4451C77.0158 34.4451 80.2 34.7603 80.8946 37.871C81.5895 40.9817 80.1818 42.0584 79.1106 41.6189C79.1106 41.6189 78.4319 42.5074 77.2664 42.0498C76.1008 41.5921 78.6569 43.7098 78.6569 43.7098L81.3324 43.7562L83.1285 41.8844L82.0656 36.1926L77.2789 29.7761L71.3871 27.4393L68.123 30.5734L68.7934 32.6006Z" fill="url(#paint2_linear_320_736)"/>
<path d="M78.2101 38.6801C78.2101 38.6801 75.3148 38.9717 74.7518 39.3323C74.1885 39.6929 73.2568 36.3483 73.2568 36.3483L74.7611 33.7674L76.9836 34.7824L78.2101 38.6801Z" fill="url(#paint3_linear_320_736)"/>
<path opacity="0.4" d="M78.2101 38.6801C78.2101 38.6801 75.3148 38.9717 74.7518 39.3323C74.1885 39.6929 73.2568 36.3483 73.2568 36.3483L74.7611 33.7674L76.9836 34.7824L78.2101 38.6801Z" fill="url(#paint4_linear_320_736)"/>
<path d="M80.0733 45.1267L77.6226 42.4384L73.6062 38.0322L74.6106 32.0186C74.6106 32.0186 73.6202 32.8586 71.939 34.2782C71.0461 35.032 69.9585 35.9495 68.721 36.9919C65.7465 39.4962 61.906 42.7194 57.8223 46.1215C57.7231 46.2038 57.6241 46.2863 57.5249 46.3688C57.4205 46.4556 57.3161 46.5428 57.211 46.63C56.8933 46.8948 56.574 47.1603 56.254 47.4266C55.1211 48.3686 53.9752 49.3189 52.83 50.2664C52.3734 50.6439 51.917 51.0212 51.4614 51.3973C44.4389 57.195 37.6259 62.7164 33.9952 65.3789C32.9011 66.1811 32.0962 66.724 31.6611 66.9364C31.6611 66.9364 32.3266 68.5837 33.5243 70.3977C34.3376 71.6288 35.3963 72.9368 36.6586 73.8587C37.7704 74.6703 39.0398 75.1822 40.4389 75.078C40.4389 75.078 40.494 74.9577 40.6372 74.7152C41.2817 73.6199 43.7133 70.0307 50.9109 63.7726C53.0781 61.8884 55.4994 59.8489 58.0287 57.8334C58.4241 57.5185 58.8223 57.2036 59.2227 56.8904C60.6204 55.7959 62.0436 54.7173 63.4685 53.6831C64.1332 53.2007 64.7982 52.7279 65.4609 52.2678C65.721 52.0873 65.9804 51.9089 66.2395 51.7326C66.24 51.7326 66.24 51.7326 66.24 51.7326C66.4351 51.5997 66.6299 51.4683 66.8244 51.3381C71.2088 48.4017 75.4278 46.1156 78.7697 45.3509C79.2204 45.2478 79.6557 45.1721 80.0733 45.1267Z" fill="url(#paint5_radial_320_736)"/>
<path opacity="0.4" d="M77.6461 43.7494L77.6226 42.4384L73.6062 38.0322L74.6106 32.0186C74.6106 32.0186 73.6202 32.8586 71.939 34.2782C64.1929 40.8197 41.7796 59.67 33.9952 65.3789C32.9011 66.1811 32.0959 66.724 31.6611 66.9364C31.6611 66.9364 33.5368 71.5794 36.6586 73.8587C39.8099 68.3297 46.6852 57.6106 53.1201 54.2007C61.7586 49.6238 77.6461 43.7494 77.6461 43.7494Z" fill="url(#paint6_linear_320_736)"/>
<path opacity="0.2" d="M80.0728 45.1267L73.6057 38.0322L74.6101 32.0186C74.6101 32.0186 73.6197 32.8586 71.9386 34.2782C72.2088 35.3938 72.0152 36.9315 69.8779 38.3926C69.8779 38.3926 72.3208 39.9204 73.6769 41.6895C75.0331 43.459 74.2756 44.9672 74.2756 44.9672C74.2756 44.9672 76.6585 44.9105 78.7687 45.3512C79.2202 45.2478 79.6555 45.1721 80.0728 45.1267Z" fill="url(#paint7_linear_320_736)"/>
<path opacity="0.2" d="M40.4387 75.0782C40.4387 75.0782 40.4937 74.9578 40.6369 74.7153C38.027 73.5869 38.3419 71.3263 38.3419 71.3263C38.3419 71.3263 37.2174 71.9365 35.0686 70.9028C33.6105 70.2013 33.7527 67.222 33.9952 65.379C32.9011 66.1812 32.0959 66.7241 31.6611 66.9365C31.6611 66.9365 35.1099 75.4749 40.4387 75.0782Z" fill="url(#paint8_linear_320_736)"/>
<path d="M71.5429 43.1913L68.7206 36.9919L68.1623 35.7662L68.8407 27.162C68.8407 27.162 67.614 28.8547 65.6998 31.3138C63.546 34.0814 60.5213 37.8192 57.3941 41.209C57.3115 41.2984 57.229 41.3871 57.1465 41.4762C56.9944 41.6398 56.8421 41.8027 56.6898 41.9643L56.6896 41.9646C56.1143 42.5752 55.5376 43.1704 54.9638 43.7425C54.0689 44.6354 53.1814 45.472 52.32 46.2214L52.3197 46.2217C51.8626 46.6189 51.4128 46.992 50.9732 47.3356C50.8643 47.4206 50.7548 47.5059 50.6443 47.5906C43.2192 53.3107 33.2021 58.2414 30.5289 59.2519C30.5156 59.2568 30.5031 59.262 30.4901 59.2667C28.0809 60.1674 27.9703 61.3187 28.0345 64.6751C28.0345 64.6751 28.0345 64.6751 28.0345 64.6756C28.0345 64.6773 28.0347 64.6788 28.0347 64.6805C28.0411 65.017 28.0492 65.3759 28.0568 65.7586C28.1423 69.9643 32.0575 72.4637 32.0575 72.4637C32.0575 72.4637 32.519 71.7118 33.5239 70.3976C35.5895 67.6964 39.9493 62.6193 47.3088 56.8169C47.7676 56.4551 48.2301 56.1002 48.6964 55.7516L48.6966 55.7514C49.9879 54.7841 51.3021 53.8676 52.6145 53.0022C53.8171 52.209 55.0185 51.4599 56.1998 50.7559C56.7625 50.4203 57.3206 50.0954 57.8721 49.7804C58.245 49.5677 58.6146 49.3599 58.9806 49.1568C59.1111 49.0841 59.2413 49.0126 59.3707 48.9414C59.4965 48.8721 59.6215 48.8038 59.746 48.736C66.3298 45.1522 71.5429 43.1913 71.5429 43.1913Z" fill="url(#paint9_linear_320_736)"/>
<path opacity="0.2" d="M71.543 43.1913L69.965 39.7253L68.1623 35.7662L68.8408 27.162C68.8408 27.162 67.6141 28.8547 65.6998 31.3138C66.2832 34.5967 64.774 36.8794 64.774 36.8794C64.774 36.8794 68.3431 41.0876 67.6354 42.8078C66.9273 44.5283 62.5849 42.0483 62.5849 42.0483C62.5849 42.0483 62.114 45.6243 58.9623 48.3248C55.811 51.0253 49.2653 50.7146 49.2653 50.7146C49.2653 50.7146 49.2822 53.3228 46.976 55.9157C44.6699 58.5084 42.0917 57.6275 42.0917 57.6275C42.0588 61.9657 35.1002 66.1872 35.1002 66.1872C33.5382 69.7668 29.623 68.5342 28.862 64.2685C28.5064 62.2745 29.4309 60.5452 30.5289 59.2522C30.5157 59.2571 30.5031 59.2622 30.4901 59.2669C27.838 60.2583 27.9716 61.5535 28.0568 65.7588C28.1423 69.9646 32.0575 72.4639 32.0575 72.4639C32.0575 72.4639 36.3689 65.4422 47.3088 56.8174C50.6762 54.1623 54.2669 51.8509 57.624 49.9232C57.624 49.9232 57.6248 49.9229 57.626 49.9217C65.1749 45.5867 71.543 43.1913 71.543 43.1913Z" fill="url(#paint10_linear_320_736)"/>
<path opacity="0.8" d="M39.7264 62.3953C38.5295 64.5107 33.2972 70.6968 30.8219 69.8184C28.3982 68.9587 28.0482 64.8512 28.0347 64.6805C28.0411 65.017 28.0492 65.3758 28.0568 65.7586C28.1422 69.9643 32.0574 72.4637 32.0574 72.4637C32.0574 72.4637 32.5192 71.7118 33.5239 70.3976C35.5894 67.6964 39.9492 62.6193 47.3087 56.8169C47.7676 56.4551 48.2301 56.1001 48.6963 55.7516C48.6364 55.7865 40.9188 60.2885 39.7264 62.3953Z" fill="url(#paint11_linear_320_736)"/>
<path opacity="0.8" d="M68.5373 39.1678C68.5373 39.1678 66.6785 36.7073 66.2091 35.3958C65.7397 34.0841 67.4587 30.3335 67.4587 30.3335L68.6945 33.5042L68.5373 39.1678Z" fill="url(#paint12_linear_320_736)"/>
<path opacity="0.8" d="M71.5435 43.1913L69.9655 39.7254C69.5307 39.7591 69.2959 40.0713 69.5575 40.9219C70.3595 43.5313 67.2927 44.1188 63.9356 45.9525C60.6311 47.7575 57.7166 49.8562 57.6265 49.9213C65.1753 45.5868 71.5435 43.1913 71.5435 43.1913Z" fill="url(#paint13_linear_320_736)"/>
<path d="M84.0176 40.6524C84.189 37.7225 80.1955 29.9417 76.45 27.716C73.526 25.9791 71.0114 26.2392 69.6736 26.732C69.2973 26.87 69.0144 27.0268 68.8414 27.1623C68.0532 27.7809 66.5018 33.1937 66.6175 34.3953C66.7329 35.5967 69.3268 41.7207 71.5434 43.1913L72.2111 40.4969C72.2111 40.4969 69.4602 37.2823 69.2391 35.1259C69.2391 35.1259 69.2386 35.1224 69.2381 35.1155C69.2374 35.1119 69.2372 35.1082 69.2372 35.1045C69.2372 35.1038 69.2372 35.1028 69.2372 35.1018C69.2362 35.0961 69.2359 35.0907 69.2357 35.0856C69.2281 35.007 69.2239 34.9274 69.2222 34.8463C69.2222 34.8436 69.2222 34.8404 69.2219 34.8372C69.1804 32.686 70.9284 29.646 71.2366 29.4411C71.5592 29.2272 74.5549 28.3753 77.476 31.6801C80.3971 34.9849 82.0933 38.9042 81.6116 40.5235C81.5307 40.7956 81.4271 41.0513 81.3067 41.2869L81.3065 41.2871C80.7101 42.4544 79.6976 43.1225 78.938 42.774C78.6109 42.6239 78.0076 42.1194 77.363 41.4758C76.211 40.3243 74.9278 38.7266 74.862 37.9111C74.8128 37.2995 74.9182 36.5572 75.0953 35.9627C75.0953 35.9623 75.0953 35.9615 75.0953 35.9615C75.2859 35.3214 75.5596 34.8517 75.8109 34.8999C76.2967 34.9927 76.8391 35.6854 76.8666 36.2229C76.8941 36.7606 76.3112 37.6274 76.3112 37.6274L78.2097 38.68C78.2097 38.68 78.9408 36.7343 78.9155 36.0391C78.8985 35.5707 77.379 33.7852 76.1864 32.6813C76.1857 32.6806 76.185 32.6798 76.1835 32.6786C75.6072 32.1456 75.1079 31.7722 74.8917 31.7845C74.3147 31.8167 72.426 35.9205 72.4663 38.0809C72.4722 38.4085 72.5228 38.6915 72.6291 38.9087C73.4358 40.5581 77.0865 45.642 80.0731 45.1264C80.5246 45.0486 80.926 44.9587 81.2819 44.8523C81.2824 44.8523 81.2829 44.8521 81.2834 44.8521C83.2838 44.2561 83.8721 43.1385 84.0176 40.6524Z" fill="url(#paint14_linear_320_736)"/>
<path opacity="0.4" d="M81.2826 44.8525C77.5339 45.4462 73.9997 40.7522 73.2041 38.934C72.409 37.1158 73.9435 33.4194 74.5858 32.6471C75.2183 31.8872 76.1137 32.6164 76.1842 32.6786C75.6079 32.1456 75.1085 31.7722 74.8924 31.7845C74.2277 31.8216 71.8234 37.2587 72.6298 38.9086C73.4365 40.5581 77.0871 45.642 80.0738 45.1264C80.5253 45.0488 80.9267 44.9589 81.2826 44.8525Z" fill="url(#paint15_linear_320_736)"/>
<path opacity="0.4" d="M81.307 41.2869C83.5413 37.4673 78.5365 31.9547 76.778 30.2451C75.0197 28.5352 71.5909 27.748 70.6344 29.3488C69.501 31.2456 69.1842 33.9179 69.2222 34.8373C69.1807 32.686 70.9287 29.646 71.2369 29.4412C71.5595 29.2272 74.5552 28.3753 77.4763 31.6801C80.3974 34.9849 82.0936 38.9043 81.6119 40.5235C81.5311 40.7957 81.4276 41.0514 81.307 41.2869Z" fill="url(#paint16_linear_320_736)"/>
<path opacity="0.4" d="M71.5434 43.1913C71.5434 43.1913 67.3875 38.0504 67.0987 34.0905C66.9849 32.5324 68.6491 27.7308 69.6736 26.732C69.2973 26.87 69.0144 27.0268 68.8414 27.1623C68.0532 27.7809 66.5018 33.1937 66.6175 34.3953C66.7329 35.5965 69.3268 41.7207 71.5434 43.1913Z" fill="url(#paint17_linear_320_736)"/>
<path opacity="0.4" d="M77.1387 35.8664C76.7589 34.8069 75.615 33.4343 75.0952 35.9614C75.2858 35.3213 75.5595 34.8516 75.8107 34.8998C76.2966 34.9926 76.839 35.6853 76.8665 36.2228C76.894 36.7605 76.3111 37.6273 76.3111 37.6273C76.3111 37.6273 77.5184 36.9255 77.1387 35.8664Z" fill="url(#paint18_linear_320_736)"/>
<path d="M64.1407 77.2443C63.9881 77.2126 63.8103 77.0406 63.6116 76.7405C63.4433 76.486 63.2601 76.1392 63.0655 75.7073C62.4121 74.2605 61.6278 71.8604 60.8234 68.7856C60.3232 66.8745 59.9435 64.4805 59.6622 62.2087C59.5225 61.0795 59.4078 59.9807 59.3144 58.9859C59.2896 58.7236 59.2665 58.4689 59.2451 58.2225C59.1673 57.3409 59.1088 56.5691 59.0668 55.9697C59.0437 55.6433 59.0255 55.3682 59.0123 55.1545C58.9917 54.8236 58.9821 54.6394 58.9821 54.6394C58.9821 54.6394 58.9592 54.8565 58.9221 55.2311C58.8995 55.4588 58.8715 55.7445 58.8406 56.0749C58.7747 56.772 58.6939 57.6681 58.6166 58.6374C58.4874 60.2541 58.3667 62.075 58.339 63.5186C58.2513 68.128 59.042 74.1785 58.9835 74.7616C58.9248 75.345 57.802 75.7078 57.2174 75.5369C57.1413 75.5147 57.0762 75.3924 57.0204 75.1868C56.9841 75.0517 56.9514 74.8803 56.9227 74.6774C56.6581 72.8186 56.6986 68.3208 56.7006 64.794C56.7008 64.2108 56.7153 63.6058 56.7404 62.9932C56.7669 62.3376 56.8057 61.6734 56.8524 61.0183C56.8735 60.7226 56.8964 60.4288 56.9202 60.1384C57.0194 58.9306 57.1398 57.7825 57.2525 56.8098C57.2599 56.7487 57.2668 56.688 57.2739 56.6283C57.4633 55.0206 57.6262 53.9364 57.6262 53.9364L60.9494 53.1484C60.9494 53.1484 60.9373 53.2854 60.9206 53.5375C60.8983 53.8801 60.8668 54.435 60.8472 55.1459C60.8278 55.8248 60.8189 56.6462 60.8364 57.5607C60.8695 59.2541 60.9948 61.2664 61.3195 63.2836C62.1375 68.3675 65.0412 74.8537 65.5089 75.7933C65.9763 76.7326 64.7221 77.3656 64.1407 77.2443Z" fill="#0A2B5C"/>
<path opacity="0.04" d="M58.9846 74.7618C58.9259 75.3452 57.8031 75.708 57.2185 75.537C57.1424 75.5149 57.0773 75.3926 57.0215 75.187C59.0927 75.6185 58.4224 71.6572 57.9913 67.2166C57.5391 62.5588 58.5221 59.9001 57.6273 60.0723C57.359 60.1238 57.0937 60.507 56.8535 61.0184C56.9677 59.4154 57.1291 57.8667 57.275 56.6284L58.9232 55.2313C58.7736 56.7392 58.3924 60.7993 58.3403 63.519C58.2524 68.1281 59.0431 74.1786 58.9846 74.7618Z" fill="white"/>
<path opacity="0.04" d="M64.1401 77.2444C63.9876 77.2127 63.8097 77.0407 63.611 76.7406C65.5712 76.7654 63.9298 73.8546 62.0596 68.0949C60.0247 61.8295 60.8417 57.8082 59.8908 58.2572C59.6314 58.38 59.4465 58.6534 59.3143 58.986C59.1532 57.2739 59.0572 55.8703 59.0122 55.1546L60.9203 53.5373C60.8358 54.8136 60.6359 59.0368 61.3195 63.2834C62.1374 68.3673 65.0411 74.8536 65.5088 75.7931C65.9757 76.7327 64.7215 77.3657 64.1401 77.2444Z" fill="white"/>
<path d="M65.772 53.9187C65.7629 53.9354 65.7533 53.9516 65.7433 53.9681C65.5767 54.2452 65.2957 54.4498 64.9133 54.6392L64.9128 54.6394C64.7814 54.705 64.6372 54.7684 64.4817 54.833C63.5144 55.2341 62.1007 55.6635 60.3712 56.704C60.2879 56.7541 60.2037 56.8057 60.1189 56.8587C59.7178 57.1095 59.3695 57.3584 59.0622 57.6033C57.1116 59.1601 56.8171 60.5698 55.1964 61.4113C55.0232 61.5012 54.8353 61.5708 54.6349 61.6206C54.1723 61.7361 53.6435 61.7469 53.0763 61.6577C52.5686 61.5786 52.0306 61.4197 51.4836 61.1849C50.0334 60.5637 48.5168 59.4119 47.3223 57.8032C44.8478 54.4704 44.6333 51.635 46.0718 49.7844C46.2162 49.598 46.3783 49.4314 46.5569 49.2772C47.4203 48.5309 48.6804 48.0628 50.3262 46.9989C50.3571 46.9788 50.3883 46.9584 50.4198 46.9377C50.7668 46.7108 51.0904 46.4521 51.3932 46.1736C52.604 45.0608 53.4875 43.6307 54.2509 42.6298C54.3575 42.4905 54.461 42.3596 54.5634 42.2387C54.6211 42.1709 54.6779 42.1066 54.7344 42.0452C54.8844 41.883 55.0402 41.7561 55.1971 41.6566C55.3688 41.5475 55.542 41.4721 55.71 41.4215C56.4771 41.1911 57.147 41.476 57.147 41.476C56.6896 42.0403 56.4845 42.8066 56.5919 43.7401C56.6894 44.5949 57.0487 45.5897 57.7164 46.6985C58.159 47.4339 58.737 48.2195 59.4633 49.0475C61.9276 51.8546 64.35 52.0143 65.518 51.8812C65.9749 51.8293 66.2402 51.7328 66.2402 51.7328C66.2402 51.7328 66.3384 52.9313 65.772 53.9187Z" fill="url(#paint19_linear_320_736)"/>
<path opacity="0.03" d="M65.7431 53.9679C65.7529 53.9515 65.7628 53.9352 65.7718 53.9188C66.3385 52.9313 66.2398 51.7331 66.2398 51.7331C66.2398 51.7331 62.8918 52.9544 59.4632 49.0478C56.4428 45.607 55.994 42.8996 57.1468 41.4766C57.1468 41.4766 56.1498 41.0529 55.197 41.6569C55.0402 41.7564 54.8843 41.8839 54.7342 42.0457C54.6777 42.1069 54.6209 42.1715 54.5632 42.2393C54.2046 43.6979 54.5021 45.757 56.3856 48.6084C59.0139 52.5867 62.3086 54.2371 64.9126 54.6395L64.9128 54.6392C65.2953 54.4496 65.5766 54.2452 65.7431 53.9679Z" fill="white"/>
<path opacity="0.4" d="M59.891 52.4252C59.8699 52.4072 59.6486 52.2235 59.3042 51.9526C59.4992 52.1186 59.695 52.2761 59.891 52.4252Z" fill="url(#paint20_linear_320_736)"/>
<path opacity="0.07" d="M65.7714 53.9189C66.1546 53.2513 66.2332 52.4873 66.2445 52.0624C66.2499 51.8588 66.2393 51.733 66.2393 51.733C66.2393 51.733 66.2393 51.733 66.2388 51.733C66.1946 51.749 62.8685 52.9283 59.4627 49.0477C59.4315 49.0123 59.4011 48.9772 59.3708 48.9418C58.5792 48.0281 57.97 47.1669 57.5246 46.369C56.3166 44.2057 56.3129 42.5054 57.1466 41.4762C57.1466 41.4762 57.085 41.4499 56.9774 41.4197C56.6531 41.3286 55.9123 41.2028 55.1968 41.6565C55 42.2188 54.8882 42.9105 54.9636 43.7425C55.0555 44.7557 55.4242 45.977 56.2535 47.4265C56.6308 48.0863 57.1036 48.793 57.689 49.549C57.7499 49.6274 57.8108 49.7048 57.8722 49.7804C59.6757 52.0204 61.6847 53.208 63.468 53.6831C64.2993 53.9056 65.0819 53.9725 65.7714 53.9189Z" fill="white"/>
<path opacity="0.05" d="M64.4817 54.8328C62.5677 54.5584 60.1587 53.8861 57.8795 52.8584C53.5086 50.8872 47.635 52.3006 50.1908 57.8615C51.0437 59.7173 52.742 60.8872 54.6346 61.6205C54.8351 61.5709 55.023 61.5011 55.1959 61.4112C57.0723 60.437 57.1713 58.7018 60.1185 56.8588C61.9632 55.7051 63.4675 55.2536 64.4817 54.8328Z" fill="white"/>
<path opacity="0.3" d="M59.3046 51.9525C58.2892 51.0879 57.2973 49.9879 56.3858 48.6082C54.5022 45.7568 54.2048 43.6977 54.5634 42.2391C54.461 42.3597 54.3573 42.4906 54.2509 42.6299C54.094 43.8735 54.231 44.5702 53.9636 45.8303C53.6297 47.4016 49.786 50.9505 47.8398 51.8788C44.8067 53.3256 45.9838 50.1326 46.5571 49.2768C46.3783 49.4313 46.2162 49.5981 46.0718 49.7843C44.6333 51.6349 44.8478 54.4703 47.3223 57.8028C48.5168 59.4115 50.0329 60.5635 51.4834 61.1845C49.7204 59.9887 45.7045 56.5329 46.956 53.7299C47.5903 52.3094 52.768 48.1049 55.1222 48.5168C56.2654 48.7175 58.2607 51.1316 59.3046 51.9525Z" fill="url(#paint21_linear_320_736)"/>
<path opacity="0.3" d="M65.7431 53.9679C65.7529 53.9514 65.7628 53.9352 65.7719 53.9188C66.3385 52.9313 66.2398 51.7331 66.2398 51.7331C66.2398 51.7331 65.9745 51.8296 65.5176 51.8815C65.4267 52.2511 65.3066 52.6292 65.1507 53.0087C64.0458 55.7016 58.8324 54.3938 57.1773 58.1631C56.2761 60.2154 54.5149 61.1938 53.0762 61.6578C53.6431 61.7467 54.1722 61.7359 54.6347 61.6204C54.8352 61.5708 55.0231 61.501 55.196 61.4111C57.0724 60.437 57.1714 58.7018 60.1185 56.8588C61.9633 55.7053 63.4675 55.2538 64.4818 54.8328C64.637 54.7684 64.781 54.7048 64.9129 54.6395L64.9131 54.6392C65.2953 54.4496 65.5766 54.2452 65.7431 53.9679Z" fill="url(#paint22_linear_320_736)"/>
<path d="M60.2049 57.1794C60.0221 57.656 58.9251 58.3587 58.3334 58.245C58.1669 58.2131 57.9244 58.1276 57.6223 57.99C56.7751 57.6044 55.4582 56.808 54.0227 55.629C54.0227 55.629 54.0227 55.6287 54.022 55.6283C53.6513 55.3239 53.273 54.994 52.8928 54.6393C50.08 52.0152 49.6546 48.1695 49.5686 47.4648C49.5089 46.9762 50.1898 46.4206 50.7059 46.2639C50.7064 46.2636 50.7066 46.2636 50.7066 46.2636C50.9351 46.1944 51.1313 46.2032 51.2168 46.3304C50.7634 47.0988 51.6514 51.5247 54.0556 53.6688C56.1755 55.5595 57.8063 56.3342 58.8396 56.6494C58.8421 56.6501 58.8446 56.6508 58.847 56.6516C59.6753 56.9033 60.1174 56.8586 60.1174 56.8586C60.2366 56.9336 60.2557 57.0478 60.2049 57.1794Z" fill="#1DEFEF"/>
<path opacity="0.1" d="M56.9227 74.6774C56.6581 72.8187 56.6986 68.3209 56.7006 64.794C56.7008 64.2109 56.7153 63.6059 56.7404 62.9933C56.9136 62.4708 57.0985 62.082 57.1951 62.4195C57.4066 63.1593 56.8519 66.708 56.9202 68.6942C57.0251 71.7504 57.9573 74.4964 56.9227 74.6774Z" fill="url(#paint23_linear_320_736)"/>
<path opacity="0.1" d="M63.0654 75.7076C62.412 74.2608 61.6277 71.8607 60.8232 68.7858C60.3231 66.8747 59.9434 64.4808 59.6621 62.2089C59.713 61.9745 59.7859 61.7947 59.8908 61.7171C60.3776 61.3565 60.0647 64.989 60.9726 68.0892C61.8436 71.0606 64.5262 76.4312 63.0654 75.7076Z" fill="url(#paint24_linear_320_736)"/>
<path opacity="0.8" d="M54.022 55.6285C53.6513 55.3242 53.2731 54.9943 52.8928 54.6396C50.08 52.0155 49.6546 48.1698 49.5686 47.4651C49.5089 46.9765 50.1898 46.4209 50.7059 46.2642C50.6801 46.2752 49.9174 46.5078 50.0051 47.6343C50.0945 48.7778 50.8132 51.3198 51.4698 52.4982C52.1662 53.7484 53.9874 55.5843 54.022 55.6285Z" fill="url(#paint25_linear_320_736)"/>
<path opacity="0.3" d="M60.2057 57.1796C60.0229 57.6561 58.9259 58.3589 58.3342 58.2452C58.1676 58.2132 57.9252 58.1278 57.623 57.9902C57.9289 57.9887 58.4825 57.9541 58.7903 57.7397C59.2099 57.4471 58.9104 56.7001 58.8483 56.6515C59.6766 56.9033 60.1187 56.8586 60.1187 56.8586C60.2373 56.9337 60.2565 57.0479 60.2057 57.1796Z" fill="url(#paint26_linear_320_736)"/>
<g opacity="0.5" filter="url(#filter0_f_320_736)">
<path d="M58.9407 50.3232L58.9758 50.3368C58.9897 50.3422 59.0021 50.351 59.0118 50.3624C59.0241 50.3767 59.0316 50.3945 59.0333 50.4133L59.0379 50.4663C59.0393 50.4821 59.0392 50.498 59.0377 50.5138L58.9963 50.9366L58.7314 53.7314L58.68 54.5936C58.6791 54.6095 58.6764 54.6252 58.6722 54.6406C58.6601 54.6839 58.6355 54.7226 58.6014 54.7518L58.5718 54.7771L55.767 56.9518L54.329 58.0923L54.2441 58.1466C54.2308 58.1551 54.2166 58.1621 54.2018 58.1675C54.1858 58.1734 54.1692 58.1773 54.1524 58.1793L54.0855 58.1871L52.005 58.1508L50.1669 58.0867C50.1513 58.0862 50.1359 58.0838 50.1209 58.0796L50.0971 58.0729C50.0752 58.0668 50.0555 58.0543 50.0407 58.0369C50.0334 58.0285 50.0275 58.019 50.0229 58.0089L50.0202 58.0027C50.012 57.9843 50.0073 57.9645 50.0064 57.9443L49.9999 57.7998L50.0154 57.6047L50.4492 53.8698L50.4665 53.7658C50.4725 53.7293 50.4831 53.6938 50.498 53.66C50.5151 53.6211 50.5378 53.5849 50.5653 53.5526L50.5945 53.5181L51.0637 53.0708L54.2981 50.142L54.4039 50.0514C54.4268 50.0318 54.4535 50.0173 54.4824 50.0088C54.507 50.0015 54.5327 49.9987 54.5582 50.0006L58.5842 50.2895L58.8684 50.3073C58.8932 50.3088 58.9175 50.3142 58.9407 50.3232Z" fill="url(#paint27_linear_320_736)"/>
</g>
<path d="M58.9407 50.3232L58.9758 50.3368C58.9897 50.3422 59.0021 50.351 59.0118 50.3624C59.0241 50.3767 59.0316 50.3945 59.0333 50.4133L59.0379 50.4663C59.0393 50.4821 59.0392 50.498 59.0377 50.5138L58.9963 50.9366L58.7314 53.7314L58.68 54.5936C58.6791 54.6095 58.6764 54.6252 58.6722 54.6406C58.6601 54.6839 58.6355 54.7226 58.6014 54.7518L58.5718 54.7771L55.767 56.9518L54.329 58.0923L54.2441 58.1466C54.2308 58.1551 54.2166 58.1621 54.2018 58.1675C54.1858 58.1734 54.1692 58.1773 54.1524 58.1793L54.0855 58.1871L52.005 58.1508L50.1669 58.0867C50.1513 58.0862 50.1359 58.0838 50.1209 58.0796L50.0971 58.0729C50.0752 58.0668 50.0555 58.0543 50.0407 58.0369C50.0334 58.0285 50.0275 58.019 50.0229 58.0089L50.0202 58.0027C50.012 57.9843 50.0073 57.9645 50.0064 57.9443L49.9999 57.7998L50.0154 57.6047L50.4492 53.8698L50.4665 53.7658C50.4725 53.7293 50.4831 53.6938 50.498 53.66C50.5151 53.6211 50.5378 53.5849 50.5653 53.5526L50.5945 53.5181L51.0637 53.0708L54.2981 50.142L54.4039 50.0514C54.4268 50.0318 54.4535 50.0173 54.4824 50.0088C54.507 50.0015 54.5327 49.9987 54.5582 50.0006L58.5842 50.2895L58.8684 50.3073C58.8932 50.3088 58.9175 50.3142 58.9407 50.3232Z" fill="url(#paint28_linear_320_736)"/>
<path d="M56.4853 51.7006L57.4376 51.6783C57.4393 51.6783 57.441 51.6784 57.4426 51.6786C57.4551 51.6803 57.4654 51.6891 57.469 51.7011L57.4714 51.7094C57.473 51.7148 57.4736 51.7205 57.4731 51.7261L57.4437 52.0615L57.3106 53.4936L57.2544 54.0951C57.2429 54.218 57.1932 54.3343 57.1123 54.4275C57.0932 54.4496 57.0724 54.4703 57.0502 54.4893L56.4748 54.982L55.131 56.0192L54.5232 56.4942L54.3663 56.6116C54.3308 56.6382 54.293 56.6615 54.2533 56.6814C54.208 56.7041 54.1604 56.7221 54.1114 56.7352L54.0695 56.7464C53.9542 56.7695 53.8373 56.7841 53.7199 56.7903L53.5855 56.7973L52.8155 56.7749L52.0006 56.7L51.9861 56.698C51.967 56.6955 51.9512 56.682 51.9458 56.6635C51.9446 56.6596 51.9439 56.6555 51.9438 56.6514L51.9366 56.4594L51.9672 56.0923L52.0315 55.7645L52.1624 54.9933L52.2652 54.4736L52.3402 54.1821L52.4488 53.829C52.4585 53.7973 52.4737 53.7675 52.4936 53.7409C52.505 53.7255 52.518 53.7114 52.5323 53.6986L53.1201 53.1734L53.9522 52.4153L54.4556 51.9843L54.5009 51.9454C54.5408 51.9113 54.5843 51.8816 54.6307 51.857C54.6922 51.8345 54.7564 51.8199 54.8216 51.8135L55.1728 51.7792L56.4853 51.7006Z" fill="#00E0F8"/>
<path d="M57.7518 51.3713L58.8594 50.4606C58.8783 50.4451 58.8727 50.4148 58.8495 50.4069C58.847 50.4061 58.8444 50.4055 58.8417 50.4054L56.3196 50.2281L54.8274 50.0969L54.7197 50.0868C54.6212 50.0775 54.5341 50.1507 54.5262 50.2494C54.5254 50.2598 54.5255 50.2703 54.5265 50.2807L54.6293 51.3347L54.6546 51.5246C54.6576 51.5474 54.6652 51.5693 54.6768 51.5891L54.6782 51.5914C54.6947 51.6196 54.7194 51.6422 54.7489 51.6562C54.7642 51.6634 54.7804 51.6682 54.7971 51.6705L54.8185 51.6734C54.8333 51.6754 54.8482 51.6762 54.8632 51.676L55.4619 51.6671L57.0042 51.5963L57.3348 51.5525C57.488 51.5322 57.6325 51.4695 57.7518 51.3713Z" fill="#02E3FB"/>
<path d="M54.5439 51.567L54.5478 51.3819C54.502 50.8738 53.8928 50.6396 53.5184 50.9861L53.1225 51.3525L52.5723 51.8237L52.0679 52.3011L51.5875 52.7352L51.0475 53.2249C50.8992 53.3593 50.9694 53.6054 51.1663 53.6414L51.6937 53.7123L52.1066 53.7679L52.1394 53.7686C52.1863 53.7697 52.2332 53.7655 52.2793 53.7563C52.3326 53.7406 52.3815 53.7129 52.4225 53.6753L53.8255 52.3868L54.2357 52.0128L54.4127 51.8612C54.4274 51.8486 54.441 51.8349 54.4535 51.8202C54.4877 51.7799 54.5128 51.7327 54.5269 51.6817L54.5303 51.6696L54.5439 51.567Z" fill="#0376C1"/>
<path d="M51.7155 53.808L52.1398 53.8747C52.1922 53.8829 52.2304 53.9286 52.2293 53.9816L52.1763 54.3224L51.8632 56.1131L51.7839 56.6129L51.7784 56.6543C51.7731 56.6937 51.7536 56.7297 51.7234 56.7555L51.3503 57.0069L50.5917 57.5429L50.3092 57.7515C50.2408 57.802 50.1675 57.8455 50.0904 57.8813L50.0903 57.8812L50.1082 57.5706L50.2896 56.029L50.4287 54.8645L50.564 53.8851L50.5893 53.7321C50.5899 53.7282 50.5909 53.7243 50.5923 53.7206C50.5987 53.7031 50.6125 53.6894 50.63 53.683L50.6342 53.6814C50.6438 53.6779 50.6541 53.6764 50.6642 53.6771L50.821 53.6877L51.2797 53.7494L51.7155 53.808Z" fill="#0385CC"/>
<path d="M54.1803 57.4689L54.2147 58.0304L56.9605 55.929L58.2224 54.962L58.5063 54.7189C58.5199 54.7072 58.5322 54.6941 58.5429 54.6798L58.5562 54.662C58.568 54.6463 58.5763 54.6282 58.5806 54.6089L58.5823 54.6014C58.5853 54.5885 58.5856 54.5751 58.5833 54.562C58.5789 54.5366 58.565 54.5138 58.5443 54.4983L58.5423 54.4968C58.5276 54.4858 58.5103 54.4787 58.4921 54.4763L58.2447 54.443L57.6245 54.4059L57.5397 54.4088C57.5043 54.4099 57.4692 54.4156 57.4352 54.4256C57.4154 54.4315 57.396 54.4388 57.3772 54.4475L57.3541 54.4583C57.311 54.4783 57.2698 54.5024 57.2312 54.5301L56.7991 54.8401L55.6771 55.7099L55.3615 55.9575L54.7772 56.4124L54.4264 56.69L54.3744 56.7346C54.3314 56.7714 54.2953 56.8157 54.2679 56.8652C54.2479 56.9015 54.2326 56.9402 54.2226 56.9805L54.2106 57.0291C54.1952 57.0908 54.1869 57.154 54.1855 57.2175L54.1803 57.4689Z" fill="#00BDE6"/>
<path d="M58.27 54.3305L58.5599 54.3154C58.5735 54.3147 58.5864 54.3095 58.5967 54.3007C58.609 54.2901 58.6167 54.2752 58.618 54.259L58.8306 51.6915L58.9312 50.719L58.9355 50.5108L58 51.2665L57.7307 51.4971L57.6972 51.5258C57.6271 51.5859 57.5735 51.6629 57.5417 51.7495C57.5254 51.7939 57.515 51.8402 57.5107 51.8873L57.3976 53.1459L57.3355 54.0543C57.3329 54.0922 57.3358 54.1303 57.3439 54.1674L57.3505 54.1971C57.3519 54.2037 57.354 54.2102 57.3568 54.2163C57.3681 54.2419 57.3897 54.2615 57.4162 54.2704L57.4192 54.2715C57.4275 54.2743 57.4361 54.276 57.4449 54.2768L57.8679 54.3112L58.27 54.3305Z" fill="#2FF3FB"/>
<path opacity="0.07" d="M58.2563 52.9949L58.8032 51.8965L58.7463 52.4225L58.6973 53.1235L58.6006 54.2117C58.5958 54.2656 58.5539 54.3087 58.5002 54.315L58.2816 54.3204L57.8907 54.3142L57.4203 54.2625C57.7492 53.8753 58.0298 53.4496 58.2563 52.9949Z" fill="black"/>
<path d="M50.1796 57.9863L51.8596 56.8203L53.9276 56.913L54.0645 56.9208C54.0727 56.9212 54.0807 56.9233 54.0881 56.9268C54.1028 56.9338 54.1143 56.9462 54.1201 56.9614L54.1333 56.9958C54.1402 57.0139 54.1437 57.0332 54.1435 57.0527L54.1334 58.0775L50.1796 57.9863Z" fill="#036AB8"/>
<path opacity="0.15" d="M52.6608 53.2643L53.1465 51.3325L50.9145 53.3464C50.8196 53.432 50.8684 53.5896 50.9951 53.6066L51.5567 53.6938L52.0601 53.7615C52.0914 53.7657 52.123 53.7673 52.1546 53.7663L52.2019 53.7647C52.2306 53.7637 52.259 53.7582 52.2859 53.7483C52.3202 53.7358 52.3516 53.7164 52.3783 53.6913L52.4489 53.6249C52.5526 53.5274 52.6261 53.4022 52.6608 53.2643Z" fill="black"/>
<path opacity="0.15" d="M51.1745 55.4628L50.6148 53.7326C50.6076 53.7106 50.6192 53.6868 50.641 53.6788C50.6459 53.6771 50.651 53.6762 50.6562 53.6762L50.8323 53.6777L51.3139 53.7425L51.6809 53.7919L52.2203 53.8542C52.2552 53.8582 52.2772 53.8939 52.2651 53.9269C52.2323 54.0161 52.2088 54.1085 52.1949 54.2025L52.1354 54.6071L52.021 55.1369L51.9168 55.7261L51.8506 56.1464L51.7497 56.677C51.7481 56.6852 51.7473 56.6935 51.7471 56.7018L51.7465 56.7286C51.7461 56.748 51.7529 56.7668 51.7655 56.7815C51.7747 56.7923 51.7867 56.8004 51.8002 56.805L51.8171 56.8107C51.8301 56.8151 51.8437 56.8176 51.8574 56.8181L53.5601 56.8868L50.5977 57.7874L50.2167 57.8637L50.2532 57.7642L51.1693 55.7299C51.2009 55.6439 51.2027 55.5499 51.1745 55.4628Z" fill="black"/>
<path opacity="0.09" d="M56.582 50.8667C56.5913 50.8587 57.1072 50.4927 57.3639 50.3107L54.662 50.086C54.6573 50.0856 54.6525 50.0863 54.648 50.0879L54.6173 50.0991C54.5551 50.1219 54.5111 50.1779 54.5037 50.2438C54.5024 50.2559 54.5023 50.2681 54.5035 50.2802L54.606 51.3317L54.6421 51.5631C54.645 51.5822 54.6533 51.6001 54.6659 51.6148C54.6754 51.6259 54.6871 51.6349 54.7003 51.6412L54.7137 51.6475C54.7367 51.6584 54.7618 51.6641 54.7872 51.6643L55.197 51.6664L55.7678 51.314L56.0239 51.1628L56.0589 51.142C56.1518 51.0866 56.2489 51.0384 56.3493 50.9978C56.4229 50.9575 56.5726 50.8748 56.582 50.8667Z" fill="black"/>
<path opacity="0.08" d="M58.3992 54.7884L56.6359 54.9803L55.6779 55.7098L54.9179 56.3151L54.5677 56.5696L54.4633 56.659C54.4081 56.7063 54.3567 56.7579 54.3096 56.8133L54.3026 56.8238C54.2602 56.8872 54.2298 56.9579 54.2131 57.0323L54.198 57.2043L54.8923 56.9961L55.0622 56.9621C55.1105 56.9524 55.158 56.939 55.2043 56.9221C55.2506 56.9052 55.2981 56.8918 55.3464 56.8821L55.8627 56.7787L58.3992 54.7884Z" fill="black"/>
<path opacity="0.07" d="M54.7015 56.2049L54.8503 56.2366L56.4634 54.9688L53.5851 55.1383L52.136 55.1521L51.9807 55.9896L51.9505 56.3336L51.9462 56.5418L51.9528 56.6383C51.9542 56.6575 51.9677 56.6737 51.9864 56.6783C52.1026 56.7071 52.2209 56.7267 52.3401 56.737L52.6431 56.7632L52.3744 56.6292C52.3414 56.6128 52.312 56.5898 52.288 56.5618L52.2728 56.5441C52.2698 56.5405 52.2672 56.5366 52.265 56.5325C52.2484 56.5015 52.2603 56.4629 52.2913 56.4464L52.2936 56.4452C52.301 56.4413 52.3091 56.4388 52.3174 56.4378L54.437 56.2041L54.4716 56.2008C54.5482 56.1933 54.6253 56.1947 54.7015 56.2049Z" fill="black"/>
<path opacity="0.05" d="M57.0258 54.3435L52.4252 53.9501C52.4656 53.8116 52.5446 53.6875 52.653 53.5922L54.5133 51.9575L57.3277 53.2062L57.2177 54.1861C57.2158 54.2032 57.2114 54.2199 57.2047 54.2357C57.1747 54.3066 57.1025 54.3501 57.0258 54.3435Z" fill="black"/>
<path opacity="0.5" d="M58.0584 51.7845L58.6431 50.7611L58.2109 51.0858L57.7426 51.4868L57.6806 51.5399C57.6519 51.5644 57.6279 51.5939 57.6096 51.627C57.5962 51.6511 57.5861 51.677 57.5794 51.7038L57.5393 51.8654L57.4853 52.2526L57.377 53.5952L57.631 52.9914L57.7552 52.5441L58.0584 51.7845Z" fill="#7DFEFE"/>
<path opacity="0.1" d="M53.9079 52.2934L53.5444 50.9685L54.1421 50.4109C54.2619 50.2992 54.4579 50.3736 54.4733 50.5367L54.5208 51.0187L54.5482 51.3588L54.5444 51.5439L54.5421 51.6556C54.5417 51.6736 54.5391 51.6915 54.5343 51.7088C54.5228 51.7501 54.4993 51.787 54.4668 51.8149L54.4464 51.8323L53.9079 52.2934Z" fill="black"/>
<defs>
<filter id="filter0_f_320_736" x="0" y="0" width="109.039" height="108.187" filterUnits="userSpaceOnUse" color-interpolation-filters="sRGB">
<feFlood flood-opacity="0" result="BackgroundImageFix"/>
<feBlend mode="normal" in="SourceGraphic" in2="BackgroundImageFix" result="shape"/>
<feGaussianBlur stdDeviation="25" result="effect1_foregroundBlur_320_736"/>
</filter>
<linearGradient id="paint0_linear_320_736" x1="66.6501" y1="40.5813" x2="80.4666" y2="33.8879" gradientUnits="userSpaceOnUse">
<stop stop-color="#FFDA96"/>
<stop offset="0.0959" stop-color="#FFD195"/>
<stop offset="0.4622" stop-color="#FFB292"/>
<stop offset="0.7746" stop-color="#FFA091"/>
<stop offset="0.9944" stop-color="#FF9990"/>
</linearGradient>
<linearGradient id="paint1_linear_320_736" x1="81.3562" y1="51.7121" x2="71.8651" y2="26.039" gradientUnits="userSpaceOnUse">
<stop offset="0.1576" stop-color="#A0188D"/>
<stop offset="0.2495" stop-color="#A21D8F"/>
<stop offset="0.3591" stop-color="#A82C97"/>
<stop offset="0.4776" stop-color="#B244A2"/>
<stop offset="0.6025" stop-color="#C065B3"/>
<stop offset="0.7325" stop-color="#D290C8"/>
<stop offset="0.8644" stop-color="#E7C4E2"/>
<stop offset="0.9944" stop-color="white"/>
</linearGradient>
<linearGradient id="paint2_linear_320_736" x1="68.0528" y1="31.5836" x2="93.6373" y2="44.8966" gradientUnits="userSpaceOnUse">
<stop stop-color="#EBBA68"/>
<stop offset="0.4276" stop-color="#E19562"/>
<stop offset="0.9944" stop-color="#D15E58"/>
</linearGradient>
<linearGradient id="paint3_linear_320_736" x1="71.4506" y1="40.7338" x2="77.1619" y2="35.618" gradientUnits="userSpaceOnUse">
<stop stop-color="#FFDA96"/>
<stop offset="0.0959" stop-color="#FFD195"/>
<stop offset="0.4622" stop-color="#FFB292"/>
<stop offset="0.7746" stop-color="#FFA091"/>
<stop offset="0.9944" stop-color="#FF9990"/>
</linearGradient>
<linearGradient id="paint4_linear_320_736" x1="75.3258" y1="35.9542" x2="78.1838" y2="46.8931" gradientUnits="userSpaceOnUse">
<stop offset="0.0045" stop-color="#A0188D"/>
<stop offset="0.3807" stop-color="#A11A8E"/>
<stop offset="0.5163" stop-color="#A42191"/>
<stop offset="0.6129" stop-color="#A82C97"/>
<stop offset="0.6911" stop-color="#AF3D9F"/>
<stop offset="0.758" stop-color="#B853AA"/>
<stop offset="0.8173" stop-color="#C46FB8"/>
<stop offset="0.8709" stop-color="#D18FC8"/>
<stop offset="0.9202" stop-color="#E0B5DA"/>
<stop offset="0.9641" stop-color="#F1DEEF"/>
<stop offset="0.9944" stop-color="white"/>
</linearGradient>
<radialGradient id="paint5_radial_320_736" cx="0" cy="0" r="1" gradientUnits="userSpaceOnUse" gradientTransform="translate(57.2726 54.1918) rotate(37.381) scale(28.5804)">
<stop stop-color="#FFDA96"/>
<stop offset="0.3278" stop-color="#FFC894"/>
<stop offset="0.9816" stop-color="#FF9A90"/>
<stop offset="0.9944" stop-color="#FF9990"/>
</radialGradient>
<linearGradient id="paint6_linear_320_736" x1="43.3672" y1="32.5021" x2="65.6121" y2="71.4857" gradientUnits="userSpaceOnUse">
<stop offset="0.0045" stop-color="#A0188D"/>
<stop offset="0.2137" stop-color="#A11B8E"/>
<stop offset="0.3517" stop-color="#A52493"/>
<stop offset="0.4692" stop-color="#AB339A"/>
<stop offset="0.5752" stop-color="#B448A5"/>
<stop offset="0.6735" stop-color="#BF63B2"/>
<stop offset="0.7662" stop-color="#CD85C3"/>
<stop offset="0.8543" stop-color="#DDADD7"/>
<stop offset="0.9368" stop-color="#F0DBED"/>
<stop offset="0.9944" stop-color="white"/>
</linearGradient>
<linearGradient id="paint7_linear_320_736" x1="70.9824" y1="36.6923" x2="87.8575" y2="45.4734" gradientUnits="userSpaceOnUse">
<stop stop-color="#EBBA68"/>
<stop offset="0.4276" stop-color="#E19562"/>
<stop offset="0.9944" stop-color="#D15E58"/>
</linearGradient>
<linearGradient id="paint8_linear_320_736" x1="31.5464" y1="67.7015" x2="47.4961" y2="76.001" gradientUnits="userSpaceOnUse">
<stop stop-color="#EBBA68"/>
<stop offset="0.4276" stop-color="#E19562"/>
<stop offset="0.9944" stop-color="#D15E58"/>
</linearGradient>
<linearGradient id="paint9_linear_320_736" x1="54.1772" y1="55.9952" x2="31.0339" y2="21.578" gradientUnits="userSpaceOnUse">
<stop stop-color="#FFDA96"/>
<stop offset="0.0959" stop-color="#FFD195"/>
<stop offset="0.4622" stop-color="#FFB292"/>
<stop offset="0.7746" stop-color="#FFA091"/>
<stop offset="0.9944" stop-color="#FF9990"/>
</linearGradient>
<linearGradient id="paint10_linear_320_736" x1="61.3744" y1="69.235" x2="47.3615" y2="45.5131" gradientUnits="userSpaceOnUse">
<stop stop-color="#EBBA68"/>
<stop offset="0.4276" stop-color="#E19562"/>
<stop offset="0.9944" stop-color="#D15E58"/>
</linearGradient>
<linearGradient id="paint11_linear_320_736" x1="56.0923" y1="90.8243" x2="29.3" y2="46.7405" gradientUnits="userSpaceOnUse">
<stop stop-color="#FFEEA6"/>
<stop offset="0.4409" stop-color="#FFF5CB"/>
<stop offset="0.9944" stop-color="white"/>
</linearGradient>
<linearGradient id="paint12_linear_320_736" x1="83.6165" y1="60.591" x2="58.7584" y2="19.6898" gradientUnits="userSpaceOnUse">
<stop stop-color="#FFEEA6"/>
<stop offset="0.4409" stop-color="#FFF5CB"/>
<stop offset="0.9944" stop-color="white"/>
</linearGradient>
<linearGradient id="paint13_linear_320_736" x1="71.6217" y1="57.6994" x2="59.7926" y2="38.236" gradientUnits="userSpaceOnUse">
<stop stop-color="#FFEEA6"/>
<stop offset="0.4409" stop-color="#FFF5CB"/>
<stop offset="0.9944" stop-color="white"/>
</linearGradient>
<linearGradient id="paint14_linear_320_736" x1="84.7553" y1="27.6919" x2="62.8352" y2="47.162" gradientUnits="userSpaceOnUse">
<stop stop-color="#FFDA96"/>
<stop offset="0.0959" stop-color="#FFD195"/>
<stop offset="0.4622" stop-color="#FFB292"/>
<stop offset="0.7746" stop-color="#FFA091"/>
<stop offset="0.9944" stop-color="#FF9990"/>
</linearGradient>
<linearGradient id="paint15_linear_320_736" x1="70.0566" y1="47.4467" x2="80.8238" y2="35.1283" gradientUnits="userSpaceOnUse">
<stop offset="0.0045" stop-color="#A0188D"/>
<stop offset="0.1017" stop-color="#A31E90"/>
<stop offset="0.2339" stop-color="#AA3099"/>
<stop offset="0.3863" stop-color="#B54CA7"/>
<stop offset="0.5538" stop-color="#C674BA"/>
<stop offset="0.7336" stop-color="#DBA7D4"/>
<stop offset="0.921" stop-color="#F4E5F2"/>
<stop offset="0.9944" stop-color="white"/>
</linearGradient>
<linearGradient id="paint16_linear_320_736" x1="77.8687" y1="22.8062" x2="74.4343" y2="43.4323" gradientUnits="userSpaceOnUse">
<stop offset="0.0045" stop-color="#A0188D"/>
<stop offset="0.122" stop-color="#A21D8F"/>
<stop offset="0.2515" stop-color="#A72A96"/>
<stop offset="0.3868" stop-color="#B040A1"/>
<stop offset="0.5262" stop-color="#BD5FB0"/>
<stop offset="0.6687" stop-color="#CD87C4"/>
<stop offset="0.8137" stop-color="#E1B7DC"/>
<stop offset="0.9583" stop-color="#F9F0F7"/>
<stop offset="0.9944" stop-color="white"/>
</linearGradient>
<linearGradient id="paint17_linear_320_736" x1="72.4985" y1="18.0192" x2="67.6405" y2="47.1947" gradientUnits="userSpaceOnUse">
<stop offset="0.0045" stop-color="#A0188D"/>
<stop offset="0.122" stop-color="#A21D8F"/>
<stop offset="0.2515" stop-color="#A72A96"/>
<stop offset="0.3868" stop-color="#B040A1"/>
<stop offset="0.5262" stop-color="#BD5FB0"/>
<stop offset="0.6687" stop-color="#CD87C4"/>
<stop offset="0.8137" stop-color="#E1B7DC"/>
<stop offset="0.9583" stop-color="#F9F0F7"/>
<stop offset="0.9944" stop-color="white"/>
</linearGradient>
<linearGradient id="paint18_linear_320_736" x1="76.6963" y1="32.9089" x2="75.779" y2="38.4173" gradientUnits="userSpaceOnUse">
<stop offset="0.0045" stop-color="#A0188D"/>
<stop offset="0.122" stop-color="#A21D8F"/>
<stop offset="0.2515" stop-color="#A72A96"/>
<stop offset="0.3868" stop-color="#B040A1"/>
<stop offset="0.5262" stop-color="#BD5FB0"/>
<stop offset="0.6687" stop-color="#CD87C4"/>
<stop offset="0.8137" stop-color="#E1B7DC"/>
<stop offset="0.9583" stop-color="#F9F0F7"/>
<stop offset="0.9944" stop-color="white"/>
</linearGradient>
<linearGradient id="paint19_linear_320_736" x1="46.4235" y1="41.6321" x2="59.7772" y2="58.5728" gradientUnits="userSpaceOnUse">
<stop stop-color="#0A2B5C"/>
<stop offset="0.3268" stop-color="#0A2B5C"/>
<stop offset="0.9944" stop-color="#0A2B5C"/>
</linearGradient>
<linearGradient id="paint20_linear_320_736" x1="59.8163" y1="52.0232" x2="59.4213" y2="52.3222" gradientUnits="userSpaceOnUse">
<stop offset="0.0045" stop-color="#A0188D"/>
<stop offset="0.2137" stop-color="#A11B8E"/>
<stop offset="0.3517" stop-color="#A52493"/>
<stop offset="0.4692" stop-color="#AB339A"/>
<stop offset="0.5752" stop-color="#B448A5"/>
<stop offset="0.6735" stop-color="#BF63B2"/>
<stop offset="0.7662" stop-color="#CD85C3"/>
<stop offset="0.8543" stop-color="#DDADD7"/>
<stop offset="0.9368" stop-color="#F0DBED"/>
<stop offset="0.9944" stop-color="white"/>
</linearGradient>
<linearGradient id="paint21_linear_320_736" x1="41.8412" y1="49.0751" x2="61.937" y2="53.8141" gradientUnits="userSpaceOnUse">
<stop stop-color="#FFEEA6"/>
<stop offset="0.4409" stop-color="#FFF5CB"/>
<stop offset="0.9944" stop-color="white"/>
</linearGradient>
<linearGradient id="paint22_linear_320_736" x1="55.2541" y1="64.9732" x2="64.0091" y2="49.8883" gradientUnits="userSpaceOnUse">
<stop stop-color="#73FBF2"/>
<stop offset="0.3783" stop-color="#7BD6F7"/>
<stop offset="0.9944" stop-color="#8992FF"/>
</linearGradient>
<linearGradient id="paint23_linear_320_736" x1="56.8462" y1="76.5002" x2="57.2538" y2="61.7088" gradientUnits="userSpaceOnUse">
<stop stop-color="#FFEEA6"/>
<stop offset="0.4409" stop-color="#FFF5CB"/>
<stop offset="0.9944" stop-color="white"/>
</linearGradient>
<linearGradient id="paint24_linear_320_736" x1="63.3621" y1="77.647" x2="59.7807" y2="61.1086" gradientUnits="userSpaceOnUse">
<stop stop-color="#FFEEA6"/>
<stop offset="0.4409" stop-color="#FFF5CB"/>
<stop offset="0.9944" stop-color="white"/>
</linearGradient>
<linearGradient id="paint25_linear_320_736" x1="59.0949" y1="46.0377" x2="48.1631" y2="53.9162" gradientUnits="userSpaceOnUse">
<stop stop-color="#FFEEA6"/>
<stop offset="0.4409" stop-color="#FFF5CB"/>
<stop offset="0.9944" stop-color="white"/>
</linearGradient>
<linearGradient id="paint26_linear_320_736" x1="59.0606" y1="56.4846" x2="58.8219" y2="58.3604" gradientUnits="userSpaceOnUse">
<stop stop-color="#73FBF2"/>
<stop offset="0.3783" stop-color="#7BD6F7"/>
<stop offset="0.9944" stop-color="#8992FF"/>
</linearGradient>
<linearGradient id="paint27_linear_320_736" x1="58.9577" y1="50.2992" x2="49.574" y2="57.5281" gradientUnits="userSpaceOnUse">
<stop stop-color="#42FEFB"/>
<stop offset="1" stop-color="#0FE9EA"/>
</linearGradient>
<linearGradient id="paint28_linear_320_736" x1="58.9577" y1="50.2992" x2="49.574" y2="57.5281" gradientUnits="userSpaceOnUse">
<stop stop-color="#42FEFB"/>
<stop offset="1" stop-color="#0FE9EA"/>
</linearGradient>
</defs>
</svg>
