<svg width="147" height="157" viewBox="0 0 147 157" fill="none" xmlns="http://www.w3.org/2000/svg">
<g opacity="0.6" filter="url(#filter0_f_320_798)">
<path d="M53.8448 57.4483L54.3413 54.9204L54.7928 52.8891L55.1539 51.6702L55.4313 50.838C55.4865 50.6723 55.5748 50.5195 55.6909 50.389L55.7271 50.3483C55.8253 50.2377 55.9461 50.1495 56.0812 50.0894L56.1018 50.0803C56.2209 50.0274 56.3498 50 56.4801 50C56.6462 50 56.8093 50.0444 56.9525 50.1286L57.5012 50.4514L59.0361 51.4897L62.2411 54.1079L65.8073 57.2678L66.7872 58.1693C66.8858 58.26 66.9966 58.3364 67.1164 58.3963L67.4324 58.3512L69.87 57.9449L72.5193 57.415C72.7088 57.3771 72.9015 57.3581 73.0948 57.3581C73.2619 57.3581 73.4287 57.3723 73.5934 57.4007L74.655 57.5838L77.7698 58.1706L78.9021 58.3475C79.1099 58.38 79.3199 58.3963 79.5303 58.3963L80.2977 57.674L83.8638 54.469L85.2181 53.2953L86.9786 51.8959L88.694 50.6771L89.4415 50.2014C89.6027 50.0989 89.7869 50.038 89.9775 50.0244L90.0636 50.0182C90.2303 50.0063 90.3969 50.0432 90.5429 50.1244C90.6628 50.191 90.765 50.2852 90.8411 50.3993L90.972 50.5957C91.0481 50.7098 91.1111 50.8321 91.1599 50.9602L91.4476 51.7154L91.899 53.6113L92.3053 55.5073L92.6664 57.2678L92.9373 58.8026L93.2081 60.8339L93.3436 62.5945L93.2984 64.3098V64.5535C93.2984 64.9606 93.2375 65.3653 93.1178 65.7544L91.8087 68.7337L91.4228 69.6109C91.3493 69.7778 91.297 69.9532 91.267 70.1331L91.3573 70.3137L96.1875 78.078L96.4939 78.5887C96.5592 78.6976 96.5937 78.8222 96.5937 78.9492C96.5937 79.0876 96.5528 79.2228 96.476 79.3379L96.4649 79.3546C96.4305 79.4062 96.39 79.4534 96.3443 79.4952L94.8332 80.8768L94.2384 81.4016C94.1264 81.5004 94.05 81.6332 94.0207 81.7796L94.0658 82.0956L94.9235 85.9326L95.2395 87.3771L95.2846 87.8737V87.9201C95.2846 88.0654 95.2352 88.2063 95.1444 88.3198C95.1176 88.3533 95.0874 88.3841 95.0544 88.4116L94.2915 89.0474L92.0796 90.8079L89.7322 92.749L88.6488 93.6066L87.3397 94.7803L84.1798 97.7597L81.7873 100.107L80.8845 101.055L80.3428 101.506L77.3635 103.673L74.7904 105.524L73.5924 106.251C73.5485 106.278 73.5023 106.3 73.4543 106.318L73.4342 106.326C73.2608 106.391 73.0698 106.391 72.8964 106.326C72.8352 106.303 72.7771 106.272 72.7237 106.235L72.0368 105.75L68.6963 103.357L67.1615 102.274L66.349 101.597L65.5364 100.874L62.0605 97.4437L60.5709 96.0443L56.5081 92.4781L53.6642 90.2662L51.5813 88.6083C51.4956 88.5401 51.4183 88.462 51.3511 88.3755L51.2323 88.2228C51.1693 88.1418 51.1275 88.0464 51.1106 87.9451C51.0978 87.8681 51.0996 87.7893 51.1161 87.713L51.4523 86.1583L52.0843 83.3144L52.3734 82.2664C52.4212 82.0931 52.4454 81.9142 52.4454 81.7344L51.5877 80.9219L50.349 79.8031C50.243 79.7073 50.1575 79.591 50.0976 79.4613C49.9821 79.2111 49.9688 78.9257 50.0605 78.6658L50.1291 78.4715C50.1685 78.36 50.2203 78.2533 50.2837 78.1535L51.994 75.4598L54.3413 71.6679L55.3345 69.9977L54.3413 67.7857L53.6642 66.1155L53.4667 65.5722C53.3579 65.273 53.2781 64.9641 53.2284 64.6496C53.188 64.3934 53.1677 64.1344 53.1677 63.875V63.0007L53.3031 60.8791L53.5288 59.5248L53.8448 57.4483Z" fill="#5EF4FF"/>
</g>
<path d="M53.8448 57.4483L54.3413 54.9204L54.7928 52.8891L55.1539 51.6702L55.4313 50.838C55.4865 50.6723 55.5748 50.5195 55.6909 50.389L55.7271 50.3483C55.8253 50.2377 55.9461 50.1495 56.0812 50.0894L56.1018 50.0803C56.2209 50.0274 56.3498 50 56.4801 50C56.6462 50 56.8093 50.0444 56.9525 50.1286L57.5012 50.4514L59.0361 51.4897L62.2411 54.1079L65.8073 57.2678L66.7872 58.1693C66.8858 58.26 66.9966 58.3364 67.1164 58.3963L67.4324 58.3512L69.87 57.9449L72.5193 57.415C72.7088 57.3771 72.9015 57.3581 73.0948 57.3581C73.2619 57.3581 73.4287 57.3723 73.5934 57.4007L74.655 57.5838L77.7698 58.1706L78.9021 58.3475C79.1099 58.38 79.3199 58.3963 79.5303 58.3963L80.2977 57.674L83.8638 54.469L85.2181 53.2953L86.9786 51.8959L88.694 50.6771L89.4415 50.2014C89.6027 50.0989 89.7869 50.038 89.9775 50.0244L90.0636 50.0182C90.2303 50.0063 90.3969 50.0432 90.5429 50.1244C90.6628 50.191 90.765 50.2852 90.8411 50.3993L90.972 50.5957C91.0481 50.7098 91.1111 50.8321 91.1599 50.9602L91.4476 51.7154L91.899 53.6113L92.3053 55.5073L92.6664 57.2678L92.9373 58.8026L93.2081 60.8339L93.3436 62.5945L93.2984 64.3098V64.5535C93.2984 64.9606 93.2375 65.3653 93.1178 65.7544L91.8087 68.7337L91.4228 69.6109C91.3493 69.7778 91.297 69.9532 91.267 70.1331L91.3573 70.3137L96.1875 78.078L96.4939 78.5887C96.5592 78.6976 96.5937 78.8222 96.5937 78.9492C96.5937 79.0876 96.5528 79.2228 96.476 79.3379L96.4649 79.3546C96.4305 79.4062 96.39 79.4534 96.3443 79.4952L94.8332 80.8768L94.2384 81.4016C94.1264 81.5004 94.05 81.6332 94.0207 81.7796L94.0658 82.0956L94.9235 85.9326L95.2395 87.3771L95.2846 87.8737V87.9201C95.2846 88.0654 95.2352 88.2063 95.1444 88.3198C95.1176 88.3533 95.0874 88.3841 95.0544 88.4116L94.2915 89.0474L92.0796 90.8079L89.7322 92.749L88.6488 93.6066L87.3397 94.7803L84.1798 97.7597L81.7873 100.107L80.8845 101.055L80.3428 101.506L77.3635 103.673L74.7904 105.524L73.5924 106.251C73.5485 106.278 73.5023 106.3 73.4543 106.318L73.4342 106.326C73.2608 106.391 73.0698 106.391 72.8964 106.326C72.8352 106.303 72.7771 106.272 72.7237 106.235L72.0368 105.75L68.6963 103.357L67.1615 102.274L66.349 101.597L65.5364 100.874L62.0605 97.4437L60.5709 96.0443L56.5081 92.4781L53.6642 90.2662L51.5813 88.6083C51.4956 88.5401 51.4183 88.462 51.3511 88.3755L51.2323 88.2228C51.1693 88.1418 51.1275 88.0464 51.1106 87.9451C51.0978 87.8681 51.0996 87.7893 51.1161 87.713L51.4523 86.1583L52.0843 83.3144L52.3734 82.2664C52.4212 82.0931 52.4454 81.9142 52.4454 81.7344L51.5877 80.9219L50.349 79.8031C50.243 79.7073 50.1575 79.591 50.0976 79.4613C49.9821 79.2111 49.9688 78.9257 50.0605 78.6658L50.1291 78.4715C50.1685 78.36 50.2203 78.2533 50.2837 78.1535L51.994 75.4598L54.3413 71.6679L55.3345 69.9977L54.3413 67.7857L53.6642 66.1155L53.4667 65.5722C53.3579 65.273 53.2781 64.9641 53.2284 64.6496C53.188 64.3934 53.1677 64.1344 53.1677 63.875V63.0007L53.3031 60.8791L53.5288 59.5248L53.8448 57.4483Z" fill="#0A63CA"/>
<path d="M64.4981 62.3687L67.2066 59.2088L72.3075 58.1706L73.1201 58.0352L73.3909 58.0803L77.3634 58.8026L79.169 59.1637L80.3879 60.5631L81.7872 62.2785L82.5998 62.8201L83.4123 63.2716L83.9089 63.6778L87.1591 66.8377L89.371 68.8691L90.0481 69.5914L90.3641 70.0879L91.4475 71.7582L93.7046 75.3695L95.6457 78.4842L95.7811 78.8454L95.5554 79.2516L93.2532 81.915L93.2983 82.1858L94.5171 87.1965V87.7834L94.2463 88.2348L90.3641 91.2593L86.2111 94.5997L83.5929 97.2179L80.9747 99.9716L80.0267 100.829L73.9326 105.208L73.5264 105.434L73.0749 105.479L72.5784 105.208L69.5539 103.086L66.5746 100.874L65.8072 100.288L65.2655 99.7007L61.5639 95.8637L60.5256 94.8706L59.2165 93.742L55.4246 90.7176L52.0842 88.1896L51.8133 87.8737L51.8585 87.4222L53.0321 82.547L53.1224 81.8698L53.0773 81.6441L51.9036 80.4253L50.8654 79.2516L50.8499 79.233C50.7199 79.0771 50.6837 78.8634 50.7549 78.6733C50.7683 78.6376 50.7853 78.6034 50.8056 78.5711L55.7406 70.7199L56.1469 70.1782L56.2823 69.9074L56.508 69.5462L59.2617 66.7926L61.3382 64.8967L62.3764 63.8584L63.0535 63.3167L64.0467 62.775L64.4981 62.3687Z" fill="url(#paint0_linear_320_798)"/>
<path d="M62.7376 86.0229L54.7476 87.2417L55.3795 90.2662L59.352 93.5615L69.6894 99.9265L80.6136 100.333L86.166 94.5998L87.8362 92.8392L90.5447 88.8217L83.8638 86.3389L79.6656 96.9923L73.391 98.0757L66.4843 96.9923L62.7376 86.0229Z" fill="#0575D9"/>
<path d="M65.0403 57.4934L66.5751 58.9379L63.7763 62.5492C61.4974 63.9586 59.3954 65.6359 57.5155 67.5452L57.4565 67.6051L55.8314 69.185L55.1995 67.9662L54.1612 65.7994L54.1573 65.7889C53.9509 65.2285 53.8452 64.6361 53.8452 64.0389L53.9806 61.827L54.1161 60.2019L54.3869 58.1254L54.6578 56.6357L55.064 54.6946L55.4252 53.2501L55.6509 52.4827L55.9368 51.5024C55.9568 51.4338 55.9829 51.3671 56.0149 51.3032L56.1201 51.0929C56.1671 50.9987 56.2434 50.9224 56.3376 50.8754C56.4198 50.8343 56.512 50.8173 56.6034 50.8264L56.706 50.8367C56.8431 50.8504 56.9748 50.8976 57.0895 50.974L57.8628 51.4896L58.9913 52.3472L61.6095 54.4689L65.0403 57.4934Z" fill="#36E2FF"/>
<path d="M59.6683 92.7488L59.3523 93.4711L59.3071 93.5614L60.1197 94.3288L60.5711 94.8705L64.0018 98.3915L65.8075 100.287L66.0783 100.513L65.9881 99.2944L65.8526 98.5269L65.1755 94.5545L64.047 88.957L63.8213 87.8736L63.6858 87.3319L62.9636 86.4742C62.244 87.2837 61.6252 88.1776 61.1207 89.1361L60.9774 89.4084L60.1648 91.3946L59.6683 92.7488Z" fill="#139DF5"/>
<path d="M68.2907 79.7481L68.8324 78.6647L68.7421 78.3938L68.5616 77.9876L68.4261 77.491L68.065 76.7236L67.5685 76.0013L67.0719 75.5048L66.2594 74.9631L64.9051 74.5117L62.648 74.1054L60.1201 73.8797H59.2173L61.3841 77.6264L61.9709 78.4841L62.4223 78.9355L62.964 79.1161L64.4988 79.387L66.4399 79.6127L68.2907 79.7481Z" fill="#0056B7"/>
<path d="M65.5806 97.1277L65.1743 94.5546V94.4643L66.4834 95.4574L68.9662 98.5271L69.869 99.2493L73.2546 101.506L77.2722 98.7076L80.7481 94.3289L81.335 93.5615L81.4704 93.2455L81.7864 92.5233L80.8835 97.534C80.7782 98.0155 80.5676 98.9965 80.5676 99.0688V100.378L79.9807 100.874L73.9318 105.208L73.5255 105.434L73.0289 105.479L72.1712 104.982L69.1016 102.77L66.0771 100.513L65.9869 99.2493L65.8514 98.4819L65.5806 97.1277Z" fill="#0E8BE8"/>
<path d="M84.1337 55.1461L80.5675 58.3512L79.9355 58.938L82.6892 62.6847L86.2553 64.671L90.7244 69.2754L91.8529 66.928L92.4397 65.7092L92.6654 65.1675V64.671V63.407L92.4849 60.7437L92.1689 58.3963L91.6272 55.5524L90.9501 52.6633L90.5802 51.4304C90.556 51.3499 90.5219 51.2726 90.4786 51.2005L90.3658 51.0124C90.3061 50.913 90.2109 50.84 90.0994 50.8081C90.0068 50.7816 89.9082 50.7851 89.8177 50.818L89.6046 50.8955C89.5089 50.9303 89.4182 50.9776 89.3349 51.0362L87.7902 52.1216L85.8039 53.7016L84.1337 55.1461Z" fill="#36E2FF"/>
<path d="M64.4086 86.5194L67.8393 80.1995L68.0651 79.7933H68.2908L67.2977 82.0955L64.7697 86.6548L65.4469 89.4535L66.124 92.6586L66.2594 93.2906L66.9365 94.9608L68.7873 97.1276L69.2387 97.0824L71.4055 96.3602L72.8952 95.7733H73.4369L76.5968 96.9019L77.3191 97.1276L77.635 97.0824L78.4024 96.2699L78.9893 95.5928L79.531 94.9157L80.0727 93.5614L80.2532 92.8392L80.4338 92.2072L80.7949 90.2661L81.5623 87.2868L81.6978 86.7451L81.6075 86.4291L78.3573 80.2447V79.7933L79.847 82.3663L82.1943 86.4291L82.5555 85.9325L82.9617 85.3005L88.1079 81.6892L83.9548 85.9325L83.0972 86.8805L82.7812 87.4673L81.7429 92.5683L81.3366 93.5614L78.0865 97.7144L77.2288 98.7527L73.2563 101.506L72.3986 100.965L69.8707 99.2492L68.9679 98.527L68.3359 97.7144L66.44 95.4122L65.176 94.5094L63.8669 88.009L63.6863 87.3319L63.2801 86.7902L62.7835 86.2485L58.4048 81.7795L61.655 84.2171L63.0092 85.2554L64.4086 86.5194Z" fill="#0A63CA"/>
<path d="M73.2114 100.603V96.7213L75.0622 97.2178L77.229 97.8949L75.8748 98.888L73.2114 100.603Z" fill="#0A7EE3"/>
<path d="M83.7735 71.2165L84.9923 70.7199L85.218 71.2165L85.3986 71.4873L85.8049 72.0742L86.4368 72.9318L87.1591 73.7895L85.2632 77.2654L84.4958 78.394L83.9089 78.8905L83.0061 79.1614L80.0719 79.6128L78.2662 79.7482C77.6794 78.5745 76.4967 76.2272 76.4606 76.2272C76.4245 76.2272 76.7766 75.8961 76.9571 75.7306L78.4468 74.3312L81.2004 72.5707L83.7735 71.2165Z" fill="#0A8AED"/>
<path d="M60.7521 71.4422L61.4292 70.6296L62.4223 71.1713L64.9502 72.4804L66.4851 73.293L68.2004 74.4667L69.961 76.0466L70.0964 76.3626L68.8324 78.6648L68.7421 78.394L68.5164 77.8974L68.4261 77.4911L68.2004 76.9946L67.8844 76.4529L67.5685 76.0015L67.117 75.5501L66.2594 74.9632L64.228 74.3764L62.9189 74.1507L62.1063 74.0604L60.8424 73.925L60.075 73.8798H59.2173L60.7521 71.4422Z" fill="#0A8AED"/>
<path opacity="0.5" d="M60.5715 74.6471L59.6687 74.4665L59.2173 73.8797H60.2104L62.648 74.1054L64.4283 74.4259C64.7458 74.483 65.0587 74.5629 65.3647 74.6649L65.6667 74.7656C66.0599 74.8966 66.4329 75.0818 66.7749 75.3158L66.8729 75.3829C67.0353 75.494 67.1871 75.62 67.3262 75.7591C67.4574 75.8903 67.5768 76.0326 67.6831 76.1845L67.8393 76.4076L68.1553 76.9042L68.1764 76.9465C68.3424 77.2784 68.4716 77.6275 68.5616 77.9876L68.8324 78.6647L68.2907 79.7481L66.6229 79.5907C66.1453 79.5457 65.6828 79.3993 65.2662 79.1613L64.8959 78.9841C64.4518 78.7718 64.0313 78.5134 63.6411 78.2133L63.4678 78.0515C63.1335 77.7394 62.8426 77.3839 62.6029 76.9945C62.3929 76.5746 62.2326 76.1317 62.1251 75.6747L62.1063 75.5951L62.0161 74.8277L61.5195 74.7825L60.5715 74.6471Z" fill="#0A63CA"/>
<path d="M61.7456 70.3588L64.2284 63.2264L64.3187 63.0458L66.0792 65.1675L67.1174 66.2509L68.562 68.3274L70.3225 70.449L73.1213 73.5638L70.3225 76.498L70.0516 76.2723L69.9614 75.7306L69.3294 74.8278L68.4717 74.0152L67.298 73.1124L65.5375 72.1644L63.9575 71.397L61.7456 70.3588Z" fill="#36D1FF"/>
<path d="M68.5154 65.2128L72.9844 61.5564L73.2101 61.3758V64.0843L73.1198 72.932L71.3593 71.0361L69.7793 69.2304L68.1994 67.1539L67.5674 66.1608L68.5154 65.2128Z" fill="#A3FFFE"/>
<path d="M56.1914 63.1812L56.7331 53.2953L56.8685 52.573L58.7645 56.4552L59.7576 58.0351L59.8479 58.5768L59.6673 59.3894L59.0805 61.195L58.9902 61.827L60.2993 64.6709L59.1256 65.98L57.4554 67.6502L57.0491 66.6571L56.4171 64.6709L56.372 64.3098L56.2365 64.0389L56.1914 63.8132V63.1812Z" fill="#0A7EE3"/>
<path d="M59.7573 56.7712L56.9585 52.7085L57.9967 55.2364L59.7573 58.0352L59.8475 58.5769L59.4864 59.6603L59.0801 61.1048L59.0047 61.5069C58.9657 61.715 58.9938 61.93 59.0848 62.1212L60.299 64.671L58.8093 66.2961L61.1115 64.355L62.0595 63.723L63.6846 62.5945L62.2852 60.5631L61.1115 58.7575L59.7573 56.7712Z" fill="#0A63CA"/>
<path d="M67.2974 65.7542L72.9852 61.2401L72.9401 58.3962L69.5093 58.9379L67.3877 59.3441L66.7557 60.0664L64.6792 62.5943L64.7243 62.9554L65.4917 63.8583L66.6203 65.1222L67.2974 65.7542Z" fill="#62FFFE"/>
<path d="M79.621 65.4834L81.6072 63.3166L81.8781 62.9554V62.7749L81.7427 62.504L79.6662 60.1567L78.8988 59.299L75.5131 58.7121L73.2109 58.351V60.0212L73.3012 61.1498L77.5445 64.4903L78.989 65.7542L79.3502 65.7091L79.621 65.4834Z" fill="#62FFFE"/>
<path d="M73.1646 72.8869L73.2548 61.3758L75.8279 63.4072L78.2655 65.6642L78.8524 66.2059L78.7169 66.5219L77.8593 67.6505L76.821 68.9596L75.2411 70.9006L73.8868 72.3452L73.1646 72.8869Z" fill="#5EF4FF"/>
<path d="M88.9191 54.1078L88.6934 53.9273L89.2802 53.0696L89.7768 52.3473L90.1379 51.7153L90.3636 51.0382L90.6796 51.7153L91.2213 53.7467L91.9435 57.1323L92.4401 60.1568L92.5755 62.143L92.6658 63.5875V65.2578L90.7247 69.2754L89.1448 67.6503L90.0927 64.5355L90.2733 63.9035L90.0927 57.358L90.0025 54.7398L89.867 53.6113L89.6865 53.4307L88.9191 54.1078Z" fill="#1BABFF"/>
<path d="M88.7396 54.8751L89.5973 53.5209L89.6876 53.4306L89.8682 53.6112L90.0036 54.6043L90.0487 55.7328L90.2744 63.9034L89.1459 67.6502L88.1528 66.6119L86.2568 64.6708L87.6111 61.7366L86.6631 58.3059L87.6562 56.6808L88.7396 54.8751Z" fill="#0A7EE3"/>
<path d="M79.5312 66.2057L82.2849 63.2264L83.6391 67.2891L84.7676 70.2684L82.962 71.2164L80.7952 72.2998L78.6735 73.5638L77.8159 74.2409L76.8679 75.2791L76.281 76.3625L73.2114 73.5638L74.1594 72.8415L75.1074 71.7581L76.7325 69.8622L78.3576 67.6502L79.1701 66.612L79.5312 66.2057Z" fill="#36D1FF"/>
<path d="M58.539 75.1889L58.4487 74.2861L53.5283 77.2203L52.1742 78.1034C51.6935 78.4169 51.2404 78.7708 50.8198 79.1613L51.3615 79.4322L58.1779 81.5538L58.539 81.6893L58.4487 77.8071L58.539 75.1889Z" fill="#25C8FF"/>
<path d="M60.7518 79.3869L58.585 81.6891L58.9461 75.3693L59.1267 75.0533L59.5329 74.9179L60.7066 77.8972L61.0226 78.8452V79.1161L60.7518 79.3869Z" fill="#29E2FF"/>
<path d="M61.4279 70.6298C60.6605 71.6379 59.1256 73.6633 59.1256 73.6994L58.268 72.4354L56.8234 70.4944L56.2817 69.9978L57.4554 70.0429L59.4416 70.1784L60.6605 70.3589L61.4279 70.6298Z" fill="#21C0FF"/>
<g filter="url(#filter1_f_320_798)">
<path d="M62.7834 75.6855L62.6479 74.8729L63.3702 74.9632L64.0315 75.0459C64.3125 75.081 64.5903 75.1377 64.8626 75.2155L64.9773 75.2483C65.2594 75.3289 65.5327 75.4379 65.7928 75.5736L66.0015 75.6825C66.2917 75.8339 66.5546 76.0327 66.7793 76.2707L66.8761 76.3732C67.0944 76.6043 67.2619 76.8786 67.3677 77.1784C67.4409 77.3858 67.4837 77.6027 67.4946 77.8223L67.5232 78.394H66.4526C66.1437 78.394 65.8354 78.3673 65.5311 78.3144L65.305 78.2751C65.0691 78.2341 64.8385 78.1674 64.6172 78.0763L64.5487 78.0481C64.306 77.9481 64.0767 77.8126 63.8717 77.6486C63.6309 77.456 63.4222 77.2221 63.2587 76.9606C63.1231 76.7436 63.0185 76.5086 62.9482 76.2625L62.7834 75.6855Z" fill="url(#paint1_linear_320_798)"/>
</g>
<path opacity="0.5" d="M62.7834 75.6855L62.6479 74.8729L63.3702 74.9632L64.0315 75.0459C64.3125 75.081 64.5903 75.1377 64.8626 75.2155L64.9773 75.2483C65.2594 75.3289 65.5327 75.4379 65.7928 75.5736L66.0015 75.6825C66.2917 75.8339 66.5546 76.0327 66.7793 76.2707L66.8761 76.3732C67.0944 76.6043 67.2619 76.8786 67.3677 77.1784C67.4409 77.3858 67.4837 77.6027 67.4946 77.8223L67.5232 78.394H66.4526C66.1437 78.394 65.8354 78.3673 65.5311 78.3144L65.305 78.2751C65.0691 78.2341 64.8385 78.1674 64.6172 78.0763L64.5487 78.0481C64.306 77.9481 64.0767 77.8126 63.8717 77.6486C63.6309 77.456 63.4222 77.2221 63.2587 76.9606C63.1231 76.7436 63.0185 76.5086 62.9482 76.2625L62.7834 75.6855Z" fill="url(#paint2_linear_320_798)"/>
<path d="M82.4646 63.3619L82.4194 62.775V62.6848L83.4125 63.2716L83.9994 63.7681L89.2809 68.7788L89.8226 69.3205L90.0935 69.6365L93.3888 74.8729L95.6459 78.4843L95.7813 78.8454L95.6007 79.1614L88.1975 74.3764L87.2947 73.6993L85.0376 70.7651L84.8571 70.2685L83.6834 66.7023L82.4646 63.3619Z" fill="#20ADFE"/>
<path d="M89.5971 69.9526L90.0485 69.7269L90.1388 69.6818L90.2742 69.9526L90.0034 70.1332L89.4617 70.4492L88.1526 72.3903L87.34 73.7445L85.1732 71.0811L84.9927 70.72L86.5726 70.2235L88.6491 70.0429L89.5971 69.9526Z" fill="#119BF6"/>
<path d="M88.061 81.6893L93.2523 81.915L93.3877 81.7796L95.5545 79.2517V79.1614C92.6634 80.0957 90.9522 80.755 88.061 81.6893Z" fill="#0575D7"/>
<path d="M81.7805 74.4615L82.9156 74.2408L84.0893 74.0603L85.8047 73.9248L87.1138 73.8797L86.3915 75.2339L85.3984 77.0396L85.0824 77.5362L84.6663 78.1443C84.553 78.3099 84.4179 78.4595 84.2648 78.5891C84.0299 78.7878 83.7566 78.936 83.462 79.0244L83.2412 79.0906C83.0845 79.1377 82.9246 79.1731 82.7628 79.1967L80.8391 79.4772L80.0266 79.6127L79.4397 79.6578L78.266 79.7481L77.6792 78.5744L77.9952 77.7167L78.3563 76.859L78.596 76.4275C78.7365 76.1747 78.9115 75.9427 79.116 75.7383C79.2413 75.6129 79.3771 75.4985 79.5219 75.3963L79.6079 75.3356C79.9158 75.1183 80.2506 74.942 80.604 74.8111L80.8224 74.7302C81.134 74.6148 81.4544 74.525 81.7805 74.4615Z" fill="#0056B7"/>
<path opacity="0.6" d="M86.0752 76.8592C86.3461 76.2272 86.8968 74.9271 86.9329 74.7827L87.5649 75.1889L88.0615 81.6893L85.2627 79.2065L86.0752 76.8592Z" fill="#15B7FF"/>
<path opacity="0.5" d="M82.3288 78.5293L81.2454 79.387L80.0717 79.6127L79.0786 79.7029L78.4466 79.7481H78.266L77.6792 78.5744L78.0403 77.5813L78.4466 76.6785L78.8529 76.0013L79.3043 75.5499L80.0717 75.0082L81.2905 74.5568L82.4642 74.3311L84.0441 74.0603L85.8498 73.9248L87.1138 73.8797L86.7978 74.4665L86.3915 74.5568L84.5858 74.8277L84.4504 75.2791L84.1796 76.2271L83.8184 77.0847L83.1413 77.8521L82.3288 78.5293Z" fill="#0A63CA"/>
<g filter="url(#filter2_f_320_798)">
<path d="M83.6157 74.888L83.8189 74.8729L83.7286 75.3243L83.5892 75.8819C83.5318 76.1115 83.4522 76.335 83.3514 76.5492L83.2941 76.6709C83.193 76.8857 83.0635 77.0859 82.909 77.2662C82.7047 77.5045 82.4596 77.7046 82.1851 77.8571L82.1148 77.8961C81.8974 78.0169 81.6663 78.111 81.4263 78.1765L81.2693 78.2193C80.9537 78.3054 80.6295 78.3563 80.3028 78.3712L79.8013 78.394H78.9888V78.135C78.9888 77.9768 79 77.8188 79.0224 77.6622L79.0379 77.5535C79.0652 77.3621 79.1164 77.1721 79.1882 76.9926C79.2941 76.7278 79.4481 76.4802 79.64 76.2692C79.7473 76.1512 79.8661 76.0442 79.9947 75.9499L80.0789 75.8882C80.3439 75.6939 80.6354 75.5387 80.9446 75.4274L81.607 75.1889C82.2681 75.0387 82.9396 74.9381 83.6157 74.888Z" fill="url(#paint3_linear_320_798)"/>
</g>
<path opacity="0.5" d="M83.6157 74.888L83.8189 74.8729L83.7286 75.3243L83.5892 75.8819C83.5318 76.1115 83.4522 76.335 83.3514 76.5492L83.2941 76.6709C83.193 76.8857 83.0635 77.0859 82.909 77.2662C82.7047 77.5045 82.4596 77.7046 82.1851 77.8571L82.1148 77.8961C81.8974 78.0169 81.6663 78.111 81.4263 78.1765L81.2693 78.2193C80.9537 78.3054 80.6295 78.3563 80.3028 78.3712L79.8013 78.394H78.9888V78.135C78.9888 77.9768 79 77.8188 79.0224 77.6622L79.0379 77.5535C79.0652 77.3621 79.1164 77.1721 79.1882 76.9926C79.2941 76.7278 79.4481 76.4802 79.64 76.2692C79.7473 76.1512 79.8661 76.0442 79.9947 75.9499L80.0789 75.8882C80.3439 75.6939 80.6354 75.5387 80.9446 75.4274L81.607 75.1889C82.2681 75.0387 82.9396 74.9381 83.6157 74.888Z" fill="url(#paint4_linear_320_798)"/>
<path d="M66.6655 82.276L66.6204 80.38L65.3564 80.1995L64.2279 80.064L63.009 79.8835L61.9256 79.6578H61.1582L60.6165 79.9738L59.3074 81.0572L58.54 81.6891L62.0611 84.2171L63.009 85.0296L64.4084 86.4741L66.3495 82.9982L66.6655 82.276Z" fill="#26DDFF"/>
<path opacity="0.6" d="M79.8457 82.3664V80.5607L80.1166 80.335L80.6582 80.1996L81.6062 80.019L82.6445 79.8836L84.0439 79.6579L85.2175 79.4322L86.3912 80.4253L88.0614 81.6893L87.4746 82.0955L82.9605 85.3006L82.1479 86.4291L80.568 83.5852L79.8457 82.3664Z" fill="#16B4FE"/>
<path d="M73.2102 88.5506L73.165 73.5637L70.4114 76.4527L70.3211 78.5744L70.1857 81.012L69.9148 84.533L69.644 87.6478L69.5537 88.6409L69.644 88.9569L69.9148 89.1375H70.3663L71.1337 88.9569L72.5782 88.6409L73.2102 88.5506Z" fill="#5BFFFF"/>
<path d="M73.2097 88.5506L73.1646 73.5637L76.1439 76.227L76.2342 79.0258L76.4599 82.8177L76.821 87.1512L76.8661 88.7763L76.7759 89.1375L76.5953 89.2729L75.3765 88.9569L73.7062 88.6409L73.2097 88.5506Z" fill="#2ED7FE"/>
<path d="M58.2683 81.915L58.178 81.5538L62.6922 86.1583L61.2928 87.9188L60.8842 88.5804C60.5254 89.1613 60.2215 89.7743 59.9764 90.4115C59.7709 90.9458 59.6075 91.4952 59.4875 92.0549L59.2614 93.11L54.7021 87.2417C55.361 86.6727 55.9366 86.014 56.4121 85.2848L57.0495 84.3075L58.2683 81.915Z" fill="#1295EF"/>
<path d="M72.4431 88.9572H73.2105L73.2635 88.9599C74.3699 89.0182 75.4695 89.1682 76.551 89.4086L77.0476 89.9503L77.499 90.4468C77.5286 90.9215 77.4447 91.3964 77.254 91.8321L77.2281 91.8913L77.1613 92.0115C76.906 92.4712 76.5932 92.8966 76.2305 93.2774C75.9932 93.5266 75.7355 93.7556 75.4602 93.9621L74.971 94.329L73.8425 94.961L73.6087 95.1428C73.4999 95.2275 73.4362 95.3576 73.4362 95.4954C73.4362 95.5002 73.437 95.505 73.4385 95.5095L73.5265 95.7735H72.9397L73.0087 95.601C73.0227 95.5659 73.03 95.5284 73.03 95.4905C73.03 95.4116 72.9986 95.3359 72.9428 95.2801L72.8494 95.1867L71.8563 94.5998L71.1597 94.1176C70.8423 93.8978 70.5453 93.65 70.2723 93.3769L70.2074 93.312C70.0129 93.1176 69.834 92.9082 69.6722 92.6857L69.4532 92.3846C69.2807 92.1475 69.1458 91.8852 69.053 91.607C68.996 91.4358 68.9552 91.2596 68.9314 91.0807L68.877 90.6725L69.1027 90.3565L69.5541 89.86L69.9603 89.3634L70.6826 89.228L71.4049 89.0926L72.4431 88.9572Z" fill="#0A63CA"/>
<path d="M73.209 96.7213L69.2817 97.8498L70.32 98.6623L73.209 100.558V96.7213Z" fill="#1097F1"/>
<path d="M73.2566 105.479L73.2114 101.552L77.229 98.7528L81.3369 93.5615L81.7883 92.5233L81.2015 95.7734L80.8855 97.5791L80.5695 99.0236V100.378L76.1456 103.628L73.5726 105.434L73.2566 105.479Z" fill="#0970D7"/>
<path d="M53.4842 87.3772L51.9494 87.8286L51.814 87.8737L52.0848 88.1897L56.5538 91.6205L58.2241 92.9747L60.6617 94.9158L60.0297 94.2387L58.8109 93.065L58.0435 91.8462L55.0641 87.7834L54.703 87.2417L54.4322 87.1966L53.4842 87.3772Z" fill="#0C8DE8"/>
<path d="M58.0422 81.6893L53.1218 82.1407L52.9863 81.599L52.2641 80.8768L51.1355 79.7031L50.7744 79.1614L51.3613 79.2968L58.1776 81.599L58.0422 81.6893Z" fill="#0669CF"/>
<path d="M90.0941 89.2278L91.5837 87.1062L91.6289 87.061L94.5179 87.7833L94.2471 88.2347L94.0665 88.3701L88.9655 92.3877L86.2119 94.5997L88.1981 91.9815L89.1913 90.4466L90.0941 89.2278Z" fill="#0586E7"/>
<path d="M91.6742 87.1514L88.0629 81.6893L83.4585 86.4292L83.7749 86.497C83.9838 86.5418 84.184 86.6207 84.3672 86.7307C84.6304 86.8886 84.8524 87.1066 85.015 87.3668L85.8961 88.7765C86.3766 89.7375 86.7669 90.7409 87.0621 91.774L87.3407 92.749L91.6742 87.1514Z" fill="#097FDF"/>
<path d="M85.3086 88.8216L84.8886 88.0309C84.6574 87.5957 84.3902 87.1807 84.0898 86.7902L83.5933 86.2936C83.5032 86.3537 83.4193 86.4225 83.3427 86.499L83.2773 86.5645L83.2572 86.5886C83.1206 86.7525 83.0033 86.9318 82.9079 87.1227C82.7936 87.3513 82.7115 87.5947 82.6639 87.8459L81.7876 92.478L80.8848 97.6241L81.1105 99.8812L83.5933 97.2179L86.2115 94.5997L86.9789 93.5163C86.9789 93.0669 86.9189 92.6195 86.8007 92.1859L86.708 91.846L86.076 90.3112L85.3086 88.8216Z" fill="#0988E7"/>
<path d="M64.0927 62.143L58.3597 53.2501L57.6826 52.0764L58.5403 52.6633L63.8219 56.41L66.5755 58.9379L64.0927 62.143Z" fill="#5DF7FF"/>
<path d="M82.4635 62.3686L84.3594 59.0733L88.1513 52.8438L79.9355 58.9378L82.4635 62.3686Z" fill="#5DF7FF"/>
<path opacity="0.2" d="M55.831 69.185L56.9144 68.1467L54.7476 65.4382L53.9351 64.6708L53.9802 65.1674L54.1156 65.7091L54.6573 66.8376L55.199 67.9662L55.831 69.185Z" fill="black"/>
<path opacity="0.2" d="M89.9126 68.4177L92.3502 65.0773L92.6662 64.7161V65.2578L92.2148 66.2058L90.7251 69.2754L89.9126 68.4177Z" fill="black"/>
<path d="M56.3735 64.3099L58.8563 61.7368L60.346 64.6259L57.4569 67.6503L56.9152 66.251L56.4187 64.671L56.3735 64.3099Z" fill="#0F8BE7"/>
<path d="M90.1841 64.0841L87.6562 61.7819L87.5208 61.827L86.2568 64.5806V64.8515L89.1459 67.6502L90.1841 64.0841Z" fill="#0F8BE7"/>
<path d="M86.752 58.2607C87.5344 56.9065 89.1445 54.1529 89.325 53.9723L89.7313 53.4306L88.7382 53.882L86.12 57.719L83.6372 61.4658L82.7344 62.6846L86.2103 65.1222L86.3908 64.5354L87.5645 62.188C87.6812 61.9256 87.7018 61.6305 87.6229 61.3543L87.5645 61.1498L87.1131 59.7955L86.752 58.2607Z" fill="#0A63CA"/>
<path d="M70.7282 89.228L71.6761 89.0474L72.4435 88.9572H73.2561L74.1764 89.0372C74.9461 89.1041 75.7098 89.2283 76.4611 89.4086L76.5238 89.5547C76.5722 89.6676 76.6087 89.7853 76.6328 89.9058L76.6556 90.0198C76.6763 90.1233 76.6809 90.2294 76.6693 90.3342C76.6512 90.4972 76.5941 90.6534 76.5082 90.7931C76.425 90.9285 76.3492 91.0553 76.3257 91.0788C76.0963 91.3082 75.7577 91.38 75.4388 91.4398L74.969 91.5279C74.6401 91.5895 74.307 91.6272 73.9726 91.6406L73.3464 91.6656L71.8567 91.5302L71.2785 91.466C71.1228 91.4487 70.9698 91.4129 70.8226 91.3594L70.6775 91.3066C70.5914 91.2753 70.5103 91.2314 70.437 91.1764L70.3657 91.1229C70.2494 91.0357 70.1649 90.9129 70.1249 90.7731C70.1059 90.7065 70.0974 90.6373 70.0997 90.568L70.1413 89.3183L70.7282 89.228Z" fill="#26A3FF"/>
<path d="M73.3467 91.6656V88.9572L74.3398 89.0474L75.3329 89.1829L75.9197 89.2731L76.0582 89.3028C76.3569 89.3668 76.5874 89.6046 76.642 89.9051L76.6574 90.0595C76.677 90.2553 76.655 90.4531 76.5927 90.6397L76.584 90.6659C76.5625 90.7304 76.5351 90.7927 76.5021 90.8521C76.3877 91.058 76.2103 91.2217 75.9959 91.3191L75.971 91.3305C75.877 91.3732 75.7779 91.4034 75.6761 91.4204L74.4752 91.6205L73.3467 91.6656Z" fill="#1081E9"/>
<path opacity="0.08" d="M70.8247 90.7477L70.4261 90.4376C70.3584 90.385 70.2751 90.3564 70.1894 90.3564C70.1876 90.3564 70.1861 90.3578 70.186 90.3596L70.1766 90.4723C70.1544 90.7384 70.2662 90.9982 70.4748 91.165C70.5526 91.2273 70.6413 91.2745 70.7365 91.3042L71.063 91.4062C71.2304 91.4586 71.4027 91.4939 71.5772 91.5118L72.2922 91.5852C72.8134 91.6386 73.3381 91.65 73.8611 91.6193L74.6101 91.5752L75.6709 91.4237C75.805 91.4045 75.9339 91.3587 76.0501 91.289L76.1543 91.2265C76.2657 91.1596 76.3538 91.0601 76.4066 90.9414L76.4152 90.9219C76.4737 90.7904 76.4808 90.6418 76.4353 90.5053C76.4256 90.4761 76.3904 90.4644 76.3651 90.4821L75.9644 90.7627C75.5771 91.001 75.146 91.1594 74.6965 91.2286L74.5259 91.2548C74.3115 91.2878 74.0949 91.3044 73.878 91.3044H73.2559L72.3051 91.2339C72.1267 91.2207 71.9498 91.1923 71.7763 91.1489L71.5146 91.0835C71.2638 91.0208 71.0288 90.9064 70.8247 90.7477Z" fill="white"/>
<path d="M69.057 90.3564L68.2896 79.7481L69.1472 78.0328L70.1404 76.3174L69.9598 79.4773L69.057 90.3564Z" fill="#15D0FD"/>
<path d="M78.2656 79.7481L77.4531 90.1307L76.776 83.6303L76.46 76.2271L77.3628 77.8973L78.2656 79.7481Z" fill="#15D0FD"/>
<path d="M77.5903 90.959L77.4995 90.853C77.3811 91.5337 77.1104 92.1832 76.7088 92.7454C76.5142 93.0178 76.2906 93.2681 76.0418 93.492L75.9036 93.6165C75.6438 93.8502 75.3651 94.062 75.0702 94.2496L74.0236 94.9157L73.6236 95.1824C73.5321 95.2434 73.4653 95.3349 73.4351 95.4406L73.4201 95.493C73.4016 95.5577 73.4052 95.6267 73.4302 95.6892C73.463 95.7713 73.53 95.835 73.6136 95.8637L76.6418 96.9019L77.1448 97.0696C77.2585 97.1075 77.3807 97.1122 77.4969 97.0831C77.6164 97.0533 77.7245 96.9891 77.8078 96.8984L78.7183 95.9088C79.283 95.3144 79.7082 94.6016 79.9629 93.8223L80.3434 92.6586C79.7772 92.5394 79.2402 92.3093 78.7634 91.9815L78.612 91.8774C78.2331 91.6169 77.8896 91.3081 77.5903 90.959Z" fill="#19AEFE"/>
<path d="M68.7639 90.916L68.832 90.7627L68.8623 90.9445C68.9022 91.1839 68.9652 91.4188 69.0504 91.646C69.1453 91.899 69.2672 92.1411 69.414 92.3679L69.4647 92.4463C69.6144 92.6777 69.7845 92.8952 69.973 93.0963L70.0588 93.1878C70.2639 93.4065 70.485 93.6096 70.7203 93.7954L71.2245 94.1934L72.6683 95.0684C72.6988 95.087 72.7277 95.1081 72.7546 95.1316L72.9062 95.2643C73.008 95.3533 73.0439 95.4961 72.9964 95.6227C72.9608 95.7176 72.8829 95.7905 72.7857 95.8197L72.4885 95.9088L70.3668 96.7214L69.1667 97.0524C69.0948 97.0723 69.0196 97.0771 68.9458 97.0665C68.8144 97.0477 68.6944 96.9814 68.6086 96.88L68.2452 96.4505L67.6745 95.8798C67.1312 95.3365 66.737 94.6625 66.5298 93.9226L66.259 93.2906L66.1235 92.6135C66.3899 92.6135 66.6518 92.5449 66.8839 92.4143L67.2521 92.2072L68.0625 91.7139C68.2135 91.622 68.3501 91.508 68.4675 91.3759C68.5894 91.2388 68.6894 91.0836 68.7639 90.916Z" fill="#16A1FE"/>
<defs>
<filter id="filter0_f_320_798" x="0" y="0" width="146.594" height="156.375" filterUnits="userSpaceOnUse" color-interpolation-filters="sRGB">
<feFlood flood-opacity="0" result="BackgroundImageFix"/>
<feBlend mode="normal" in="SourceGraphic" in2="BackgroundImageFix" result="shape"/>
<feGaussianBlur stdDeviation="25" result="effect1_foregroundBlur_320_798"/>
</filter>
<filter id="filter1_f_320_798" x="54.6479" y="66.8729" width="20.8755" height="19.5211" filterUnits="userSpaceOnUse" color-interpolation-filters="sRGB">
<feFlood flood-opacity="0" result="BackgroundImageFix"/>
<feBlend mode="normal" in="SourceGraphic" in2="BackgroundImageFix" result="shape"/>
<feGaussianBlur stdDeviation="4" result="effect1_foregroundBlur_320_798"/>
</filter>
<filter id="filter2_f_320_798" x="70.9888" y="66.8729" width="20.8301" height="19.5211" filterUnits="userSpaceOnUse" color-interpolation-filters="sRGB">
<feFlood flood-opacity="0" result="BackgroundImageFix"/>
<feBlend mode="normal" in="SourceGraphic" in2="BackgroundImageFix" result="shape"/>
<feGaussianBlur stdDeviation="4" result="effect1_foregroundBlur_320_798"/>
</filter>
<linearGradient id="paint0_linear_320_798" x1="64.1369" y1="56.5906" x2="77.8599" y2="78.3488" gradientUnits="userSpaceOnUse">
<stop stop-color="#D8FFFD"/>
<stop offset="1" stop-color="#23EFFF"/>
</linearGradient>
<linearGradient id="paint1_linear_320_798" x1="65.1307" y1="75.4146" x2="64.0022" y2="78.078" gradientUnits="userSpaceOnUse">
<stop stop-color="#7DFFFF"/>
<stop offset="1" stop-color="white"/>
</linearGradient>
<linearGradient id="paint2_linear_320_798" x1="65.1307" y1="75.4146" x2="64.0022" y2="78.078" gradientUnits="userSpaceOnUse">
<stop stop-color="#7DFFFF"/>
<stop offset="1" stop-color="white"/>
</linearGradient>
<linearGradient id="paint3_linear_320_798" x1="80.8396" y1="76.0917" x2="82.1938" y2="79.2516" gradientUnits="userSpaceOnUse">
<stop stop-color="#7DFFFF"/>
<stop offset="0.929244" stop-color="white"/>
</linearGradient>
<linearGradient id="paint4_linear_320_798" x1="80.8396" y1="76.0917" x2="82.1938" y2="79.2516" gradientUnits="userSpaceOnUse">
<stop stop-color="#7DFFFF"/>
<stop offset="0.929244" stop-color="white"/>
</linearGradient>
</defs>
</svg>
